<ttFont>
          <CharString index="0">
            rmoveto
            6 6 0 7 -5 6 -31 38 rcurveline
            -6 6 -7 1 -6 -6 -161 -141 rcurveline
            -7 -5 0 -8 5 -6 25 -29 rcurveline
            5 -7 7 0 7 4 rrcurveto
            return
          </CharString>
          <CharString index="1">
            hlineto
            -9 -4 -105 callgsubr
            return
          </CharString>
          <CharString index="2">
            -50 callgsubr
            -43 63 callsubr
            8 vhcurveto
            return
          </CharString>
          <CharString index="3">
            -90 callgsubr
            -568 -76 -106 callsubr
            return
          </CharString>
          <CharString index="4">
            -92 callsubr
            vhcurveto
            return
          </CharString>
          <CharString index="5">
            14 5 7 14 5 hvcurveto
            132 404 rlineto
            55 -14 callgsubr
            -5 -4 -8 hvcurveto
            -43 vlineto
            -8 5 92 callgsubr
            -100 -337 rlineto
            -2 hlineto
            -88 337 rlineto
            39 -35 callsubr
            -176 hlineto
            -64 callgsubr
            39 hlineto
            -88 -337 rlineto
            -2 hlineto
            -101 337 rlineto
            46 -35 callsubr
            -187 hlineto
            -64 callgsubr
            56 hlineto
            132 -404 rlineto
            -14 4 5 -7 15 hhcurveto
            58 hlineto
            15 7 6 15 3 hvcurveto
            85 335 rlineto
            2 hlineto
            85 -335 rlineto
            -15 2 8 -6 14 hhcurveto
            return
          </CharString>
          <CharString index="6">
            rmoveto
            9 5 -28 callgsubr
            155 3 -83 95 -143 hhcurveto
            -120 -116 -11 callgsubr
            35 callgsubr
            2 61 rmoveto
            96 12 70 40 69 hhcurveto
            86 48 -55 -81 4 hvcurveto
            return
          </CharString>
          <CharString index="7">
            rmoveto
            5 6 0 8 -7 5 -161 142 rcurveline
            -6 5 -8 -1 -5 -6 -32 -37 rcurveline
            -4 -7 0 -7 6 -5 168 -134 rcurveline
            6 -5 7 0 6 7 rrcurveto
            endchar
          </CharString>
          <CharString index="8">
            hlineto
            -98 callsubr
            return
          </CharString>
          <CharString index="9">
            -8 -4 -92 callgsubr
            return
          </CharString>
          <CharString index="10">
            rmoveto
            24 -19 19 -24 -24 -18 -19 -24 -24 18 -18 24 24 19 18 24 vhcurveto
            158 hmoveto
            24 -19 19 -24 -24 -18 -19 -24 -24 18 -18 24 24 19 18 24 vhcurveto
            return
          </CharString>
          <CharString index="11">
            26 13 13 27 8 hvcurveto
            183 603 rlineto
            64 -65 callsubr
            -226 hlineto
            -7 -5 -92 callgsubr
            71 hlineto
            -155 -537 rlineto
            -6 hlineto
            -140 612 rlineto
            -80 hlineto
            -139 -612 rlineto
            -6 hlineto
            -155 537 rlineto
            70 -44 callsubr
            63 hlineto
            183 -603 rlineto
            -27 9 12 -13 27 hhcurveto
            37 hlineto
            27 14 12 28 7 hvcurveto
            114 508 93 callgsubr
            -508 rlineto
            -28 7 14 -12 26 hhcurveto
            return
          </CharString>
          <CharString index="12">
            4 8 hvcurveto
            43 -103 callgsubr
            return
          </CharString>
          <CharString index="13">
            21 callgsubr
            631 77 vlineto
            -90 callsubr
            -502 -2 hlineto
            0 -25 47 -32 50 vhcurveto
            -285 446 rlineto
            17 -11 -12 17 -28 hhcurveto
            -140 -57 callgsubr
            492 2 hlineto
            0 21 -40 29 -44 vhcurveto
            289 -452 rlineto
            -19 12 11 -12 28 hhcurveto
            return
          </CharString>
          <CharString index="14">
            -8 hvcurveto
            -51 vlineto
            -8 return
          </CharString>
          <CharString index="15">
            -68 callgsubr
            -8 return
          </CharString>
          <CharString index="16">
            hlineto
            -105 callsubr
            return
          </CharString>
          <CharString index="17">
            -96 callgsubr
            -241 27 callsubr
            return
          </CharString>
          <CharString index="18">
            -12 callsubr
            hstemhm
            38 86 266 83 -83 151 hintmask 01111010
            529 -65 callgsubr
            hintmask 10111100
            -98 callgsubr
            hintmask 01111100
            -37 callsubr
            -52 149 rmoveto
            hintmask 10111100
            -47 callgsubr
            return
          </CharString>
          <CharString index="19">
            -77 215 hlineto
            3 3 142 260 62 90 rrcurveto
            69 hlineto
            -80 callgsubr
            -5 4 -7 vhcurveto
            -226 -99 callsubr
            66 hlineto
            -156 -278 rlineto
            -6 hlineto
            -157 278 rlineto
            66 -65 callsubr
            -225 8 callgsubr
            4 -4 9 vhcurveto
            68 hlineto
            60 -90 144 -260 3 -4 rrcurveto
            -214 -77 vlineto
            return
          </CharString>
          <CharString index="20">
            rmoveto
            143 106 99 156 156 -109 95 -139 -139 -111 -93 -158 -157 107 -98 142 hvcurveto
            70 vmoveto
            -89 -76 71 113 114 79 68 87 86 79 -68 -114 -113 -76 -71 -90 hvcurveto
            return
          </CharString>
          <CharString index="21">
            -4 8 vhcurveto
            return
          </CharString>
          <CharString index="22">
            -5 callgsubr
            34 callsubr
            hintmask 01101010
            562 -65 callgsubr
            hintmask 10011100
            -52 callsubr
            hintmask 10101100
            -67 callsubr
            hintmask 01101100
            -37 callsubr
            hintmask 10101100
            -200 63 -75 callsubr
            return
          </CharString>
          <CharString index="23">
            604 -107 callgsubr
            return
          </CharString>
          <CharString index="24">
            713 rmoveto
            5 6 1 7 -4 6 -25 28 rcurveline
            -5 7 -7 0 -7 -5 -124 -105 rcurveline
            -122 105 -7 5 -7 0 -5 -7 rlinecurve
            -25 -28 -4 -6 0 -8 6 -5 rlinecurve
            155 -136 rlineto
            -3 3 4 -1 3 hhcurveto
            4 2 1 4 4 hvcurveto
            return
          </CharString>
          <CharString index="25">
            hlineto
            -7 -5 -77 callsubr
            return
          </CharString>
          <CharString index="26">
            -8 4 -86 callsubr
            return
          </CharString>
          <CharString index="27">
            4 -10 callgsubr
            return
          </CharString>
          <CharString index="28">
            -53 callsubr
            139 -32 callsubr
            -32 4 callsubr
            -1 2 -36 0 hvcurveto
            -2 hlineto
            32 -24 -43 26 -75 hhcurveto
            -95 -72 -53 -89 hvcurveto
            -174 301 52 -99 vvcurveto
            -49 -37 -29 -71 -113 -28 85 0 vhcurveto
            20 vlineto
            8 -6 5 -8 vhcurveto
            -39 hlineto
            return
          </CharString>
          <CharString index="29">
            -88 -234 72 155 72 360 67 -28 callsubr
            hintmask 11110100
            501 480 rmoveto
            -103 callsubr
            -124 -82 callsubr
            hintmask 11110010
            -91 callgsubr
            hintmask 11101100
            -72 callsubr
            -98 hlineto
            -104 -76 -39 -89 -100 -43 43 7 -9 vhcurveto
            -6 4 -7 1 -5 -6 -25 -37 rcurveline
            -6 -6 3 -7 6 -5 rrcurveto
            -6 8 54 -60 131 hhcurveto
            136 103 67 148 hvcurveto
            return
          </CharString>
          <CharString index="30">
            -38 callgsubr
            -43 vlineto
            -81 callsubr
            return
          </CharString>
          <CharString index="31">
            -19 callgsubr
            6 -8 vhcurveto
            -296 74 callgsubr
            -42 vlineto
            -20 callgsubr
            return
          </CharString>
          <CharString index="32">
            rmoveto
            -88 -67 72 110 114 68 70 87 83 69 -66 -117 -114 -68 -69 -84 hvcurveto
            return
          </CharString>
          <CharString index="33">
            -49 callgsubr
            -32 4 callsubr
            -92 59 -47 80 81 60 47 92 -36 callsubr
            hvcurveto
            endchar
          </CharString>
          <CharString index="34">
            rmoveto
            133 51 68 73 hvcurveto
            168 -306 -59 112 vvcurveto
            51 46 27 49 91 33 -52 -28 vhcurveto
            -14 -16 callsubr
            39 hlineto
            hintmask 10101100
            -79 callsubr
            hintmask 01110100
            -42 callsubr
            hintmask 10110100
            -17 8 46 -55 103 hhcurveto
            endchar
          </CharString>
          <CharString index="35">
            57 -258 hlineto
            -105 1 65 -69 108 hhcurveto
            108 37 63 23 11 hvcurveto
            3 return
          </CharString>
          <CharString index="36">
            hlineto
            -63 callgsubr
            return
          </CharString>
          <CharString index="37">
            5 -4 8 return
          </CharString>
          <CharString index="38">
            483 236 -101 callsubr
            return
          </CharString>
          <CharString index="39">
            -222 rmoveto
            -4 3 -2 4 43 36 30 79 46 -21 27 -34 -26 -21 -21 -26 vhcurveto
            return
          </CharString>
          <CharString index="40">
            44 -20 -51 47 -95 hhcurveto
            -132 -93 -98 -154 -148 88 -106 137 95 49 55 52 23 hvcurveto
            2 -58 hlineto
            return
          </CharString>
          <CharString index="41">
            hlineto
            -100 callgsubr
            return
          </CharString>
          <CharString index="42">
            hlineto
            -96 callgsubr
            return
          </CharString>
          <CharString index="43">
            hstemhm
            38 -59 callgsubr
            return
          </CharString>
          <CharString index="44">
            rmoveto
            -50 callsubr
            hintmask 11001100
            -6 callgsubr
            hintmask 10011100
            -15 callgsubr
            hintmask 11001100
            30 -21 -47 44 -91 hhcurveto
            -121 -117 -11 callgsubr
            132 30 callgsubr
            rrcurveto
            endchar
          </CharString>
          <CharString index="45">
            44 -35 -60 35 -103 hhcurveto
            -146 -88 -85 -109 hvcurveto
            -257 444 87 -165 vvcurveto
            -77 -62 -44 -102 -161 -53 136 15 vhcurveto
            21 vlineto
            -4 callsubr
            -7 vhcurveto
            -63 hlineto
            return
          </CharString>
          <CharString index="46">
            -101 callgsubr
            hintmask 11010000
            -53 168 hlineto
            86 67 94 121 vhcurveto
            21 64 callsubr
            53 vlineto
            -36 callsubr
            -181 -33 -139 0 vhcurveto
            -3 125 hlineto
            hintmask 10110000
            -97 callgsubr
            -117 -91 callsubr
            hintmask 11000100
            20 callsubr
            hintmask 11010000
            -35 callgsubr
          </CharString>
          <CharString index="47">
            21 callgsubr
            134 -102 callgsubr
            -43 -56 callgsubr
            hintmask 10101100
            -79 -275 vlineto
            328 346 rlineto
            9 8 7 10 14 vvcurveto
            35 -102 callgsubr
            -417 -56 callgsubr
            -132 63 callsubr
            8 vhcurveto
            43 hlineto
            32 callgsubr
            hintmask 01011100
            77 271 vlineto
            -324 -338 rlineto
            -9 -9 -6 -6 -19 vvcurveto
            -41 vlineto
            -8 5 -19 callsubr
          </CharString>
          <CharString index="48">
            4 -8 vhcurveto
            return
          </CharString>
          <CharString index="49">
            rmoveto
            -5 6 -6 1 -7 -6 rrcurveto
            -4 -4 -19 -15 -30 hhcurveto
            -54 -32 34 67 hvcurveto
            260 127 82 callsubr
            41 vlineto
            8 -6 5 -8 vhcurveto
            -127 101 hlineto
            58 callgsubr
            -56 hlineto
            -8 -6 -6 -8 hvcurveto
            -101 -56 vlineto
            53 callsubr
            56 -262 hlineto
            -113 61 -57 100 59 33 31 8 9 vhcurveto
            6 6 2 7 -6 6 rrcurveto
            endchar
          </CharString>
          <CharString index="50">
            rmoveto
            35 callgsubr
            360 hlineto
            8 6 6 8 hvcurveto
            155 2 -81 94 -144 hhcurveto
            -71 -68 -33 -61 -41 hvcurveto
            hintmask 11011110
            68 -29 -64 27 -90 hhcurveto
            -135 -55 -58 -6 -5 hvcurveto
            -6 -5 -1 -5 5 -6 28 -35 rcurveline
            4 -5 6 0 5 2 rrcurveto
            hintmask 11101110
            4 41 46 106 hhcurveto
            77 53 -29 -95 hvcurveto
            -13 -84 vlineto
            -158 -110 -45 -114 -87 71 -52 93 123 70 76 43 29 hvcurveto
            -77 42 79 -42 91 hhcurveto
            -239 175 rmoveto
            -5 -5 -51 -99 -114 hhcurveto
            -63 -40 34 45 75 83 19 104 hvcurveto
            79 hlineto
            -18 3 -35 4 -16 vhcurveto
            80 123 rmoveto
            97 13 69 45 69 hhcurveto
            86 48 -60 -82 4 hvcurveto
            endchar
          </CharString>
          <CharString index="51">
            -7 6 -7 -3 -5 -9 rrcurveto
            -40 -23 -66 -86 -155 hhcurveto
            -123 -128 93 190 192 128 90 120 126 86 -92 -53 hvcurveto
            -9 vlineto
            return
          </CharString>
          <CharString index="52">
            hmoveto
            -101 callgsubr
            return
          </CharString>
          <CharString index="53">
            8 hvcurveto
            51 return
          </CharString>
          <CharString index="54">
            -34 callsubr
            hvcurveto
            return
          </CharString>
          <CharString index="55">
            -56 412 hlineto
            -4 callsubr
            -7 vhcurveto
            -52 hlineto
            -7 -20 callsubr
            -71 -1 vlineto
            return
          </CharString>
          <CharString index="56">
            hstem
            48 94 509 93 vstem
            308 -51 89 callgsubr
            12 40 rlineto
            -5 20 20 -3 22 hhcurveto
            196 151 146 224 164 -85 115 -116 51 hvcurveto
            23 78 rlineto
            8 2 -3 4 -8 hhcurveto
            -59 hlineto
            -8 -6 -4 -8 -2 hvcurveto
            -17 -55 rlineto
            5 -22 -23 3 -23 hhcurveto
            -181 -168 -133 -228 -164 84 -125 125 -53 hvcurveto
            -18 -60 90 callsubr
            34 158 rmoveto
            -77 39 -63 84 130 vvcurveto
            188 131 92 115 4 vhcurveto
            17 18 -2 -6 19 hvcurveto
            -83 -555 rmoveto
            158 525 rlineto
            72 -39 62 -81 -126 vvcurveto
            -184 -123 -95 -119 -6 vhcurveto
            -17 -17 2 4 -16 hvcurveto
            return
          </CharString>
          <CharString index="57">
            -6 5 -7 -1 -4 -7 rrcurveto
            -23 -14 -59 -55 -86 hhcurveto
            -83 -84 65 119 120 89 62 75 87 54 -59 -43 1 hvcurveto
            -17 vlineto
            return
          </CharString>
          <CharString index="58">
            -104 callsubr
            endchar
          </CharString>
          <CharString index="59">
            -4 6 -7 -1 -7 -4 rrcurveto
            -5 -9 -14 -5 -16 hhcurveto
            -23 -15 13 21 return
          </CharString>
          <CharString index="60">
            397 -7 -94 callgsubr
            return
          </CharString>
          <CharString index="61">
            96 0 75 249 69 250 59 callsubr
            378 90 vstem
            348 hmoveto
            211 133 37 callgsubr
            -269 -71 callsubr
            76 -250 -68 hlineto
            -8 -6 -5 -9 hvcurveto
            -42 -16 callsubr
            68 -249 -76 -71 callsubr
            163 75 rmoveto
            249 153 vlineto
            -53 callsubr
            42 vlineto
            9 -5 5 -8 vhcurveto
            -153 250 97 hlineto
            187 94 -109 -176 -188 -98 -94 -180 -1 hvcurveto
            endchar
          </CharString>
          <CharString index="62">
            75 callsubr
            -8 -5 -4 -8 return
          </CharString>
          <CharString index="63">
            -66 callsubr
            -225 -71 callsubr
            return
          </CharString>
          <CharString index="64">
            75 -75 185 135 3 callgsubr
            return
          </CharString>
          <CharString index="65">
            -26 callsubr
            -150 vlineto
            -20 callgsubr
            34 hlineto
            8 6 5 8 3 -2 49 0 hvcurveto
            2 hlineto
            return
          </CharString>
          <CharString index="66">
            -8 -6 -5 -8 hvcurveto
            -51 -16 callsubr
            return
          </CharString>
          <CharString index="67">
            60 callgsubr
            242 810 rlineto
            8 3 -3 4 -8 hhcurveto
            -59 hlineto
            -8 -6 -4 -8 -3 hvcurveto
            -242 -810 rlineto
            -8 -2 return
          </CharString>
          <CharString index="68">
            5 -80 callsubr
            return
          </CharString>
          <CharString index="69">
            598 -97 callsubr
            return
          </CharString>
          <CharString index="70">
            -31 14 -11 29 vhcurveto
            return
          </CharString>
          <CharString index="71">
            -4 callsubr
            -8 return
          </CharString>
          <CharString index="72">
            hlineto
            7 5 -95 callsubr
            return
          </CharString>
          <CharString index="73">
            8 -13 callsubr
            return
          </CharString>
          <CharString index="74">
            -45 -29 -66 -56 -127 hhcurveto
            -125 -129 97 186 176 124 106 128 125 83 -77 -53 hvcurveto
            -12 vlineto
            return
          </CharString>
          <CharString index="75">
            vlineto
            -49 callgsubr
            return
          </CharString>
          <CharString index="76">
            -89 callgsubr
            endchar
          </CharString>
          <CharString index="77">
            134 47 -84 -41 hvcurveto
            -28 vlineto
            52 callsubr
            4 4 31 callsubr
            return
          </CharString>
          <CharString index="78">
            287 -7 -87 callsubr
            return
          </CharString>
          <CharString index="79">
            hstemhm
            25 151 -82 82 177 148 -82 82 return
          </CharString>
          <CharString index="80">
            vlineto
            -100 callgsubr
            return
          </CharString>
          <CharString index="81">
            -8 -20 callsubr
            return
          </CharString>
          <CharString index="82">
            52 callgsubr
            -28 callsubr
            -82 151 hintmask 01110001
            return
          </CharString>
          <CharString index="83">
            242 -55 callsubr
            return
          </CharString>
          <CharString index="84">
            hlineto
            -103 callsubr
            return
          </CharString>
          <CharString index="85" raw="1">
            29fbc1f7 89f79107 930b 
          </CharString>
          <CharString index="86">
            413 -23 callsubr
            return
          </CharString>
          <CharString index="87">
            -5 -3 callgsubr
            return
          </CharString>
          <CharString index="88">
            -86 callsubr
            endchar
          </CharString>
          <CharString index="89">
            8 hvcurveto
            161 -102 callgsubr
            return
          </CharString>
          <CharString index="90">
            hmoveto
            -96 callgsubr
            return
          </CharString>
          <CharString index="91">
            vlineto
            -8 6 -18 callgsubr
            return
          </CharString>
          <CharString index="92">
            105 -1 -62 69 -108 hhcurveto
            -108 -41 -67 -20 -12 hvcurveto
            -3 hlineto
            2 return
          </CharString>
          <CharString index="93">
            -64 callsubr
            hintmask 11101000
            242 hmoveto
            41 callsubr
            413 hlineto
            49 callsubr
            -358 67 callsubr
            return
          </CharString>
          <CharString index="94">
            5 5 8 return
          </CharString>
          <CharString index="95">
            -65 -8 71 -42 -21 230 60 137 72 return
          </CharString>
          <CharString index="96">
            -57 -38 -31 -45 -44 -37 31 57 return
          </CharString>
          <CharString index="97">
            42 callsubr
            128 hlineto
            -101 callgsubr
            -128 61 24 callsubr
            -62 return
          </CharString>
          <CharString index="98">
            -58 callgsubr
            -62 -57 vlineto
            -105 callsubr
            57 0 callsubr
            return
          </CharString>
          <CharString index="99">
            -8 -93 callgsubr
            return
          </CharString>
          <CharString index="100">
            -8 4 -5 8 vhcurveto
            63 64 callsubr
            218 vlineto
            return
          </CharString>
          <CharString index="101">
            81 -53 -21 477 247 -82 82 -5 -20 hstemhm
            48 67 callgsubr
            return
          </CharString>
          <CharString index="102">
            196 0 75 173 69 326 75 return
          </CharString>
          <CharString index="103">
            8 -5 5 return
          </CharString>
          <CharString index="104">
            -55 hlineto
            hintmask 1111100100000000
            -105 callsubr
            191 hlineto
            hintmask 1111010100000000
            -101 callgsubr
            hintmask 1111100100000000
            -53 274 hlineto
            -1 31 87 102 74 36 -47 -75 vhcurveto
            68 callsubr
          </CharString>
          <CharString index="105" raw="1">
            500afb91 f78c0b  
          </CharString>
          <CharString index="106">
            rmoveto
            -123 -46 -64 -152 -9 -4 -4 -8 vhcurveto
            -51 63 callsubr
            8 191 94 71 200 vhcurveto
            372 77 -27 callsubr
            -240 -71 callsubr
            76 hlineto
            endchar
          </CharString>
          <CharString index="107">
            -358 -55 -91 callsubr
            return
          </CharString>
          <CharString index="108">
            79 47 -21 26 -35 -26 -21 -20 -27 return
          </CharString>
          <CharString index="109">
            -228 182 -94 94 return
          </CharString>
          <CharString index="110">
            -101 callgsubr
            hintmask 11010010
            return
          </CharString>
          <CharString index="111">
            hlineto
            -8 -5 -5 -8 return
          </CharString>
          <CharString index="112">
            -20 hstemhm
            38 151 -151 return
          </CharString>
          <CharString index="113">
            80 -80 146 hintmask 1110101101000000
            14 callsubr
            hintmask 1101101100100000
            -24 callgsubr
            return
          </CharString>
          <CharString index="114">
            -200 63 rmoveto
            -90 -65 74 111 113 69 68 86 82 70 -65 -117 -113 -66 -71 -86 hvcurveto
            endchar
          </CharString>
          <CharString index="115">
            84 -56 -21 256 71 161 236 -82 82 -6 -20 return
          </CharString>
          <CharString index="116">
            -8 -6 -3 callgsubr
            return
          </CharString>
          <CharString index="117">
            54 callsubr
            -116 175 -23 callsubr
            -59 -56 callgsubr
            -175 -121 vlineto
            -41 callsubr
            121 return
          </CharString>
          <CharString index="118">
            hlineto
            -8 -4 -77 callsubr
            return
          </CharString>
          <CharString index="119">
            hmoveto
            -74 callgsubr
            return
          </CharString>
          <CharString index="120">
            592 hmoveto
            -53 callgsubr
            return
          </CharString>
          <CharString index="121">
            268 -234 rmoveto
            136 102 67 148 hvcurveto
            444 54 vlineto
            return
          </CharString>
          <CharString index="122">
            8 6 -28 callgsubr
            49 vlineto
            8 -6 5 -8 vhcurveto
            return
          </CharString>
          <CharString index="123">
            -34 -234 72 155 33 callgsubr
            -7 -20 return
          </CharString>
          <CharString index="124">
            51 vlineto
            -36 callsubr
            return
          </CharString>
          <CharString index="125">
            hlineto
            9 callsubr
            return
          </CharString>
          <CharString index="126">
            hlineto
            -74 callgsubr
            return
          </CharString>
          <CharString index="127">
            55 65 callsubr
            return
          </CharString>
          <CharString index="128">
            -231 222 77 hstem
            363 222 -26 callgsubr
            -311 hlineto
            -41 callsubr
            endchar
          </CharString>
          <CharString index="129">
            -126 0 67 -67 158 178 156 -67 67 hstemhm
            38 68 306 69 hintmask 01101100
            return
          </CharString>
          <CharString index="130">
            -32 callgsubr
            160 -103 callgsubr
            -54 -56 callgsubr
            return
          </CharString>
          <CharString index="131">
            hlineto
            -58 callgsubr
            return
          </CharString>
          <CharString index="132">
            106 189 -568 -76 vlineto
            -26 callsubr
            -49 vlineto
            0 callgsubr
          </CharString>
          <CharString index="133">
            35 callsubr
            vhcurveto
            return
          </CharString>
          <CharString index="134">
            -99 callsubr
            77 return
          </CharString>
          <CharString index="135">
            -74 callgsubr
            -61 hlineto
            return
          </CharString>
          <CharString index="136">
            -106 -7 70 235 201 -70 70 -6 -20 return
          </CharString>
          <CharString index="137">
            33 callgsubr
            hstem
            96 callsubr
            83 vstem
            return
          </CharString>
          <CharString index="138">
            8 hvcurveto
            218 vlineto
            return
          </CharString>
          <CharString index="139">
            8 -5 4 -7 vhcurveto
            return
          </CharString>
          <CharString index="140">
            rmoveto
            31 -25 26 -31 -31 -25 -26 -31 -31 25 -24 31 31 25 24 31 vhcurveto
            endchar
          </CharString>
          <CharString index="141">
            hstemhm
            38 82 307 79 -79 147 return
          </CharString>
          <CharString index="142">
            567 rmoveto
            -4 81 callgsubr
            30 1 callsubr
            return
          </CharString>
          <CharString index="143">
            rmoveto
            26 -21 21 -26 -27 -21 -21 -26 -27 21 -20 27 26 21 20 27 vhcurveto
            return
          </CharString>
          <CharString index="144">
            26 -21 21 -27 -26 -21 -21 -26 -27 21 -20 26 27 21 20 27 vhcurveto
            return
          </CharString>
          <CharString index="145">
            67 348 79 -2 -20 -64 callsubr
            return
          </CharString>
          <CharString index="146">
            1 callsubr
            vhcurveto
            return
          </CharString>
          <CharString index="147">
            45 callsubr
            326 -103 callgsubr
            -59 -56 callgsubr
            -326 63 callsubr
            8 vhcurveto
            return
          </CharString>
          <CharString index="148">
            -101 callgsubr
            hintmask 11110000
            -53 return
          </CharString>
          <CharString index="149">
            8 4 -95 callsubr
            -88 358 return
          </CharString>
          <CharString index="150" raw="1">
            15a70a0b   
          </CharString>
          <CharString index="151">
            59 callsubr
            372 87 vstem
            return
          </CharString>
          <CharString index="152">
            rmoveto
            32 callgsubr
            return
          </CharString>
          <CharString index="153">
            -64 callsubr
            243 82 return
          </CharString>
          <CharString index="154">
            -92 216 141 hlineto
            70 14 -28 -24 12 hvcurveto
            94 -191 rlineto
            -30 15 16 -18 29 hhcurveto
            endchar
          </CharString>
          <CharString index="155">
            6 3 3 19 callgsubr
            return
          </CharString>
          <CharString index="156">
            -103 callsubr
            -126 -91 callsubr
            hintmask 11100100
            55 return
          </CharString>
          <CharString index="157">
            -41 callgsubr
            rrcurveto
            return
          </CharString>
          <CharString index="158">
            hmoveto
            7 5 -95 callsubr
            return
          </CharString>
          <CharString index="159">
            -8 4 -4 80 callsubr
            return
          </CharString>
          <CharString index="160">
            9 callsubr
            -41 -16 callsubr
            return
          </CharString>
          <CharString index="161">
            8 5 5 8 hvcurveto
            51 -32 callsubr
            return
          </CharString>
          <CharString index="162">
            0 2 -3 -9 vvcurveto
            -38 -23 -15 -18 return
          </CharString>
          <CharString index="163">
            -28 20 -18 23 14 5 5 0 vhcurveto
            return
          </CharString>
          <CharString index="164">
            vlineto
            58 callgsubr
            return
          </CharString>
          <CharString index="165">
            75 65 callgsubr
            return
          </CharString>
          <CharString index="166">
            75 6 callgsubr
            return
          </CharString>
          <CharString index="167">
            0 81 callsubr
            return
          </CharString>
          <CharString index="168">
            -4 6 26 -19 40 hhcurveto
            endchar
          </CharString>
          <CharString index="169">
            77 187 -20 hstem
            173 84 vstem
            245 -131 45 callsubr
            return
          </CharString>
          <CharString index="170">
            vlineto
            24 callgsubr
            return
          </CharString>
          <CharString index="171">
            hlineto
            -53 callsubr
            return
          </CharString>
          <CharString index="172">
            -358 -55 hlineto
            return
          </CharString>
          <CharString index="173">
            27 -21 21 -27 -26 -21 -21 -27 -26 21 -21 26 27 21 21 26 vhcurveto
            return
          </CharString>
          <CharString index="174">
            -55 hlineto
            hintmask 11110000
            -105 callsubr
            return
          </CharString>
          <CharString index="175">
            -263 vlineto
            -37 callsubr
            endchar
          </CharString>
          <CharString index="176">
            25 0 185 458 58 callsubr
            318 79 vstemhm
            return
          </CharString>
          <CharString index="177" raw="1">
            740afb10 060b  
          </CharString>
          <CharString index="178">
            -43 -16 callsubr
            return
          </CharString>
          <CharString index="179" raw="1">
            07591d0b   
          </CharString>
          <CharString index="180">
            7 60 callgsubr
            return
          </CharString>
          <CharString index="181">
            87 -67 67 -67 104 return
          </CharString>
          <CharString index="182">
            -59 callsubr
            -56 hlineto
            return
          </CharString>
          <CharString index="183">
            95 20 callgsubr
            hstem
            132 87 377 91 vstem
            return
          </CharString>
          <CharString index="184">
            -32 -225 67 151 33 callgsubr
            -7 -20 hstemhm
            return
          </CharString>
          <CharString index="185">
            87 67 -70 -114 -110 -66 -72 -88 hvcurveto
            endchar
          </CharString>
          <CharString index="186">
            hvcurveto
            -40 vlineto
            -4 3 -3 4 vhcurveto
            return
          </CharString>
          <CharString index="187">
            8 vhcurveto
            63 hlineto
            8 return
          </CharString>
          <CharString index="188">
            67 358 67 return
          </CharString>
          <CharString index="189">
            vlineto
            8 6 -28 callgsubr
            return
          </CharString>
          <CharString index="190">
            -24 0 84 callsubr
            return
          </CharString>
          <CharString index="191">
            67 360 72 return
          </CharString>
          <CharString index="192">
            -4 -38 callgsubr
            -51 vlineto
            hintmask 01101110
            24 callgsubr
            return
          </CharString>
          <CharString index="193">
            -7 81 320 68 61 201 -79 79 hstemhm
            return
          </CharString>
          <CharString index="194">
            6 vhcurveto
            -165 114 165 115 rlineto
            return
          </CharString>
          <CharString index="195">
            -283 20 callgsubr
            return
          </CharString>
          <CharString index="196">
            hstem
            38 85 291 83 vstem
            return
          </CharString>
          <CharString index="197">
            rlineto
            -8 -2 4 -4 7 hhcurveto
            return
          </CharString>
          <CharString index="198">
            55 -584 -55 hlineto
            return
          </CharString>
          <CharString index="199">
            rmoveto
            6 5 0 7 return
          </CharString>
          <CharString index="200">
            58 164 58 return
          </CharString>
          <CharString index="201">
            -103 callgsubr
            -126 hlineto
            -8 return
          </CharString>
          <CharString index="202">
            -207 65 379 hstem
            38 362 vstem
            return
          </CharString>
          <CharString index="203">
            38 84 331 return
          </CharString>
        <CharString name=".notdef">
          -332 endchar
        </CharString>
        <CharString name="A">
          -5 callsubr
          hstem
          -106 callgsubr
          endchar
        </CharString>
        <CharString name="AE">
          399 44 callgsubr
          529 87 301 79 hintmask 01110110
          984 hmoveto
          -54 callgsubr
        </CharString>
        <CharString name="AEacute">
          399 44 callgsubr
          529 87 301 79 hintmask 01110110
          764 932 -107 callsubr
          388 -798 rmoveto
          -54 callgsubr
        </CharString>
        <CharString name="Aacute">
          -5 callsubr
          hstem
          -106 callgsubr
          162 318 -71 callgsubr
        </CharString>
        <CharString name="Abreve">
          -5 callsubr
          71 59 callgsubr
          263 93 callsubr
          hintmask 11101110
          -106 callgsubr
          89 327 rmoveto
          -26 callsubr
          hintmask 11110110
          -11 callsubr
          vhcurveto
          hintmask 11101110
          -74 callsubr
        </CharString>
        <CharString name="Acircumflex">
          -5 callsubr
          271 -20 hstem
          -106 callgsubr
          164 216 -88 callgsubr
        </CharString>
        <CharString name="Adieresis">
          -5 callsubr
          64 85 hstem
          286 85 73 85 vstem
          -106 callgsubr
          -38 210 -97 callsubr
          endchar
        </CharString>
        <CharString name="Agrave">
          -5 callsubr
          hstem
          -106 callgsubr
          87 216 -100 callsubr
        </CharString>
        <CharString name="Amacron">
          -5 callsubr
          62 69 hstem
          -106 callgsubr
          141 166 -76 callsubr
          endchar
        </CharString>
        <CharString name="Aogonek">
          207 -161 45 116 75 173 69 326 75 hstemhm
          631 52 -52 149 hintmask 11111000
          778 -107 rmoveto
          -48 callsubr
          43 49 29 21 10 hvcurveto
          15 hlineto
          hintmask 11110100
          -74 callgsubr
          -68 hlineto
          -230 600 rlineto
          30 -11 -14 13 -33 hhcurveto
          -136 -71 callsubr
          54 hlineto
          -215 -568 rlineto
          -33 callgsubr
          225 -65 callsubr
          -70 hlineto
          65 173 rlineto
          279 hlineto
          65 -173 rlineto
          -70 -99 callsubr
          158 hlineto
          50 callsubr
          -267 437 rmoveto
          -226 hlineto
          112 297 rlineto
          3 hlineto
          endchar
        </CharString>
        <CharString name="Aring">
          -5 callsubr
          hstem
          -106 callgsubr
          43 215 -72 callgsubr
          endchar
        </CharString>
        <CharString name="Atilde">
          -5 callsubr
          67 31 callgsubr
          36 249 -38 38 228 48 hintmask 1111011010000000
          -106 callgsubr
          116 296 rmoveto
          -16 callgsubr
          hintmask 1111100110000000
          -83 callgsubr
          hintmask 1111011010000000
          -103 callsubr
          endchar
        </CharString>
        <CharString name="B">
          36 0 75 262 66 240 58 callsubr
          282 88 -49 49 -49 88 hintmask 11110010
          384 hmoveto
          171 78 85 120 77 -32 65 -96 28 hvcurveto
          hintmask 11110100
          55 31 34 53 67 vvcurveto
          112 -74 80 -137 vhcurveto
          -322 -104 callsubr
          163 75 rmoveto
          262 159 vlineto
          103 59 -41 -84 -97 -68 -40 -100 hvcurveto
          -153 328 rmoveto
          240 142 vlineto
          hintmask 11111000
          67 73 -26 -98 -83 -68 -32 -61 -1 hvcurveto
          endchar
        </CharString>
        <CharString name="C">
          29 callgsubr
          hstemhm
          48 93 460 88 hintmask 10101100
          655 209 -67 callgsubr
        </CharString>
        <CharString name="Cacute">
          29 callgsubr
          hstemhm
          48 93 460 88 hintmask 10101100
          505 932 -107 callsubr
          318 -589 -67 callgsubr
        </CharString>
        <CharString name="Ccaron">
          29 callgsubr
          hstemhm
          48 93 460 88 hintmask 10101100
          548 -87 callgsubr
          262 -595 -67 callgsubr
        </CharString>
        <CharString name="Ccedilla">
          107 -156 41 59 133 -83 83 398 249 -82 82 -6 -20 hstemhm
          48 93 271 49 140 88 hintmask 1010101110000000
          373 16 callgsubr
          6 19 207 3 80 133 16 31 rlinecurve
          4 8 1 6 -8 6 -42 28 rcurveline
          -56 callsubr
          hintmask 1101001110000000
          -7 callsubr
          hintmask 1100011110000000
          8 -5 -45 callsubr
          1 hvcurveto
          1 -89 rlineto
          hintmask 1101001110000000
          43 -28 -65 64 -132 hhcurveto
          -177 -159 -133 -228 -213 134 -140 174 -15 hvcurveto
          -12 -34 rlineto
          -48 callgsubr
          61 callsubr
        </CharString>
        <CharString name="Ccircumflex">
          29 callgsubr
          291 -20 hstemhm
          48 93 460 88 hintmask 10101110
          549 830 -107 callgsubr
          131 -592 rmoveto
          -56 callsubr
          hintmask 11001110
          -7 callsubr
          hintmask 10011110
          8 -5 -45 callsubr
          1 hvcurveto
          1 -89 rlineto
          hintmask 11001110
          43 -28 -65 64 -132 hhcurveto
          -177 -159 -133 -228 -226 151 -144 190 213 82 137 31 16 hvcurveto
          4 8 1 6 -8 6 rrcurveto
          endchar
        </CharString>
        <CharString name="Cdotaccent">
          29 callgsubr
          94 105 hstemhm
          48 93 205 104 151 88 hintmask 10101111
          655 209 rmoveto
          -56 callsubr
          hintmask 11001111
          -7 callsubr
          hintmask 10011111
          8 -5 -45 callsubr
          1 hvcurveto
          1 -89 rlineto
          hintmask 11001111
          43 -28 -65 64 -132 hhcurveto
          -177 -159 -133 -228 -226 151 -144 190 213 82 137 31 16 hvcurveto
          4 8 1 6 -8 6 rrcurveto
          -247 663 -52 callgsubr
        </CharString>
        <CharString name="D">
          76 callsubr
          342 hmoveto
          211 134 37 callgsubr
          -270 hlineto
          -34 callgsubr
          77 -568 -77 hlineto
          -34 callgsubr
          164 75 rmoveto
          568 96 vlineto
          187 94 -109 -176 -188 -97 -94 -181 -1 hvcurveto
          endchar
        </CharString>
        <CharString name="Dcaron">
          76 callsubr
          521 -87 callgsubr
          -24 -804 rmoveto
          211 134 37 callgsubr
          -270 hlineto
          -34 callgsubr
          77 -568 -77 hlineto
          -34 callgsubr
          164 75 rmoveto
          568 96 vlineto
          187 94 -109 -176 -188 -97 -94 -181 -1 hvcurveto
          endchar
        </CharString>
        <CharString name="Dcroat">
          -46 callsubr
        </CharString>
        <CharString name="E">
          8 44 callgsubr
          137 87 301 80 hintmask 01110110
          592 hmoveto
          -79 callgsubr
          endchar
        </CharString>
        <CharString name="Eacute">
          8 44 callgsubr
          137 87 301 80 hintmask 01110110
          441 932 -107 callsubr
          319 -798 rmoveto
          -79 callgsubr
          endchar
        </CharString>
        <CharString name="Ebreve">
          8 -46 callgsubr
          71 59 callgsubr
          137 87 -47 47 175 58 68 80 hintmask 0111010101100000
          13 callsubr
          hintmask 1010110101100000
          -98 -301 245 253 -27 callsubr
          -253 248 302 -98 hlineto
          hintmask 1011010101100000
          -70 callgsubr
          hintmask 0110101101100000
          -8 5 -86 callsubr
          76 -568 -76 -106 callsubr
          351 941 rmoveto
          -26 callsubr
          hintmask 1011010101100000
          -11 callsubr
          vhcurveto
          hintmask 1011001011100000
          -74 callsubr
        </CharString>
        <CharString name="Ecaron">
          8 44 callgsubr
          137 87 301 80 hintmask 01110110
          488 -87 callgsubr
          259 -804 rmoveto
          -79 callgsubr
          endchar
        </CharString>
        <CharString name="Ecircumflex">
          8 -46 callgsubr
          271 -20 65 callgsubr
          301 80 hintmask 01110111
          473 830 -107 callgsubr
          144 -801 rmoveto
          -29 callgsubr
          endchar
        </CharString>
        <CharString name="Edieresis">
          8 -46 callgsubr
          64 85 65 callgsubr
          -24 85 73 85 82 80 hintmask 0111010111000000
          285 -37 callgsubr
          149 -824 rmoveto
          -53 callgsubr
          hintmask 1010111011000000
          -98 -301 245 253 -27 callsubr
          -253 248 302 -98 hlineto
          hintmask 1011011011000000
          -70 callgsubr
          hintmask 0110111011000000
          -8 5 -86 callsubr
          76 -568 -76 -106 callsubr
          endchar
        </CharString>
        <CharString name="Edotaccent">
          8 -46 callgsubr
          74 105 65 callgsubr
          48 104 149 80 hintmask 0111011110000000
          13 callsubr
          hintmask 1010111110000000
          -98 -301 245 253 -27 callsubr
          -253 248 302 -98 hlineto
          hintmask 1011011110000000
          -70 callgsubr
          hintmask 0110111110000000
          -8 5 -86 callsubr
          76 -568 -76 -106 callsubr
          315 844 -52 callgsubr
        </CharString>
        <CharString name="Egrave">
          8 44 callgsubr
          137 87 301 80 hintmask 01110110
          592 hmoveto
          -79 callgsubr
          344 830 -100 callsubr
        </CharString>
        <CharString name="Emacron">
          8 -46 callgsubr
          62 69 65 callgsubr
          301 80 hintmask 01110111
          592 hmoveto
          -29 callgsubr
          405 780 -76 callsubr
          endchar
        </CharString>
        <CharString name="Eng">
          156 -232 76 156 85 callgsubr
          hstem
          127 87 372 87 vstem
          375 -219 rmoveto
          -8 4 -5 8 205 80 83 163 1 vhcurveto
          629 77 vlineto
          -96 callgsubr
          -241 hlineto
          -34 callgsubr
          77 -502 -2 hlineto
          0 -25 47 -32 50 vhcurveto
          -285 446 rlineto
          17 -10 -13 17 -28 hhcurveto
          -140 -71 callsubr
          76 -568 -76 -71 callsubr
          240 -66 callsubr
          -77 492 2 hlineto
          0 22 -40 28 -44 vhcurveto
          289 -452 8 -14 8 -9 15 -5 rlinecurve
          -4 vlineto
          -105 -49 -50 -150 -8 -4 -5 -8 vhcurveto
          endchar
        </CharString>
        <CharString name="Eogonek">
          14 -161 45 116 -43 callsubr
          hstemhm
          137 87 193 52 56 80 hintmask 1011101110000000
          13 callsubr
          hintmask 1101011110000000
          -98 -301 245 253 -27 callsubr
          -253 248 302 -98 hlineto
          hintmask 1101101110000000
          -70 callgsubr
          hintmask 1011011110000000
          -8 5 -86 callsubr
          76 -568 -76 -106 callsubr
          425 hlineto
          -41 callgsubr
          -9 13 rcurveline
          -48 callsubr
          43 49 29 21 10 hvcurveto
          endchar
        </CharString>
        <CharString name="Eth">
          -46 callsubr
        </CharString>
        <CharString name="Euro">
          71 -7 84 170 61 93 61 180 82 hstem
          637 121 rmoveto
          -5 6 -6 -2 -6 -4 rrcurveto
          -28 -40 -50 -16 -72 hhcurveto
          -94 -97 54 116 -36 hvcurveto
          199 hlineto
          21 callgsubr
          37 -102 callgsubr
          -218 hlineto
          -2 16 -1 17 19 vvcurveto
          13 0 16 2 12 vhcurveto
          277 hlineto
          21 callgsubr
          36 -32 callsubr
          -264 hlineto
          123 33 103 57 93 hhcurveto
          74 47 -24 -18 25 hvcurveto
          6 -5 7 2 4 5 34 42 rcurveline
          4 6 0 6 -6 5 rrcurveto
          17 -27 -69 46 -103 hhcurveto
          -150 -135 -96 -166 -37 hvcurveto
          -76 48 callgsubr
          -36 63 callsubr
          8 vhcurveto
          67 hlineto
          -1 -11 -1 -17 -12 vvcurveto
          -16 1 -23 2 -14 vhcurveto
          -68 -56 callgsubr
          -37 63 callsubr
          8 vhcurveto
          80 hlineto
          -158 42 127 -96 155 hhcurveto
          105 67 30 37 46 hvcurveto
          6 5 -1 7 -5 6 rrcurveto
          endchar
        </CharString>
        <CharString name="F">
          -10 0 75 245 86 callgsubr
          284 79 hintmask 11011100
          337 -17 callsubr
          -113 245 235 hlineto
          8 -39 callsubr
          -4 4 -9 vhcurveto
          -235 248 284 -98 hlineto
          hintmask 11101100
          47 callgsubr
          54 hlineto
          8 5 5 -18 callsubr
          -513 hlineto
          -9 -4 -38 callgsubr
          -51 vlineto
          hintmask 11011100
          -8 5 -86 callsubr
          76 -568 -76 -106 callsubr
          endchar
        </CharString>
        <CharString name="G">
          105 -7 8 callsubr
          hstemhm
          48 93 460 88 -72 85 hintmask 0111001010000000
          690 hmoveto
          -42 callgsubr
          hintmask 1010101100000000
          -33 callsubr
          hintmask 1011001100000000
          52 callsubr
          5 4 8 hvcurveto
          206 vlineto
          hintmask 1010011100000000
          8 -5 -45 callsubr
          1 hvcurveto
          1 -77 rlineto
          hintmask 1011001100000000
          -44 callgsubr
          hintmask 0111001100000000
          -8 5 -19 callsubr
        </CharString>
        <CharString name="Gbreve">
          105 -7 8 callsubr
          91 59 callgsubr
          48 93 117 93 callsubr
          63 88 -72 85 hintmask 0111001011101000
          690 hmoveto
          -42 callgsubr
          hintmask 1010101011110000
          -33 callsubr
          hintmask 1011001011110000
          52 callsubr
          5 4 8 hvcurveto
          206 vlineto
          hintmask 1010011011110000
          8 -5 -45 callsubr
          1 hvcurveto
          1 -77 rlineto
          hintmask 1011001011110000
          -44 callgsubr
          hintmask 0111000111110000
          -8 5 -86 callsubr
          -144 941 rmoveto
          -26 callsubr
          hintmask 1011001011110000
          -11 callsubr
          vhcurveto
          hintmask 1011000111110000
          -74 callsubr
        </CharString>
        <CharString name="Gcircumflex">
          105 -7 8 callsubr
          291 -20 hstemhm
          48 93 460 88 -72 85 hintmask 0111001101000000
          558 830 -107 callgsubr
          157 -801 rmoveto
          -42 callgsubr
          hintmask 1010101110000000
          -33 callsubr
          hintmask 1011001110000000
          52 callsubr
          5 4 8 hvcurveto
          206 vlineto
          hintmask 1010011110000000
          8 -5 -45 callsubr
          1 hvcurveto
          1 -77 rlineto
          hintmask 1011001110000000
          -44 callgsubr
          hintmask 0111001110000000
          -8 5 -19 callsubr
        </CharString>
        <CharString name="Gcommaaccent">
          105 2 callsubr
          39 8 callsubr
          hstemhm
          48 93 202 102 -38 38 156 88 -72 85 hintmask 1010110011010000
          359 -68 callsubr
          hintmask 0101110010101000
          -77 callgsubr
          331 205 rmoveto
          -42 callgsubr
          hintmask 1010101011010000
          -33 callsubr
          hintmask 1010110011010000
          52 callsubr
          5 4 8 hvcurveto
          206 vlineto
          hintmask 1010100111010000
          8 -5 -45 callsubr
          1 hvcurveto
          1 -77 rlineto
          hintmask 1010110011010000
          -44 callgsubr
          hintmask 1001110011010000
          -8 5 -19 callsubr
        </CharString>
        <CharString name="Gdotaccent">
          105 -7 8 callsubr
          94 105 hstemhm
          48 93 197 104 159 88 -72 85 hintmask 0111001110100000
          690 hmoveto
          -42 callgsubr
          hintmask 1010101111000000
          -33 callsubr
          hintmask 1011001111000000
          52 callsubr
          5 4 8 hvcurveto
          206 vlineto
          hintmask 1010011111000000
          8 -5 -45 callsubr
          1 hvcurveto
          1 -77 rlineto
          hintmask 1011001111000000
          -44 callgsubr
          hintmask 0111001111000000
          -8 5 -86 callsubr
          -195 844 -52 callgsubr
        </CharString>
        <CharString name="H">
          91 callgsubr
          250 44 callsubr
          760 -2 callgsubr
          568 77 hlineto
          -90 callsubr
          -250 -372 250 77 hlineto
          8 5 4 8 hvcurveto
          51 vlineto
          8 -5 4 -8 vhcurveto
          -240 -57 callgsubr
          245 372 -245 -77 46 callgsubr
        </CharString>
        <CharString name="Hbar">
          91 callgsubr
          96 51 103 44 callsubr
          760 -2 callgsubr
          414 47 hlineto
          7 4 4 7 hvcurveto
          29 vlineto
          7 -4 4 -7 vhcurveto
          -47 103 77 hlineto
          -90 callsubr
          -103 -372 103 77 hlineto
          -76 callgsubr
          -103 -60 hlineto
          -7 -4 -4 -7 hvcurveto
          -29 83 callgsubr
          60 -414 -76 -106 callsubr
          240 -66 callsubr
          -77 245 372 -245 -77 27 callsubr
          393 rmoveto
          -372 96 372 hlineto
          endchar
        </CharString>
        <CharString name="Hcircumflex">
          91 callgsubr
          250 75 271 -20 6 callgsubr
          372 87 vstem
          585 830 -107 callgsubr
          200 -801 rmoveto
          -96 callgsubr
          -77 568 77 hlineto
          -90 callsubr
          -250 -372 250 77 hlineto
          8 5 4 8 hvcurveto
          51 vlineto
          8 -5 4 -8 vhcurveto
          -240 -57 callgsubr
          245 372 -245 -77 46 callgsubr
        </CharString>
        <CharString name="I">
          88 callsubr
          hstem
          137 87 vstem
          -61 callgsubr
          endchar
        </CharString>
        <CharString name="Iacute">
          -254 0 75 568 59 callsubr
          vstem
          -61 callgsubr
          277 908 -71 callgsubr
        </CharString>
        <CharString name="Ibreve">
          88 callsubr
          71 59 callgsubr
          43 58 36 87 41 58 hintmask 11011110
          -61 callgsubr
          217 941 rmoveto
          -26 callsubr
          hintmask 11101110
          -11 callsubr
          vhcurveto
          hintmask 11011110
          -74 callsubr
        </CharString>
        <CharString name="Icircumflex">
          -264 20 callgsubr
          271 -20 hstem
          145 87 vstem
          309 -85 callgsubr
          290 830 -88 callgsubr
        </CharString>
        <CharString name="Idieresis">
          88 callsubr
          64 85 hstemhm
          62 85 -10 87 -4 94 hintmask 11110100
          301 hmoveto
          -100 callgsubr
          hintmask 11101000
          -77 568 77 hlineto
          hintmask 11110100
          -100 callgsubr
          -240 -106 callsubr
          hintmask 11101000
          76 -568 -76 -106 callsubr
          hintmask 11110100
          86 -37 callgsubr
          endchar
        </CharString>
        <CharString name="Idotaccent">
          88 callsubr
          74 105 6 callgsubr
          vstem
          -61 callgsubr
          173 844 -52 callgsubr
        </CharString>
        <CharString name="Igrave">
          -267 20 callgsubr
          hstem
          153 87 vstem
          317 -85 callgsubr
          172 808 -100 callsubr
        </CharString>
        <CharString name="Imacron">
          -295 20 callgsubr
          62 69 6 callgsubr
          vstem
          -61 callgsubr
          268 780 -76 callsubr
          endchar
        </CharString>
        <CharString name="Iogonek">
          -277 -161 45 116 85 callgsubr
          hstemhm
          48 163 -74 87 -65 52 -52 155 hintmask 11110000
          306 -107 rmoveto
          -48 callsubr
          43 49 29 21 10 hvcurveto
          20 hlineto
          hintmask 11100010
          -100 callgsubr
          hintmask 11101000
          -77 568 77 hlineto
          hintmask 11100010
          -100 callgsubr
          -240 69 callgsubr
          hintmask 11101000
          76 -568 -76 69 callgsubr
          167 hlineto
          hintmask 11100100
          50 callsubr
          endchar
        </CharString>
        <CharString name="Itilde">
          -262 20 callgsubr
          67 31 callgsubr
          34 48 65 87 66 48 hintmask 11101111
          311 -85 callgsubr
          241 910 rmoveto
          -16 callgsubr
          hintmask 11110111
          -83 callgsubr
          hintmask 11101111
          -103 callsubr
          endchar
        </CharString>
        <CharString name="J">
          -161 20 callgsubr
          hstem
          259 87 vstem
          259 262 -1 callsubr
        </CharString>
        <CharString name="Jcircumflex">
          -132 20 callgsubr
          271 -20 hstem
          288 87 vstem
          449 830 -107 callgsubr
          -136 -539 -1 callsubr
        </CharString>
        <CharString name="K">
          118 0 75 216 71 281 75 hstemhm
          48 249 -160 87 314 86 hintmask 11101100
          702 hmoveto
          -12 callgsubr
          hintmask 11110100
          -74 callgsubr
          -224 -106 callsubr
          hintmask 11101100
          76 -568 -76 hlineto
          hintmask 11110100
          -9 -4 -105 callgsubr
          255 -66 callsubr
          hintmask 11101100
          47 callsubr
        </CharString>
        <CharString name="Kcommaaccent">
          118 2 callsubr
          46 75 216 71 281 75 hstemhm
          48 249 -160 87 74 102 -38 38 138 86 hintmask 1011110101000000
          314 -68 callsubr
          hintmask 0111101011000000
          -77 callgsubr
          388 205 rmoveto
          -12 callgsubr
          hintmask 1011110101000000
          -74 callgsubr
          -224 -106 callsubr
          hintmask 1011101101000000
          76 -568 -76 hlineto
          hintmask 1011110101000000
          -9 -4 -105 callgsubr
          255 -66 callsubr
          hintmask 1011101101000000
          47 callsubr
        </CharString>
        <CharString name="L">
          69 callsubr
          608 hmoveto
          -53 callsubr
          160 -103 callgsubr
          -54 -56 callgsubr
          hintmask 11110000
          -62 callgsubr
        </CharString>
        <CharString name="Lacute">
          69 callsubr
          425 932 -107 callsubr
          351 -798 23 callsubr
          hintmask 11110000
          -62 callgsubr
        </CharString>
        <CharString name="Lcaron">
          25 0 75 -75 185 349 184 -95 95 -75 58 callsubr
          106 103 -39 39 109 79 hintmask 1010011010000000
          347 540 rmoveto
          -4 3 -2 3 vhcurveto
          hintmask 1000111010000000
          43 37 30 1 callsubr
          hvcurveto
          hintmask 0101010110000000
          -45 callgsubr
          261 -557 23 callsubr
          hintmask 0100111010000000
          -62 callgsubr
        </CharString>
        <CharString name="Lcommaaccent">
          25 2 callsubr
          46 75 -75 185 458 58 callsubr
          42 102 -38 38 174 79 hintmask 1010111010000000
          282 -68 callsubr
          hintmask 0101110110000000
          -77 callgsubr
          326 205 23 callsubr
          hintmask 1001111010000000
          -62 callgsubr
        </CharString>
        <CharString name="Ldot">
          25 0 185 14 91 353 58 callsubr
          40 90 188 79 vstemhm
          309 199 rmoveto
          25 20 19 26 25 -20 21 -25 -26 -19 -21 -25 -26 19 -19 26 hvcurveto
          299 -199 23 callsubr
          hintmask 11111100
          -62 callgsubr
        </CharString>
        <CharString name="Lslash">
          32 0 185 458 75 hstemhm
          145 87 318 79 vstemhm
          616 hmoveto
          -53 callsubr
          160 -103 callgsubr
          -55 hlineto
          -8 -4 -38 callgsubr
          hintmask 11110000
          -98 -318 275 vlineto
          150 151 6 5 0 8 -6 6 rlinecurve
          -20 21 -6 5 -7 0 -6 -5 rlinecurve
          -111 -112 rlineto
          214 75 vlineto
          15 callsubr
          -239 27 callsubr
          -301 hlineto
          -105 -104 -6 -6 0 -8 6 -5 rlinecurve
          20 -21 6 -6 7 0 6 6 rlinecurve
          66 66 rlineto
          -189 -77 vlineto
          -98 callsubr
          endchar
        </CharString>
        <CharString name="M">
          274 0 75 568 59 callsubr
          471 87 vstem
          859 12 callsubr
          -77 568 77 19 callsubr
          -153 hlineto
          -25 -15 -13 -21 -8 hvcurveto
          -150 -362 rlineto
          -18 -46 -28 -78 0 vvcurveto
          -4 hlineto
          0 -29 82 -18 44 vhcurveto
          -149 360 rlineto
          21 -8 -15 13 -24 hhcurveto
          -154 -104 callsubr
          230 -66 callsubr
          -67 498 2 hlineto
          190 -472 rlineto
          -20 8 15 -10 20 hhcurveto
          22 15 10 20 8 hvcurveto
          190 472 rlineto
          1 -498 -67 46 callgsubr
        </CharString>
        <CharString name="N">
          175 0 75 568 44 callsubr
          670 hmoveto
          -94 callsubr
          endchar
        </CharString>
        <CharString name="Nacute">
          175 0 75 568 44 callsubr
          520 932 -107 callsubr
          318 -798 rmoveto
          -94 callsubr
          endchar
        </CharString>
        <CharString name="Ncaron">
          175 0 75 568 44 callsubr
          578 -87 callgsubr
          247 -804 rmoveto
          -94 callsubr
          endchar
        </CharString>
        <CharString name="Ncommaaccent">
          175 2 callsubr
          46 75 568 58 callsubr
          139 102 -38 38 131 87 hintmask 10111101
          379 -68 callsubr
          hintmask 01111011
          -77 callgsubr
          291 205 rmoveto
          -94 callsubr
          endchar
        </CharString>
        <CharString name="Ntilde">
          175 20 callgsubr
          67 31 callgsubr
          137 87 37 53 213 48 21 87 hintmask 1110111110000000
          670 hmoveto
          -94 callsubr
          -77 910 rmoveto
          -16 callgsubr
          hintmask 1111011110000000
          -83 callgsubr
          hintmask 1110111110000000
          -103 callsubr
          endchar
        </CharString>
        <CharString name="O">
          27 callgsubr
          -47 callsubr
          endchar
        </CharString>
        <CharString name="OE">
          262 44 callgsubr
          48 94 250 87 301 79 hintmask 01110111
          847 hmoveto
          -7 callgsubr
          161 -103 callgsubr
          -55 hlineto
          -8 -4 -38 callgsubr
          hintmask 10101111
          -98 -301 245 253 vlineto
          -96 callgsubr
          -253 248 301 -98 hlineto
          hintmask 01110111
          47 callgsubr
          55 hlineto
          8 4 71 callgsubr
          -7 vhcurveto
          -455 hlineto
          -180 -1 -164 -128 -226 vvcurveto
          -218 151 -145 194 vhcurveto
          -1 79 rmoveto
          -125 2 -125 93 186 vvcurveto
          189 132 87 118 3 vhcurveto
          endchar
        </CharString>
        <CharString name="Oacute">
          27 callgsubr
          499 932 -107 callsubr
          66 -805 -94 callgsubr
          endchar
        </CharString>
        <CharString name="Obreve">
          17 callgsubr
          65 59 callgsubr
          48 94 116 93 callsubr
          113 93 hintmask 11011111
          -47 callsubr
          96 867 rmoveto
          -26 callsubr
          hintmask 11101111
          -11 callsubr
          vhcurveto
          hintmask 11011111
          -74 callsubr
        </CharString>
        <CharString name="Ocircumflex">
          17 callgsubr
          265 -20 hstem
          48 94 509 93 vstem
          563 830 -107 callgsubr
          -141 -808 -94 callgsubr
          endchar
        </CharString>
        <CharString name="Odieresis">
          17 callgsubr
          58 85 hstem
          48 94 133 85 73 85 133 93 vstem
          360 -37 callgsubr
          -121 -831 -94 callgsubr
          endchar
        </CharString>
        <CharString name="Ograve">
          27 callgsubr
          -47 callsubr
          78 756 -100 callsubr
        </CharString>
        <CharString name="Ohungarumlaut">
          27 callgsubr
          478 941 -78 callgsubr
          -85 -814 -94 callgsubr
          endchar
        </CharString>
        <CharString name="Omacron">
          17 callgsubr
          56 69 hstem
          48 94 509 93 vstem
          546 780 -76 callsubr
          147 -787 -94 callgsubr
          endchar
        </CharString>
        <CharString name="Oslash">
          148 -30 -21 44 82 569 80 59 -20 -51 callsubr
          endchar
        </CharString>
        <CharString name="Oslashacute">
          148 -30 -21 44 82 569 80 -51 callsubr
          207 855 -71 callgsubr
        </CharString>
        <CharString name="Otilde">
          17 callgsubr
          61 31 callgsubr
          48 94 104 48 218 48 91 93 hintmask 1110111110000000
          -47 callsubr
          127 836 rmoveto
          -16 callgsubr
          hintmask 1111011110000000
          -83 callgsubr
          hintmask 1110111110000000
          -103 callsubr
          endchar
        </CharString>
        <CharString name="P">
          13 0 75 196 71 301 59 callsubr
          298 88 vstem
          322 12 callsubr
          -98 196 134 hlineto
          159 93 80 140 142 -103 85 -138 hvcurveto
          -39 callgsubr
          163 342 rmoveto
          301 131 vlineto
          88 79 -44 -109 -104 -63 -44 -105 hvcurveto
          endchar
        </CharString>
        <CharString name="Q">
          124 -109 67 -67 186 565 82 hstemhm
          48 94 509 93 hintmask 10111000
          716 -26 rmoveto
          -2 6 -5 1 -7 -3 rrcurveto
          -10 -23 -28 -10 -52 hhcurveto
          -109 -54 36 2 -3 hvcurveto
          179 16 132 141 210 vvcurveto
          228 -166 133 -181 -181 -168 -133 -228 -192 117 -138 160 -29 vhcurveto
          -1 88 -113 185 hhcurveto
          70 48 23 4 9 hvcurveto
          7 4 2 6 -2 6 rrcurveto
          hintmask 01111000
          -334 143 rmoveto
          -126 -129 95 188 192 136 90 84 callgsubr
          135 -90 -192 -188 -128 -95 -126 hvcurveto
          endchar
        </CharString>
        <CharString name="R">
          38 callgsubr
          655 hmoveto
          -86 callgsubr
        </CharString>
        <CharString name="Racute">
          38 callgsubr
          442 932 -107 callsubr
          381 -798 rmoveto
          -86 callgsubr
        </CharString>
        <CharString name="Rcaron">
          38 callgsubr
          497 -87 callgsubr
          313 -804 rmoveto
          -86 callgsubr
        </CharString>
        <CharString name="Rcommaaccent">
          70 2 callsubr
          46 75 214 71 283 58 callsubr
          70 102 -38 38 126 88 hintmask 1011111010000000
          310 -68 callsubr
          hintmask 0111110110000000
          -77 callgsubr
          345 205 rmoveto
          -86 callgsubr
        </CharString>
        <CharString name="S">
          21 -7 -6 callsubr
          328 74 callsubr
          hintmask 0110001010000000
          117 hmoveto
          -75 callgsubr
        </CharString>
        <CharString name="Sacute">
          21 -7 -6 callsubr
          328 74 callsubr
          hintmask 0110001010000000
          460 932 -107 callsubr
          -175 -798 rmoveto
          -75 callgsubr
        </CharString>
        <CharString name="Scaron">
          21 -7 -6 callsubr
          328 74 callsubr
          hintmask 0110001010000000
          500 -87 callgsubr
          -228 -804 rmoveto
          -75 callgsubr
        </CharString>
        <CharString name="Scedilla">
          21 -156 41 59 130 -81 -6 callsubr
          209 49 70 74 callsubr
          hintmask 1010010001100100
          336 16 callgsubr
          6 18 rlineto
          7 hlineto
          177 74 94 108 hvcurveto
          246 -452 -85 174 vvcurveto
          64 57 48 90 vhcurveto
          hintmask 1100100100110000
          -30 callsubr
          hintmask 1100001100110000
          8 -4 -45 callsubr
          hvcurveto
          2 -62 rlineto
          hintmask 1100100010101000
          -62 callsubr
          hintmask 1001100100110000
          -26 callsubr
          -234 vlineto
          -8 4 -4 9 vhcurveto
          56 hlineto
          32 callgsubr
          -1 98 23 -37 60 -63 108 -14 rlinecurve
          -12 -35 rlineto
          hintmask 1100100100110000
          -48 callgsubr
          61 callsubr
        </CharString>
        <CharString name="Scircumflex">
          21 -7 81 -53 -21 477 247 -82 82 -5 -20 290 -20 hstemhm
          48 67 callgsubr
          328 74 callsubr
          hintmask 0110010101000000
          499 830 -107 callgsubr
          -357 -801 45 callsubr
          -1 98 rlineto
          hintmask 1001010010010000
          -42 26 74 -75 139 hhcurveto
          177 74 94 108 hvcurveto
          246 -452 -85 174 vvcurveto
          64 57 48 90 vhcurveto
          hintmask 1010011001000000
          -30 callsubr
          hintmask 1000111001000000
          8 -4 -45 callsubr
          hvcurveto
          2 -62 rlineto
          hintmask 1010010100100000
          -62 callsubr
          hintmask 0110011001000000
          -26 callsubr
          -234 vlineto
          -8 4 -4 9 vhcurveto
          endchar
        </CharString>
        <CharString name="Scommaaccent">
          21 2 callsubr
          39 -6 callsubr
          128 102 -38 38 98 74 callsubr
          hintmask 1010100100101000
          310 -68 callsubr
          hintmask 0101100010011000
          -77 callgsubr
          -193 205 45 callsubr
          -1 98 rlineto
          hintmask 1010010001100010
          -42 26 74 -75 139 hhcurveto
          177 74 94 108 hvcurveto
          246 -452 -85 174 vvcurveto
          64 57 48 90 vhcurveto
          hintmask 1010100100101000
          -30 callsubr
          hintmask 1010001100101000
          8 -4 -45 callsubr
          hvcurveto
          2 -62 rlineto
          hintmask 1010100010100100
          -62 callsubr
          hintmask 1001100100101000
          -26 callsubr
          -234 vlineto
          -8 4 -4 9 vhcurveto
          endchar
        </CharString>
        <CharString name="T">
          61 callgsubr
          478 hmoveto
          15 callsubr
          -70 568 187 -106 hlineto
          hintmask 11011100
          -43 callgsubr
          hintmask 10111100
          25 callsubr
        </CharString>
        <CharString name="Tbar">
          82 0 75 325 69 54 195 -75 75 hstemhm
          48 84 189 87 187 84 hintmask 11011110
          478 hmoveto
          15 callsubr
          -70 325 105 hlineto
          8 5 6 8 hvcurveto
          42 -32 callsubr
          -105 174 187 -106 hlineto
          hintmask 11101110
          -43 callgsubr
          hintmask 11011110
          106 189 -174 -103 vlineto
          9 callsubr
          -42 vlineto
          -8 6 -6 8 vhcurveto
          103 -325 -76 48 callgsubr
          -49 vlineto
          0 callgsubr
        </CharString>
        <CharString name="Tcaron">
          61 callgsubr
          507 -87 callgsubr
          126 -804 rmoveto
          15 callsubr
          -70 568 187 -106 hlineto
          hintmask 11011100
          -43 callgsubr
          hintmask 10111100
          25 callsubr
        </CharString>
        <CharString name="Tcommaaccent">
          82 2 callsubr
          46 75 448 195 -75 75 hstemhm
          48 84 182 94 -87 87 -30 30 187 84 hintmask 1011011001000000
          330 -68 callsubr
          hintmask 0110110011000000
          -77 callgsubr
          148 205 rmoveto
          15 callsubr
          -70 568 187 -106 hlineto
          hintmask 1011011001000000
          -43 callgsubr
          hintmask 1010110101000000
          25 callsubr
        </CharString>
        <CharString name="Thorn">
          -19 0 69 90 71 279 75 65 69 hstemhm
          40 163 -82 82 297 87 hintmask 11111010
          296 hmoveto
          21 callgsubr
          45 vlineto
          -68 callgsubr
          -9 vhcurveto
          -94 90 134 hlineto
          163 88 73 137 141 -100 74 -140 hvcurveto
          -143 hlineto
          1 122 rlineto
          -68 callgsubr
          -9 vhcurveto
          -139 -56 callgsubr
          -45 63 callsubr
          8 vhcurveto
          hintmask 11110110
          68 -580 -70 -56 callgsubr
          -45 63 callsubr
          8 vhcurveto
          152 230 rmoveto
          279 141 vlineto
          82 74 -38 -102 -101 -64 -38 -92 hvcurveto
          endchar
        </CharString>
        <CharString name="U">
          70 callgsubr
          590 260 -104 callgsubr
          endchar
        </CharString>
        <CharString name="Uacute">
          70 callgsubr
          545 932 -107 callsubr
          213 -538 -104 callgsubr
          endchar
        </CharString>
        <CharString name="Ubreve">
          11 callgsubr
          71 59 callgsubr
          137 87 49 58 170 52 37 87 hintmask 11011111
          590 260 -104 callgsubr
          -82 298 rmoveto
          -26 callsubr
          hintmask 11101111
          -11 callsubr
          vhcurveto
          hintmask 11011111
          -74 callsubr
        </CharString>
        <CharString name="Ucircumflex">
          11 callgsubr
          271 -20 79 callgsubr
          575 830 -107 callgsubr
          40 -541 -104 callgsubr
          endchar
        </CharString>
        <CharString name="Udieresis">
          11 callgsubr
          64 85 6 callgsubr
          61 85 73 85 62 87 vstem
          370 -37 callgsubr
          62 -564 -104 callgsubr
          endchar
        </CharString>
        <CharString name="Ugrave">
          70 callgsubr
          590 260 -104 callgsubr
          -74 187 -100 callsubr
        </CharString>
        <CharString name="Uhungarumlaut">
          70 callgsubr
          590 260 -104 callgsubr
          -125 298 -78 callgsubr
          endchar
        </CharString>
        <CharString name="Umacron">
          11 callgsubr
          62 69 79 callgsubr
          590 260 -104 callgsubr
          -40 137 -76 callsubr
          endchar
        </CharString>
        <CharString name="Uogonek">
          169 -161 45 110 80 569 59 callsubr
          95 52 219 87 vstem
          590 260 rmoveto
          -110 -52 -76 -130 -140 -44 82 110 vhcurveto
          377 77 vlineto
          -76 callgsubr
          -374 hlineto
          -171 88 -93 150 -11 vhcurveto
          15 callgsubr
          35 34 27 24 14 hvcurveto
          156 7 92 92 176 vvcurveto
          374 77 vlineto
          -90 callsubr
          hlineto
          endchar
        </CharString>
        <CharString name="Uring">
          70 callgsubr
          459 829 -72 callgsubr
          154 -589 -104 callgsubr
          endchar
        </CharString>
        <CharString name="Utilde">
          11 callgsubr
          67 31 callgsubr
          137 87 38 52 214 48 14 87 hintmask 1110111110000000
          590 260 -104 callgsubr
          -50 267 rmoveto
          -16 callgsubr
          hintmask 1111011110000000
          -83 callgsubr
          hintmask 1110111110000000
          -103 callsubr
          endchar
        </CharString>
        <CharString name="V">
          203 80 callgsubr
          hstem
          444 hmoveto
          28 9 14 26 9 hvcurveto
          231 603 rlineto
          66 -44 callsubr
          68 hlineto
          -203 -537 rlineto
          -6 hlineto
          -203 537 rlineto
          68 -65 callsubr
          -225 8 callgsubr
          4 -4 9 vhcurveto
          64 hlineto
          233 -603 rlineto
          -27 10 10 -13 27 hhcurveto
          endchar
        </CharString>
        <CharString name="W">
          449 80 callgsubr
          hstem
          748 hmoveto
          -96 callsubr
          endchar
        </CharString>
        <CharString name="Wacute">
          448 80 callgsubr
          hstem
          710 932 -107 callsubr
          206 -798 rmoveto
          -96 callsubr
          endchar
        </CharString>
        <CharString name="Wcircumflex">
          448 80 callgsubr
          271 -20 hstem
          695 830 -107 callgsubr
          78 -801 rmoveto
          -96 callsubr
          endchar
        </CharString>
        <CharString name="Wdieresis">
          448 80 callgsubr
          64 85 hstem
          423 85 73 85 vstem
          508 -37 callgsubr
          82 -824 rmoveto
          -96 callsubr
          endchar
        </CharString>
        <CharString name="Wgrave">
          448 80 callgsubr
          hstem
          748 hmoveto
          -96 callsubr
          -93 830 -100 callsubr
        </CharString>
        <CharString name="X">
          169 20 callgsubr
          hstem
          746 12 callsubr
          -80 hlineto
          -212 287 216 281 rlineto
          83 -65 callsubr
          -241 -99 callsubr
          61 hlineto
          -170 -226 -170 226 rlineto
          68 -66 callsubr
          -240 8 callgsubr
          4 -4 9 vhcurveto
          76 hlineto
          217 -281 -216 -287 rlineto
          -77 -106 callsubr
          240 -66 callsubr
          -67 hlineto
          171 233 166 -233 rlineto
          -66 46 callgsubr
        </CharString>
        <CharString name="Y">
          -73 callgsubr
          endchar
        </CharString>
        <CharString name="Yacute">
          -73 callgsubr
          229 932 -71 callgsubr
        </CharString>
        <CharString name="Ycircumflex">
          114 20 callgsubr
          271 -20 hstem
          336 87 vstem
          500 hmoveto
          8 4 4 8 hvcurveto
          51 vlineto
          8 -4 4 -8 vhcurveto
          -88 callsubr
          -34 callgsubr
          271 830 -88 callgsubr
        </CharString>
        <CharString name="Ydieresis">
          114 20 callgsubr
          64 85 hstemhm
          247 95 -6 87 -8 85 hintmask 11110100
          500 -17 callsubr
          hintmask 11101000
          -88 callsubr
          hintmask 11110100
          -34 callgsubr
          83 -37 callgsubr
          endchar
        </CharString>
        <CharString name="Ygrave">
          -73 callgsubr
          230 830 -100 callsubr
        </CharString>
        <CharString name="Z">
          26 callgsubr
          580 hmoveto
          -60 callgsubr
        </CharString>
        <CharString name="Zacute">
          26 callgsubr
          442 932 -107 callsubr
          306 -798 rmoveto
          -60 callgsubr
        </CharString>
        <CharString name="Zcaron">
          26 callgsubr
          500 -87 callgsubr
          235 -804 rmoveto
          -60 callgsubr
        </CharString>
        <CharString name="Zdotaccent">
          -4 0 75 -75 170 378 170 -75 75 74 105 hstemhm
          48 84 151 104 123 83 hintmask 01101111
          580 hmoveto
          -53 callsubr
          143 57 callsubr
          -57 74 callgsubr
          hintmask 10101111
          -81 -343 vlineto
          406 552 rlineto
          10 12 10 16 13 vvcurveto
          37 -32 callsubr
          -518 18 callsubr
          -143 vlineto
          -8 6 -6 8 vhcurveto
          56 hlineto
          8 6 6 8 hvcurveto
          hintmask 01011111
          81 342 vlineto
          -406 -553 rlineto
          -9 -11 -11 -14 -9 vvcurveto
          71 callsubr
          325 844 -52 callgsubr
        </CharString>
        <CharString name="a">
          -89 callsubr
          endchar
        </CharString>
        <CharString name="a.alt">
          -85 callsubr
          endchar
        </CharString>
        <CharString name="aacute">
          -89 callsubr
          16 476 -71 callgsubr
        </CharString>
        <CharString name="aacute.alt">
          -85 callsubr
          146 643 -71 callgsubr
        </CharString>
        <CharString name="abreve">
          -12 callsubr
          64 59 callgsubr
          38 86 18 93 callsubr
          -32 32 -32 83 -83 151 hintmask 0111101100010000
          529 -65 callgsubr
          hintmask 1011101100100000
          -98 callgsubr
          hintmask 0111101101000000
          -37 callsubr
          -52 149 rmoveto
          hintmask 1011011101000000
          -47 callgsubr
          -13 485 rmoveto
          hintmask 1011101110000000
          -8 -5 -5 -8 -11 callsubr
          hvcurveto
          hintmask 1011011110000000
          -74 callsubr
        </CharString>
        <CharString name="abreve.alt">
          -5 callgsubr
          91 59 callgsubr
          38 82 32 93 callsubr
          -5 79 -79 147 hintmask 0110101100100000
          562 -65 callgsubr
          hintmask 1001101101000000
          -52 callsubr
          hintmask 1010101110000000
          -67 callsubr
          hintmask 0110101110000000
          -37 callsubr
          hintmask 1010011101000000
          -200 63 -75 callsubr
          112 652 rmoveto
          hintmask 1010101110000000
          -8 -5 -5 -8 -11 callsubr
          hvcurveto
          hintmask 1010011110000000
          -74 callsubr
        </CharString>
        <CharString name="acircumflex">
          -12 callsubr
          264 -20 hstemhm
          38 86 266 83 -83 151 hintmask 01111101
          529 -65 callgsubr
          hintmask 10111110
          -98 callgsubr
          hintmask 01111110
          -37 callsubr
          -52 149 rmoveto
          hintmask 10111110
          -47 callgsubr
          58 374 -88 callgsubr
        </CharString>
        <CharString name="acircumflex.alt">
          -5 callgsubr
          291 -20 34 callsubr
          hintmask 01101101
          562 -65 callgsubr
          hintmask 10011110
          -52 callsubr
          hintmask 10101110
          -67 callsubr
          hintmask 01101110
          -37 callsubr
          hintmask 10101110
          -200 63 -75 callsubr
          194 541 -88 callgsubr
        </CharString>
        <CharString name="acute">
          -354 569 199 hstem
          36 220 vstem
          251 706 -71 callgsubr
        </CharString>
        <CharString name="adieresis">
          -12 callsubr
          57 85 hstemhm
          38 86 45 85 73 85 -22 83 -83 151 hintmask 0111111001000000
          529 -65 callgsubr
          hintmask 1011111010000000
          -98 callgsubr
          hintmask 0111111010000000
          -37 callsubr
          -52 149 rmoveto
          hintmask 1011111010000000
          -47 callgsubr
          -136 368 rmoveto
          24 -19 19 -24 -24 -18 -19 -24 -24 18 -18 24 24 19 18 24 vhcurveto
          hintmask 1011111100000000
          158 hmoveto
          24 -19 19 -24 -24 -18 -19 -24 -24 18 -18 24 24 19 18 24 vhcurveto
          endchar
        </CharString>
        <CharString name="adieresis.alt">
          -5 callgsubr
          84 85 hstemhm
          38 82 56 85 73 85 8 79 -79 147 hintmask 0110111101000000
          562 -65 callgsubr
          hintmask 1001111110000000
          -52 callsubr
          hintmask 1010111110000000
          -67 callsubr
          hintmask 0110111110000000
          -37 callsubr
          hintmask 1010111110000000
          -200 63 -75 callsubr
          -14 535 -97 callsubr
          endchar
        </CharString>
        <CharString name="ae">
          49 callgsubr
          636 -8 -57 callsubr
        </CharString>
        <CharString name="aeacute">
          49 callgsubr
          604 706 -107 callsubr
          200 -580 -57 callsubr
        </CharString>
        <CharString name="agrave">
          -89 callsubr
          -21 374 -100 callsubr
        </CharString>
        <CharString name="agrave.alt">
          -85 callsubr
          98 541 -100 callsubr
        </CharString>
        <CharString name="amacron">
          -12 callsubr
          55 69 hstemhm
          38 86 266 83 -83 151 hintmask 01111101
          529 -65 callgsubr
          hintmask 10111110
          -98 callgsubr
          hintmask 01111110
          -37 callsubr
          -52 149 rmoveto
          hintmask 10111110
          -47 callgsubr
          33 324 -76 callsubr
          endchar
        </CharString>
        <CharString name="amacron.alt">
          -5 callgsubr
          82 69 34 callsubr
          hintmask 01101101
          562 -65 callgsubr
          hintmask 10011110
          -52 callsubr
          hintmask 10101110
          -67 callsubr
          hintmask 01101110
          -37 callsubr
          hintmask 10101110
          -200 63 -75 callsubr
          157 491 -76 callsubr
          endchar
        </CharString>
        <CharString name="ampersand">
          29 -7 73 -45 -21 293 61 298 72 hstemhm
          37 89 14 80 176 76 6 71 hintmask 01111111
          603 hmoveto
          21 callgsubr
          45 -102 callgsubr
          -63 hlineto
          -40 56 33 57 14 64 2 47 rlinecurve
          74 2 callgsubr
          37 -103 callgsubr
          -132 hlineto
          -8 -5 -4 -8 -69 -8 -44 -18 -37 hvcurveto
          -133 189 rlineto
          71 36 82 49 101 vvcurveto
          110 -83 47 -82 -93 -74 -59 -104 -68 44 -59 24 -28 vhcurveto
          -64 -27 -107 -52 -132 vvcurveto
          hintmask 10111111
          -94 72 -108 164 81 58 31 43 41 vhcurveto
          21 -30 rlineto
          hintmask 01111111
          -22 16 13 -15 19 hhcurveto
          -112 126 rmoveto
          hintmask 10111111
          -37 -31 -45 -23 -60 hhcurveto
          -79 -69 49 82 92 84 39 42 19 hvcurveto
          27 88 rmoveto
          -22 27 -37 47 51 vvcurveto
          57 36 35 55 56 29 -42 -46 -76 -62 -29 -55 -24 vhcurveto
          endchar
        </CharString>
        <CharString name="aogonek">
          -65 -161 45 108 71 -42 -21 230 60 137 72 hstemhm
          38 86 266 57 -57 83 -83 151 hintmask 1011111000000000
          542 -107 rmoveto
          -48 callsubr
          43 49 29 21 10 hvcurveto
          12 hlineto
          hintmask 1101110010000000
          8 4 -95 callsubr
          hintmask 1101110100000000
          -98 callgsubr
          hintmask 1011111000000000
          -37 callsubr
          22 hlineto
          50 callsubr
          -161 269 rmoveto
          hintmask 1101111000000000
          -47 callgsubr
          endchar
        </CharString>
        <CharString name="aogonek.alt">
          -32 -161 45 109 9 callgsubr
          -7 -20 hstemhm
          38 82 310 46 -46 76 -76 144 hintmask 1011011000000000
          571 -107 rmoveto
          -48 callsubr
          43 49 29 21 10 hvcurveto
          16 hlineto
          hintmask 1101010010000000
          8 4 -95 callsubr
          hintmask 1100110100000000
          -52 callsubr
          hintmask 1101011000000000
          -67 callsubr
          hintmask 1011011000000000
          -37 callsubr
          18 hlineto
          50 callsubr
          hintmask 1101011000000000
          -305 183 -75 callsubr
          endchar
        </CharString>
        <CharString name="approxequal">
          -254 160 47 -32 -21 72 48 42 47 19 48 11 -20 hstemhm
          38 49 217 49 hintmask 10110111
          317 441 rmoveto
          -8 -5 -4 -8 -50 -11 -16 -31 hvcurveto
          hintmask 10111011
          1 -48 -20 66 -70 hhcurveto
          -59 -27 -41 -67 -8 -70 callsubr
          hvcurveto
          87 callgsubr
          46 17 -66 74 hhcurveto
          62 26 42 71 hvcurveto
          hintmask 10110111
          -97 callgsubr
          -23 -156 rmoveto
          -8 -5 -4 -8 -50 -11 -16 -31 hvcurveto
          -48 -20 67 -70 hhcurveto
          -59 -27 -42 -66 hvcurveto
          hintmask 01111011
          -8 5 -86 callsubr
          87 callgsubr
          hintmask 10111011
          46 17 -66 74 hhcurveto
          62 26 42 71 8 -5 4 -8 hvcurveto
          endchar
        </CharString>
        <CharString name="aring">
          -89 callsubr
          -51 373 -72 callgsubr
          endchar
        </CharString>
        <CharString name="aring.alt">
          -85 callsubr
          64 540 -72 callgsubr
          endchar
        </CharString>
        <CharString name="asterisk">
          -232 441 -21 335 -20 hstem
          223 420 rmoveto
          7 8 5 8 -2 hvcurveto
          -13 111 71 -87 5 -6 9 0 5 6 rlinecurve
          24 24 5 6 1 8 -6 5 rlinecurve
          -88 68 111 -11 rlineto
          8 6 6 8 hvcurveto
          34 vlineto
          8 -6 6 -8 -1 vhcurveto
          -113 -16 89 73 7 5 0 9 -6 6 rlinecurve
          -24 23 -5 6 -9 0 -5 -6 rlinecurve
          -69 -90 11 114 rlineto
          8 2 -8 5 -7 hhcurveto
          -34 hlineto
          -8 -6 -6 -7 1 hvcurveto
          13 -113 -71 89 -5 6 -8 -1 -6 -5 rlinecurve
          -24 -24 -6 -5 0 -9 6 -5 rlinecurve
          91 -72 -114 14 rlineto
          -8 2 -6 -7 -8 vvcurveto
          -34 vlineto
          -8 6 -6 8 1 vhcurveto
          115 12 -91 -69 -6 -5 0 -9 6 -6 rlinecurve
          23 -24 6 -6 9 1 5 6 rlinecurve
          68 89 -11 -113 rlineto
          -7 -1 6 -6 8 hhcurveto
          endchar
        </CharString>
        <CharString name="at">
          138 -126 68 133 62 264 53 104 67 hstem
          38 70 112 60 401 64 vstem
          609 -27 rmoveto
          -3 8 -7 2 -7 -4 rrcurveto
          0 -64 -37 -136 -157 -127 117 171 170 133 158 185 156 99 -85 -122 -144 -71 -70 -64 vhcurveto
          -22 hlineto
          38 295 rlineto
          7 1 -3 5 -8 hhcurveto
          -30 hlineto
          -7 -5 -4 -7 -1 hvcurveto
          -4 -25 rlineto
          16 -8 -23 30 -59 hhcurveto
          -102 -93 -80 -129 -125 73 -45 71 67 37 65 1 hvcurveto
          -3 -25 rlineto
          -29 -4 14 -9 29 hhcurveto
          20 hlineto
          100 121 86 189 147 -116 125 -203 -210 -178 -178 -217 -205 154 -151 200 142 85 48 0 hvcurveto
          7 3 2 6 -3 7 rrcurveto
          -144 293 rmoveto
          -38 -4 -48 -59 -51 hhcurveto
          -48 -50 31 82 97 70 57 66 60 16 -51 -16 2 hvcurveto
          endchar
        </CharString>
        <CharString name="atilde">
          -12 callsubr
          60 90 callgsubr
          86 -1 48 219 47 -47 83 -83 151 hintmask 0111110100010000
          529 -65 callgsubr
          hintmask 1011110100100000
          -98 callgsubr
          hintmask 0111110101000000
          -37 callsubr
          -52 149 rmoveto
          hintmask 1011101101000000
          -47 callgsubr
          11 454 rmoveto
          -16 callgsubr
          hintmask 1011110011000000
          -83 callgsubr
          hintmask 1011101101000000
          -103 callsubr
          endchar
        </CharString>
        <CharString name="atilde.alt">
          -5 callgsubr
          87 90 callgsubr
          82 14 48 218 48 -21 21 -21 79 -79 147 hintmask 0110110110001000
          562 -65 callgsubr
          hintmask 1001110110010000
          -52 callsubr
          hintmask 1010110111000000
          -67 callsubr
          hintmask 0110110111000000
          -37 callsubr
          hintmask 1010101110100000
          -200 63 -75 callsubr
          137 621 rmoveto
          hintmask 1010110111000000
          -16 callgsubr
          -83 callgsubr
          hintmask 1010101111000000
          -103 callsubr
          endchar
        </CharString>
        <CharString name="b">
          -32 -7 9 callgsubr
          152 67 hstemhm
          38 149 -80 80 305 82 hintmask 01111010
          170 hmoveto
          21 callgsubr
          82 1 vlineto
          hintmask 10111010
          -50 21 54 -51 90 hhcurveto
          133 92 100 156 147 -88 103 -136 -89 -54 -50 -48 -20 hvcurveto
          -3 hlineto
          0 3 35 4 vvcurveto
          266 -102 callgsubr
          -123 -91 callsubr
          hintmask 01110110
          56 -639 hlineto
          24 callgsubr
          7 vhcurveto
          hintmask 10111010
          219 63 rmoveto
          -86 -67 71 113 117 71 65 82 85 69 -68 -113 -111 -64 -74 -90 hvcurveto
          endchar
        </CharString>
        <CharString name="backslash">
          -240 -53 -21 834 -20 hstem
          123 748 rmoveto
          8 -2 -6 4 -8 hhcurveto
          -59 hlineto
          -8 -3 -4 -8 2 hvcurveto
          242 -810 rlineto
          -8 3 -70 callsubr
          hhcurveto
          59 hlineto
          8 4 4 8 -3 hvcurveto
          endchar
        </CharString>
        <CharString name="bar">
          76 callgsubr
          -131 45 callsubr
          867 -103 callgsubr
          -59 -56 callgsubr
          -867 vlineto
          -8 5 -19 callsubr
        </CharString>
        <CharString name="braceleft">
          -304 -72 78 681 78 hstemhm
          121 84 -84 181 hintmask 11010000
          302 -7 rmoveto
          -49 callgsubr
          hintmask 11100000
          -59 -25 23 62 hvcurveto
          112 vlineto
          89 -65 39 0 vhcurveto
          34 vlineto
          0 65 40 89 vvcurveto
          106 vlineto
          62 25 25 59 vhcurveto
          hintmask 11010000
          -53 callsubr
          52 vlineto
          -36 callsubr
          -90 -78 -37 -121 vhcurveto
          -114 vlineto
          -76 -49 -39 -20 -1 vhcurveto
          9 callsubr
          -31 vlineto
          -8 6 -6 8 20 49 -40 -75 vhcurveto
          -120 vlineto
          -121 78 -35 90 -34 callsubr
          vhcurveto
          endchar
        </CharString>
        <CharString name="braceright">
          -304 -72 78 681 78 hstemhm
          38 182 -84 84 hintmask 11100000
          52 -72 rmoveto
          90 78 35 121 hvcurveto
          120 vlineto
          75 48 40 21 8 5 6 8 vhcurveto
          31 -32 callsubr
          -21 1 -48 39 76 vvcurveto
          114 vlineto
          121 -78 37 -90 -8 -6 -5 -8 vhcurveto
          -52 -16 callsubr
          hintmask 11010000
          58 26 -25 -62 hvcurveto
          -106 vlineto
          -89 65 -40 0 vhcurveto
          -34 vlineto
          0 -65 -39 -89 vvcurveto
          -112 vlineto
          -62 -26 -23 -58 vhcurveto
          hintmask 11100000
          9 callsubr
          -52 -16 callsubr
          endchar
        </CharString>
        <CharString name="bracketleft">
          -341 -71 79 679 79 hstemhm
          38 84 -84 228 hintmask 11010000
          252 -71 rmoveto
          8 6 -28 callgsubr
          52 vlineto
          8 -6 6 -8 vhcurveto
          hintmask 11100000
          -130 679 130 hlineto
          hintmask 11010000
          8 6 -28 callgsubr
          52 vlineto
          8 -6 6 -8 vhcurveto
          -201 -56 callgsubr
          -813 vlineto
          -8 5 -19 callsubr
        </CharString>
        <CharString name="bracketright">
          -341 -71 79 679 79 hstemhm
          38 228 -84 84 hintmask 11100000
          266 754 rmoveto
          -97 callgsubr
          -201 hlineto
          -8 -6 -6 -8 hvcurveto
          -52 -16 callsubr
          hintmask 11010000
          130 -679 -130 hlineto
          hintmask 11100000
          -8 -6 -6 -8 hvcurveto
          -52 -16 callsubr
          201 hlineto
          21 callgsubr
          endchar
        </CharString>
        <CharString name="breve">
          -295 563 59 callgsubr
          35 93 callsubr
          hintmask 01110000
          270 715 rmoveto
          -26 callsubr
          hintmask 10110000
          -11 callsubr
          vhcurveto
          hintmask 01110000
          -74 callsubr
        </CharString>
        <CharString name="brokenbar">
          76 callgsubr
          410 40 callsubr
          59 -541 40 callsubr
          endchar
        </CharString>
        <CharString name="bullet">
          -382 239 193 hstem
          38 187 vstem
          131 239 rmoveto
          57 37 37 59 57 -37 40 -57 -60 -33 -40 -57 -59 33 -37 60 hvcurveto
          endchar
        </CharString>
        <CharString name="c">
          29 callsubr
          hstemhm
          38 84 306 70 hintmask 10101100
          465 144 -63 callsubr
        </CharString>
        <CharString name="cacute">
          29 callsubr
          hstemhm
          38 84 306 70 hintmask 10101100
          445 706 -107 callsubr
          188 -428 -63 callsubr
        </CharString>
        <CharString name="caron">
          -235 594 -21 hstem
          370 -83 callsubr
          endchar
        </CharString>
        <CharString name="ccaron">
          29 callsubr
          hstemhm
          38 84 306 70 hintmask 10101100
          456 -83 callsubr
          164 -434 -63 callsubr
        </CharString>
        <CharString name="ccedilla">
          -106 -156 41 59 119 -70 70 235 201 -70 70 -6 -20 hstemhm
          38 84 204 49 53 70 hintmask 1010101110000000
          287 16 callgsubr
          7 20 113 10 61 72 11 21 rlinecurve
          4 6 0 6 -7 6 -29 28 rcurveline
          -50 callsubr
          hintmask 1101001110000000
          -6 callgsubr
          hintmask 1100011110000000
          -15 callgsubr
          hintmask 1011001110000000
          30 -21 -47 44 -91 hhcurveto
          -121 -117 -89 -162 -154 103 -94 128 -7 hvcurveto
          -11 -32 rlineto
          hintmask 1101001110000000
          -48 callgsubr
          61 callsubr
        </CharString>
        <CharString name="ccircumflex">
          29 callsubr
          290 -20 hstemhm
          38 84 306 70 hintmask 10101110
          449 -84 callsubr
          41 -431 rmoveto
          -50 callsubr
          hintmask 11001110
          -6 callgsubr
          hintmask 10011110
          -15 callgsubr
          hintmask 11001110
          30 -21 -47 44 -91 hhcurveto
          -121 -117 -11 callgsubr
          132 30 callgsubr
          rrcurveto
          endchar
        </CharString>
        <CharString name="cdotaccent">
          29 callsubr
          93 105 hstemhm
          38 84 108 104 94 70 hintmask 10101111
          465 144 rmoveto
          -50 callsubr
          hintmask 11001111
          -6 callgsubr
          hintmask 10011111
          -15 callgsubr
          hintmask 11001111
          30 -21 -47 44 -91 hhcurveto
          -121 -117 -11 callgsubr
          132 30 callgsubr
          rrcurveto
          -160 502 -52 callgsubr
        </CharString>
        <CharString name="cedilla">
          -409 -156 41 0 59 74 -20 hstemhm
          152 49 hintmask 10110000
          113 16 callgsubr
          15 42 -42 1 -20 -57 rlineto
          hintmask 01110000
          -48 callgsubr
          hintmask 10110000
          61 callsubr
        </CharString>
        <CharString name="cent">
          -106 -13 133 365 151 hstem
          38 84 122 68 116 70 vstem
          300 -13 rmoveto
          -7 callgsubr
          52 vlineto
          113 10 60 72 12 21 4 7 0 6 -7 5 -29 29 rcurveline
          -6 5 -7 -2 -4 -6 rrcurveto
          -24 -14 -59 -54 -86 hhcurveto
          -83 -84 65 84 callgsubr
          89 62 75 87 54 -59 -42 1 hvcurveto
          -17 vlineto
          -6 callgsubr
          -92 callsubr
          vhcurveto
          -38 -56 callgsubr
          3 -56 rlineto
          -3 hlineto
          -17 30 -41 31 -65 9 rrcurveto
          73 -103 callgsubr
          -43 -56 callgsubr
          -71 vlineto
          -109 -14 -97 -87 -147 vvcurveto
          -146 90 -91 116 -15 vhcurveto
          -54 72 callgsubr
          endchar
        </CharString>
        <CharString name="circumflex">
          -235 763 -20 hstem
          372 -84 callsubr
          endchar
        </CharString>
        <CharString name="colon">
          -474 -7 94 306 95 hstem
          38 95 vstem
          133 40 rmoveto
          37 callsubr
          400 vmoveto
          66 callsubr
          endchar
        </CharString>
        <CharString name="comma">
          -486 -95 181 -93 93 hstemhm
          28 103 -38 38 hintmask 10100000
          45 -90 rmoveto
          -3 3 -2 4 42 37 29 79 47 -21 26 -34 -27 -21 -20 -27 vhcurveto
          hintmask 01010000
          -28 20 -18 24 13 6 5 0 vhcurveto
          41 callgsubr
        </CharString>
        <CharString name="commaaccent">
          -473 2 callsubr
          hstemhm
          35 102 -38 38 hintmask 10100000
          51 -68 callsubr
          hintmask 01010000
          -77 callgsubr
          endchar
        </CharString>
        <CharString name="copyright">
          25 51 53 71 56 240 56 65 53 hstem
          38 53 77 59 353 52 25 callgsubr
          -52 hmoveto
          -135 -110 -109 -135 -135 -109 109 135 135 109 109 135 135 110 -109 -135 vhcurveto
          -139 -65 rmoveto
          -4 3 -4 -1 -3 -5 rrcurveto
          -19 -11 -22 -30 -62 hhcurveto
          -57 -51 39 82 81 51 38 55 58 26 -29 -23 13 hvcurveto
          3 -5 3 0 5 3 29 20 rcurveline
          4 4 1 4 -3 4 rrcurveto
          19 -10 -40 59 -89 hhcurveto
          -89 -76 -65 -111 -111 76 -65 89 89 40 59 19 10 hvcurveto
          3 4 -1 4 -5 4 rrcurveto
          endchar
        </CharString>
        <CharString name="d">
          -33 -7 9 callgsubr
          152 67 54 callgsubr
          hintmask 01111001
          562 51 callsubr
          hintmask 10111100
          -56 639 23 callgsubr
          hintmask 10111010
          56 -217 -8 callgsubr
          hintmask 01111100
          -31 14 -11 30 vhcurveto
          hintmask 10111100
          7 callsubr
        </CharString>
        <CharString name="dagger">
          -220 -110 -21 627 62 callsubr
          615 116 vlineto
          10 callsubr
          -615 hlineto
          -8 5 -19 callsubr
        </CharString>
        <CharString name="daggerdbl">
          -220 -110 -21 202 78 347 62 callsubr
          190 116 vlineto
          8 5 6 8 hvcurveto
          50 57 callsubr
          -116 347 116 hlineto
          10 callsubr
          -347 -121 hlineto
          -8 -6 -6 -8 hvcurveto
          -50 vlineto
          -8 6 -6 8 vhcurveto
          121 -190 hlineto
          -8 5 -19 callsubr
        </CharString>
        <CharString name="dcaron">
          -5 -7 9 callgsubr
          62 182 -93 68 54 callgsubr
          -35 103 -39 39 hintmask 1011011001000000
          556 26 callsubr
          hintmask 0110110010100000
          -45 callgsubr
          6 -584 rmoveto
          7 5 -95 callsubr
          hintmask 1010111001000000
          -56 639 23 callgsubr
          hintmask 1011010101000000
          56 -217 -8 callgsubr
          hintmask 0111011001000000
          -31 14 -11 30 vhcurveto
          hintmask 1011011001000000
          7 callsubr
        </CharString>
        <CharString name="dcroat">
          -48 -7 9 callgsubr
          56 38 58 67 54 callgsubr
          hintmask 0111110010000000
          562 51 callsubr
          hintmask 1011111000000000
          -56 488 56 hlineto
          55 callgsubr
          -56 113 23 callgsubr
          hintmask 1011110100000000
          56 -58 -128 hlineto
          -7 -4 -4 -7 hvcurveto
          -16 83 callgsubr
          128 -121 -8 callgsubr
          hintmask 0111111000000000
          -31 14 -11 30 vhcurveto
          hintmask 1011111000000000
          7 callsubr
        </CharString>
        <CharString name="degree">
          -425 419 38 76 38 hstem
          38 38 68 38 vstem
          110 419 rmoveto
          38 34 25 52 43 -32 32 -40 -40 -32 -32 -43 -52 34 -25 38 hvcurveto
          38 vmoveto
          -17 -17 13 26 22 16 15 18 18 16 -15 -22 -26 -17 -13 -17 hvcurveto
          endchar
        </CharString>
        <CharString name="dieresis">
          -332 556 85 hstem
          35 85 73 85 vstem
          120 -38 callsubr
          endchar
        </CharString>
        <CharString name="divide">
          -231 97 83 41 77 47 83 hstem
          166 83 vstem
          363 221 -26 callgsubr
          -311 hlineto
          -41 callsubr
          197 -83 rmoveto
          24 -18 18 -23 -23 -19 -18 -24 -23 19 -18 23 23 18 18 23 vhcurveto
          249 vmoveto
          23 -18 18 -23 -23 -19 -18 -23 -23 19 -19 23 23 18 19 23 vhcurveto
          endchar
        </CharString>
        <CharString name="dollar">
          1 -86 160 -80 80 -43 43 -43 212 248 205 -54 54 -54 82 -82 163 hstemhm
          38 67 callgsubr
          127 78 -66 78 111 74 callsubr
          hintmask 1000100010010100
          361 -86 rmoveto
          hintmask 0100010000101001
          32 callgsubr
          68 vlineto
          166 6 69 90 105 246 -452 -98 187 vvcurveto
          64 57 48 90 vhcurveto
          hintmask 1000100010010100
          135 43 -84 -42 3 hvcurveto
          -13 vlineto
          52 callsubr
          4 4 8 hvcurveto
          181 vlineto
          8 -4 -45 callsubr
          hvcurveto
          2 -39 -25 32 -40 28 -66 9 rlinecurve
          79 vlineto
          hintmask 1000000110001100
          -103 callsubr
          -54 hlineto
          hintmask 0010001001010010
          -8 -4 -38 callgsubr
          -69 vlineto
          -140 -5 -83 -83 -106 -257 444 98 -176 vvcurveto
          -77 -62 -44 -102 -159 -54 133 18 -1 vhcurveto
          6 vlineto
          hintmask 0001100010001100
          32 callsubr
          -63 -56 callgsubr
          -188 63 callsubr
          8 vhcurveto
          56 hlineto
          8 5 4 8 -1 hvcurveto
          -2 67 rlineto
          2 hlineto
          23 -39 54 -56 99 -14 rrcurveto
          -75 vlineto
          hintmask 1000100010010100
          -81 callsubr
          endchar
        </CharString>
        <CharString name="dotaccent">
          -472 566 105 hstem
          35 104 vstem
          139 618 -52 callgsubr
        </CharString>
        <CharString name="dotlessi">
          60 callsubr
          -64 callsubr
          hintmask 11010000
          -24 callsubr
          hintmask 11100000
          56 callgsubr
          -126 -91 callsubr
          hintmask 11001000
          55 -358 14 callgsubr
        </CharString>
        <CharString name="e">
          -107 -7 70 173 61 136 66 -23 callgsubr
          endchar
        </CharString>
        <CharString name="eacute">
          68 callgsubr
          416 706 -107 callsubr
          235 -336 -101 callsubr
          endchar
        </CharString>
        <CharString name="ebreve">
          1 callgsubr
          64 59 callgsubr
          38 85 23 93 callsubr
          -12 83 hintmask 1110111010000000
          -69 callsubr
          -33 418 rmoveto
          hintmask 1111011100000000
          -8 -5 -5 -8 -11 callsubr
          hvcurveto
          hintmask 1110111100000000
          -74 callsubr
        </CharString>
        <CharString name="ecaron">
          68 callgsubr
          439 -83 callsubr
          199 -342 -101 callsubr
          endchar
        </CharString>
        <CharString name="ecircumflex">
          1 callgsubr
          264 -20 89 callsubr
          443 -84 callsubr
          65 -339 -101 callsubr
          endchar
        </CharString>
        <CharString name="edieresis">
          1 callgsubr
          57 85 hstem
          38 85 28 85 73 85 20 83 vstem
          236 -38 callsubr
          89 -362 -101 callsubr
          endchar
        </CharString>
        <CharString name="edotaccent">
          1 callgsubr
          67 105 hstem
          38 85 100 104 87 -55 callgsubr
          -87 321 -52 callgsubr
        </CharString>
        <CharString name="egrave">
          -107 -7 70 173 61 136 66 -23 callgsubr
          -42 307 -100 callsubr
        </CharString>
        <CharString name="eight">
          -37 -7 81 271 41 1 22 235 80 hstemhm
          38 90 -66 66 -66 90 304 90 -67 67 -67 91 hintmask 1111010010000000
          430 387 rmoveto
          24 92 42 107 85 -65 103 -177 hvcurveto
          -177 -1 -65 -102 -85 vvcurveto
          -107 91 -42 25 vhcurveto
          -1 vlineto
          hintmask 1111100001000000
          -31 -109 -40 -141 -124 107 -88 160 158 107 88 124 141 -110 40 -30 hvcurveto
          -113 -41 rmoveto
          104 58 -51 -84 -81 -68 -55 -107 -107 -69 54 82 84 58 51 105 hvcurveto
          hintmask 1111001100000000
          165 182 rmoveto
          -99 -93 -19 -61 -56 -94 19 99 62 49 55 103 103 49 -55 -62 vhcurveto
          endchar
        </CharString>
        <CharString name="ellipsis">
          -248 -7 94 hstem
          28 95 29 95 27 95 vstem
          123 40 36 callsubr
          124 hmoveto
          37 callsubr
          122 hmoveto
          37 callsubr
          endchar
        </CharString>
        <CharString name="emacron">
          1 callgsubr
          55 69 -23 callgsubr
          3 257 -76 callsubr
          endchar
        </CharString>
        <CharString name="emdash">
          234 222 77 hstem
          828 222 -26 callgsubr
          -776 hlineto
          -41 callsubr
          endchar
        </CharString>
        <CharString name="endash">
          -91 222 77 hstem
          503 222 -26 callgsubr
          -451 hlineto
          -41 callsubr
          endchar
        </CharString>
        <CharString name="eng">
          -93 -234 71 163 84 callsubr
          -7 -20 46 callsubr
          hintmask 11101001
          432 -63 rmoveto
          -66 -32 4 callgsubr
          60 hhcurveto
          99 62 57 113 -1 hvcurveto
          389 vlineto
          -15 callsubr
          50 rlineto
          hintmask 11011001
          24 -10 6 -22 vhcurveto
          -98 -91 callsubr
          hintmask 11100011
          20 callsubr
          hintmask 11101001
          -105 callsubr
          191 hlineto
          hintmask 11100101
          -101 callgsubr
          hintmask 11101001
          -53 275 hlineto
          1 1 31 84 101 hhcurveto
          74 36 -47 -75 hvcurveto
          endchar
        </CharString>
        <CharString name="eogonek">
          -107 -162 45 110 70 173 61 136 66 hstem
          38 85 106 52 133 83 vstem
          483 236 rmoveto
          9 5 -28 callgsubr
          155 3 -83 95 -143 hhcurveto
          -120 -116 -11 callgsubr
          hvcurveto
          1 hlineto
          15 callgsubr
          51 72 32 6 3 hvcurveto
          83 22 45 55 10 18 4 6 -1 6 -7 6 -27 27 rcurveline
          -7 5 -6 -1 -5 -7 rrcurveto
          -23 -14 -59 -54 -86 hhcurveto
          -79 -82 56 117 -5 hvcurveto
          2 61 rmoveto
          96 12 70 40 69 hhcurveto
          86 48 -55 -81 4 hvcurveto
          endchar
        </CharString>
        <CharString name="equal">
          -222 100 77 158 78 hstem
          372 335 rmoveto
          8 5 6 8 hvcurveto
          50 57 callsubr
          -320 hlineto
          -8 -6 -6 -8 hvcurveto
          -50 vlineto
          -8 6 -6 8 vhcurveto
          320 -235 -26 callgsubr
          -320 hlineto
          -41 callsubr
          endchar
        </CharString>
        <CharString name="eth">
          -34 86 callsubr
          39 90 -64 85 331 92 hintmask 11101010
          397 602 rmoveto
          48 -36 27 -66 5 -89 rrcurveto
          22 -35 -63 29 -94 hhcurveto
          -162 -84 -94 -137 -136 99 -102 161 178 96 146 214 137 -37 113 -76 61 hvcurveto
          40 40 5 6 0 -4 callsubr
          rlinecurve
          -20 21 -6 5 -7 0 -6 -5 rlinecurve
          -48 -49 rlineto
          19 -37 -43 10 -48 hhcurveto
          hintmask 11100110
          -134 -86 -77 -112 -8 4 -4 8 hvcurveto
          61 2 callgsubr
          hintmask 11011010
          45 38 65 98 24 22 -5 -7 19 vhcurveto
          -40 -40 -6 -6 0 -8 6 -5 rlinecurve
          20 -21 5 -5 8 0 5 5 rlinecurve
          132 -214 rmoveto
          -169 -3 -65 -96 -113 hhcurveto
          -108 -63 67 94 95 65 64 109 93 60 -38 -17 25 hvcurveto
          endchar
        </CharString>
        <CharString name="exclam">
          -463 -49 106 703 -20 hstem
          49 84 vstem
          121 148 40 callgsubr
          -144 34 callgsubr
        </CharString>
        <CharString name="exclamdown">
          -463 -247 -21 703 106 hstem
          49 84 vstem
          121 -268 40 callgsubr
          756 34 callgsubr
        </CharString>
        <CharString name="f">
          -258 60 callsubr
          161 71 hstem
          108 83 vstem
          -30 callgsubr
          endchar
        </CharString>
        <CharString name="ff">
          108 60 callsubr
          161 71 hstem
          108 83 283 83 vstem
          64 callgsubr
          283 0 callsubr
          226 hlineto
          -10 callsubr
          -283 61 vlineto
          -9 callsubr
          endchar
        </CharString>
        <CharString name="fi">
          20 60 callsubr
          53 112 -4 71 hstemhm
          108 83 271 112 -96 83 hintmask 11011010
          64 callgsubr
          287 0 callsubr
          191 hlineto
          -101 callgsubr
          56 callgsubr
          -358 61 hlineto
          -9 callsubr
          hintmask 11101100
          521 600 33 callsubr
        </CharString>
        <CharString name="five">
          -55 -7 81 320 68 104 154 -75 75 hstemhm
          84 88 249 88 -47 90 hintmask 11011010
          286 -7 rmoveto
          161 105 93 145 137 -86 94 -162 -73 -49 -18 -2 -10 hvcurveto
          203 vlineto
          hintmask 11011100
          249 -67 hlineto
          hintmask 11101100
          24 callgsubr
          7 vhcurveto
          64 2 callgsubr
          130 vlineto
          32 callsubr
          -401 hlineto
          -7 13 callgsubr
          -324 vlineto
          -26 16 0 11 2 vhcurveto
          8 34 65 26 76 hhcurveto
          hintmask 11101010
          109 67 -64 -95 -104 -66 -57 -110 -111 -42 53 callgsubr
          67 -102 163 hhcurveto
          endchar
        </CharString>
        <CharString name="fl">
          35 60 callsubr
          161 71 -6 -20 hstemhm
          108 83 234 -59 callgsubr
          hintmask 11101010
          -30 callgsubr
          576 -55 callsubr
          hintmask 11011100
          -53 626 hlineto
          17 -7 8 -20 vhcurveto
          -111 -91 callsubr
          hintmask 11101001
          91 callsubr
          hintmask 11101100
          -35 callgsubr
        </CharString>
        <CharString name="florin">
          -138 -234 72 588 67 160 71 hstem
          223 83 vstem
          223 -62 rmoveto
          -67 -31 -33 -54 -30 -20 14 4 -5 vhcurveto
          -6 6 -6 -2 -5 -6 -24 -30 rcurveline
          -5 -6 1 -6 7 -6 rrcurveto
          -8 8 33 -32 60 hhcurveto
          100 60 58 113 hvcurveto
          489 128 vlineto
          8 4 -95 callsubr
          -128 60 24 callsubr
          -61 -58 vlineto
          -64 callgsubr
          58 hlineto
          endchar
        </CharString>
        <CharString name="four">
          -37 0 75 150 70 423 -20 hstem
          384 87 vstem
          557 hmoveto
          -100 callgsubr
          -86 150 79 64 callsubr
          44 -32 callsubr
          -79 411 hlineto
          -97 callgsubr
          -57 hlineto
          -14 -7 -3 -20 -16 hvcurveto
          -312 -385 rlineto
          -10 -14 -3 -7 -11 vvcurveto
          -40 vlineto
          47 callgsubr
          333 -150 -115 hlineto
          -34 callgsubr
          115 295 rmoveto
          -255 hlineto
          255 315 rlineto
          endchar
        </CharString>
        <CharString name="fraction">
          -240 -53 -21 834 -20 hstem
          108 -74 rmoveto
          7 -40 callsubr
          4 -4 7 hhcurveto
          endchar
        </CharString>
        <CharString name="g">
          16 callsubr
          hstemhm
          38 82 306 80 -80 146 hintmask 11101100
          14 callsubr
          hintmask 11011010
          -24 callgsubr
          hintmask 11101100
          -82 callgsubr
          endchar
        </CharString>
        <CharString name="gbreve">
          16 callsubr
          91 59 callgsubr
          38 82 38 93 callsubr
          -12 6 callsubr
          hintmask 1110011101000000
          -82 callgsubr
          118 652 rmoveto
          hintmask 1110101110000000
          -8 -5 -5 -8 -11 callsubr
          hvcurveto
          hintmask 1110011110000000
          -74 callsubr
        </CharString>
        <CharString name="gcircumflex">
          16 callsubr
          291 -20 hstemhm
          38 82 306 80 -80 146 hintmask 11101110
          464 -84 callsubr
          -171 -809 rmoveto
          136 102 67 148 hvcurveto
          444 54 vlineto
          hintmask 11011101
          -24 callgsubr
          hintmask 11101110
          -82 callgsubr
          endchar
        </CharString>
        <CharString name="gcommaaccent">
          16 callsubr
          61 93 -93 182 hstemhm
          38 82 115 38 -38 103 88 6 callsubr
          hintmask 1110011011000000
          -82 callgsubr
          46 646 39 callgsubr
          vhcurveto
          hintmask 1110101101000000
          28 -20 18 -24 -13 -6 -5 0 vhcurveto
          28 callgsubr
          endchar
        </CharString>
        <CharString name="gdotaccent">
          16 callsubr
          94 105 hstemhm
          38 82 129 104 73 80 -80 146 hintmask 1110111100000000
          14 callsubr
          hintmask 1101111010000000
          -24 callgsubr
          hintmask 1110111100000000
          -82 callgsubr
          78 555 -52 callgsubr
        </CharString>
        <CharString name="germandbls">
          52 -12 69 -57 57 -57 69 580 75 hstemhm
          108 84 103 82 42 84 68 88 hintmask 10011111
          232 hmoveto
          -7 callgsubr
          45 vlineto
          hintmask 00111111
          -103 callsubr
          -40 413 hlineto
          109 67 58 69 66 25 -36 -39 vhcurveto
          -76 -124 6 -121 -174 276 58 -128 vvcurveto
          hintmask 10011111
          -46 -52 -36 -67 -109 -28 97 5 -4 vhcurveto
          -3 8 -6 1 -8 -3 -35 -16 rcurveline
          -8 -4 -2 -6 4 -7 rrcurveto
          -18 7 35 -126 164 hhcurveto
          110 90 63 86 hvcurveto
          185 -282 -50 116 98 126 -12 114 vvcurveto
          72 -54 64 -120 -120 -101 -89 -153 vhcurveto
          hintmask 00111111
          -413 -57 vlineto
          hintmask 01011111
          -50 callgsubr
          -45 vlineto
          -8 5 -19 callsubr
        </CharString>
        <CharString name="grave">
          -354 569 199 hstem
          35 221 vstem
          252 604 -100 callsubr
        </CharString>
        <CharString name="greater">
          95 callsubr
          400 263 rmoveto
          8 -5 7 -8 4 vhcurveto
          -335 161 rlineto
          -8 3 -6 -3 -8 vvcurveto
          -51 callgsubr
          6 -8 8 -4 vhcurveto
          246 -118 -246 -118 rlineto
          -8 -3 -6 -8 -8 vvcurveto
          -51 callgsubr
          6 -3 8 3 vhcurveto
          335 160 rlineto
          8 4 5 7 8 vvcurveto
          endchar
        </CharString>
        <CharString name="guillemotleft">
          -124 58 376 hstem
          38 445 vstem
          272 61 rmoveto
          6 -5 7 1 9 vvcurveto
          44 vlineto
          8 -6 8 -7 87 callsubr
          7 95 callgsubr
          -5 -3 vhcurveto
          -220 -153 rlineto
          -8 -5 -6 -8 -8 vvcurveto
          -22 vlineto
          -8 6 -9 8 -6 vhcurveto
          417 -152 rmoveto
          19 callgsubr
          1 9 vvcurveto
          44 vlineto
          8 -6 8 -8 87 callsubr
          8 95 callgsubr
          -6 -3 vhcurveto
          -220 -153 rlineto
          -7 -5 -6 -8 -8 vvcurveto
          -22 vlineto
          -8 5 -9 8 -6 vhcurveto
          endchar
        </CharString>
        <CharString name="guillemotright">
          -124 59 376 hstem
          38 445 vstem
          249 61 rmoveto
          220 152 rlineto
          8 6 6 9 8 vvcurveto
          22 vlineto
          8 -6 8 -8 5 vhcurveto
          -220 153 rlineto
          -6 5 -7 -1 -9 vvcurveto
          -44 vlineto
          -8 5 -9 8 -5 vhcurveto
          165 -115 -165 -114 rlineto
          -8 -6 -5 -8 -8 vvcurveto
          -44 vlineto
          -10 7 2 6 3 vhcurveto
          -197 hmoveto
          220 152 rlineto
          8 6 5 9 8 vvcurveto
          22 vlineto
          8 -6 8 -7 5 vhcurveto
          -220 153 rlineto
          -7 5 -7 -1 -9 vvcurveto
          -44 vlineto
          -8 6 -9 8 -5 vhcurveto
          165 -115 -165 -114 rlineto
          -8 -6 -6 -8 -8 vvcurveto
          -44 vlineto
          -10 8 2 6 3 vhcurveto
          endchar
        </CharString>
        <CharString name="h">
          83 callsubr
          152 67 66 callgsubr
          hintmask 11110001
          42 callgsubr
          hintmask 11110010
          -4 callgsubr
          -94 -44 -49 -28 -18 hvcurveto
          -2 hlineto
          1 7 3 39 15 vvcurveto
          223 vlineto
          8 -4 4 -8 vhcurveto
          -126 -91 callsubr
          hintmask 11100110
          91 callsubr
          hintmask 11110010
          -105 callsubr
          191 hlineto
          hintmask 11101010
          -101 callgsubr
          hintmask 11110010
          -53 274 hlineto
          -1 31 87 102 74 36 -47 -75 vhcurveto
          68 callsubr
        </CharString>
        <CharString name="hbar">
          83 callsubr
          60 38 54 67 66 callgsubr
          hintmask 1111100010000000
          42 callgsubr
          hintmask 1111100100000000
          -4 callgsubr
          -94 -44 -49 -28 -18 hvcurveto
          -2 hlineto
          1 7 3 38 16 vvcurveto
          76 123 vlineto
          55 callgsubr
          -123 109 -23 callsubr
          -126 -91 callsubr
          hintmask 1111001100000000
          55 -54 -58 hlineto
          -7 -4 -4 -7 hvcurveto
          -16 83 callgsubr
          58 -492 -3 callsubr
        </CharString>
        <CharString name="hcircumflex">
          83 callsubr
          152 67 236 -20 66 callgsubr
          hintmask 1111100010000000
          472 795 -107 callgsubr
          123 -766 12 callgsubr
          hintmask 1111100100000000
          -4 callgsubr
          -94 -44 -49 -28 -18 hvcurveto
          -2 hlineto
          1 7 3 39 15 vvcurveto
          223 vlineto
          8 -4 4 -8 vhcurveto
          -126 -91 callsubr
          hintmask 1111001100000000
          55 -584 -3 callsubr
        </CharString>
        <CharString name="hungarumlaut">
          -182 578 199 hstem
          36 392 vstem
          251 715 -78 callgsubr
          endchar
        </CharString>
        <CharString name="hyphen">
          21 callsubr
        </CharString>
        <CharString name="i">
          60 callsubr
          53 112 hstemhm
          38 -31 callgsubr
          -165 112 -96 83 hintmask 11101000
          242 hmoveto
          41 callsubr
          413 hlineto
          -92 callsubr
          vhcurveto
          -126 -91 callsubr
          hintmask 11100010
          55 -358 67 callsubr
          hintmask 11100100
          151 600 33 callsubr
        </CharString>
        <CharString name="iacute">
          60 callsubr
          -64 callsubr
          hintmask 11010000
          -24 callsubr
          hintmask 11100000
          56 callgsubr
          -126 -91 callsubr
          hintmask 11001000
          55 -358 -9 callgsubr
          258 706 -71 callgsubr
        </CharString>
        <CharString name="icircumflex">
          60 callsubr
          271 -20 -14 callsubr
          259 -84 callsubr
          endchar
        </CharString>
        <CharString name="idieresis">
          60 callsubr
          64 85 hstemhm
          38 79 -79 217 -149 83 1 85 hintmask 11101000
          -24 callsubr
          hintmask 11100110
          56 callgsubr
          -126 hlineto
          hintmask 11110010
          -105 callsubr
          hintmask 11100110
          20 callsubr
          hintmask 11110010
          -105 callsubr
          66 -38 callsubr
          endchar
        </CharString>
        <CharString name="igrave">
          60 callsubr
          -64 callsubr
          hintmask 11010000
          -24 callsubr
          hintmask 11100000
          56 callgsubr
          -126 -91 callsubr
          hintmask 11001000
          55 -358 -9 callgsubr
          124 599 -100 callsubr
        </CharString>
        <CharString name="imacron">
          60 callsubr
          62 69 -14 callsubr
          231 554 -76 callsubr
          endchar
        </CharString>
        <CharString name="iogonek">
          -343 -161 45 116 81 callsubr
          53 112 hstemhm
          38 105 -52 111 -111 164 -149 83 hintmask 11111000
          238 -107 rmoveto
          -48 callsubr
          43 49 29 21 10 hvcurveto
          29 hlineto
          hintmask 11110010
          -101 callgsubr
          hintmask 11110001
          56 callgsubr
          -126 hlineto
          hintmask 11111000
          -105 callsubr
          hintmask 11110001
          20 callsubr
          hintmask 11111000
          -105 callsubr
          109 hlineto
          hintmask 11110100
          50 callsubr
          -45 720 33 callsubr
        </CharString>
        <CharString name="itilde">
          -312 60 callsubr
          67 31 callgsubr
          1 48 16 151 -151 216 -148 83 51 48 hintmask 1111010100000000
          269 -65 callgsubr
          hintmask 1111011001000000
          56 callgsubr
          -127 hlineto
          -64 callgsubr
          hintmask 1111010011000000
          56 -358 -56 hlineto
          hintmask 1110111001000000
          -64 callgsubr
          202 684 rmoveto
          -16 callgsubr
          hintmask 1111011001000000
          -83 callgsubr
          hintmask 1110111001000000
          -103 callsubr
          endchar
        </CharString>
        <CharString name="j">
          -319 57 callgsubr
          53 112 hstemhm
          121 151 -96 112 -99 83 hintmask 11101000
          288 601 rmoveto
          30 -25 26 -31 -31 -25 -26 -30 -31 25 -25 31 31 25 25 31 vhcurveto
          hintmask 11100100
          -99 -664 rmoveto
          -66 -31 4 callgsubr
          59 hhcurveto
          100 61 57 113 hvcurveto
          544 -103 callgsubr
          -127 hlineto
          hintmask 11110000
          -64 callgsubr
          hintmask 11100100
          56 hlineto
          endchar
        </CharString>
        <CharString name="jcircumflex">
          -302 57 callgsubr
          271 -20 hstemhm
          121 151 -83 83 hintmask 11110000
          189 -63 rmoveto
          -66 -31 4 callgsubr
          59 hhcurveto
          100 61 57 113 hvcurveto
          544 -103 callgsubr
          -127 hlineto
          -64 callgsubr
          hintmask 11101000
          56 hlineto
          200 179 -88 callgsubr
        </CharString>
        <CharString name="k">
          -31 60 callsubr
          159 67 -64 callsubr
          hintmask 11110000
          570 hmoveto
          -17 callgsubr
          hintmask 11100100
          55 -584 67 callsubr
          191 hlineto
          hintmask 11101000
          41 callsubr
          114 hlineto
          97 90 177 -240 rlineto
          -20 14 18 -11 21 hhcurveto
          endchar
        </CharString>
        <CharString name="k.alt">
          -12 0 67 366 66 152 67 -64 callsubr
          269 82 hintmask 11110010
          -25 callgsubr
          hintmask 11100110
          88 callgsubr
          hintmask 11101010
          51 callgsubr
          hintmask 11110010
          50 callgsubr
          endchar
        </CharString>
        <CharString name="kcommaaccent">
          -31 2 callsubr
          46 81 callsubr
          159 67 -64 callsubr
          68 102 -38 218 hintmask 1011110010000000
          273 -68 callsubr
          hintmask 0111110001000000
          -77 callgsubr
          297 205 rmoveto
          -17 callgsubr
          hintmask 1011100110000000
          91 callsubr
          hintmask 1011110010000000
          -105 callsubr
          191 hlineto
          hintmask 1011101010000000
          -101 callgsubr
          hintmask 1011110010000000
          -53 114 hlineto
          97 90 177 -240 rlineto
          -20 14 18 -11 21 hhcurveto
          endchar
        </CharString>
        <CharString name="kcommaaccent.alt">
          -12 2 callsubr
          46 67 366 66 152 67 -64 callsubr
          80 102 -38 38 87 82 hintmask 1011110010100000
          -25 callgsubr
          hintmask 1011100110100000
          88 callgsubr
          hintmask 1011101010100000
          51 callgsubr
          hintmask 1011110010100000
          50 callgsubr
          -40 -455 rmoveto
          -4 3 -2 4 43 36 30 79 46 -21 27 -34 -26 -21 -21 -26 vhcurveto
          hintmask 0111110001100000
          -77 callgsubr
          endchar
        </CharString>
        <CharString name="l">
          0 67 584 67 -64 callsubr
          hintmask 11010000
          242 hmoveto
          -40 callgsubr
        </CharString>
        <CharString name="lacute">
          0 67 584 67 -64 callsubr
          hintmask 11010000
          297 895 -107 callsubr
          113 -761 rmoveto
          -40 callgsubr
        </CharString>
        <CharString name="lcaron">
          0 67 494 182 -93 68 -64 callsubr
          45 103 -39 39 hintmask 11010010
          251 26 callsubr
          hintmask 10101001
          -45 callgsubr
          -9 -584 12 callgsubr
          hintmask 10110010
          -53 626 hlineto
          17 -7 8 -20 vhcurveto
          -111 -91 callsubr
          hintmask 11000110
          91 callsubr
          hintmask 11010010
          -35 callgsubr
        </CharString>
        <CharString name="lcommaaccent">
          2 callsubr
          46 67 584 67 hstemhm
          38 -31 callgsubr
          -155 102 -96 83 -25 38 hintmask 1011001000000000
          116 -68 callsubr
          hintmask 0111000010000000
          -77 callgsubr
          126 205 rmoveto
          hintmask 1011010000000000
          -101 callgsubr
          hintmask 1011100000000000
          -53 626 hlineto
          17 -7 8 -20 vhcurveto
          -111 -91 callsubr
          hintmask 1011000100000000
          91 callsubr
          hintmask 1011100000000000
          -35 callgsubr
        </CharString>
        <CharString name="ldot">
          0 67 584 67 -64 callsubr
          hintmask 11010000
          242 hmoveto
          -40 callgsubr
        </CharString>
        <CharString name="less">
          95 callsubr
          387 66 rmoveto
          8 -3 5 3 8 vvcurveto
          43 vlineto
          8 -5 8 -8 3 vhcurveto
          -247 118 247 118 rlineto
          8 4 5 8 8 vvcurveto
          43 vlineto
          8 -5 3 -8 -3 vhcurveto
          -335 -161 rlineto
          -9 -4 -5 -7 -8 vvcurveto
          -18 vlineto
          -8 5 -7 9 -4 vhcurveto
          endchar
        </CharString>
        <CharString name="logicalnot">
          -80 162 -21 183 69 hstem
          455 71 vstem
          514 141 45 callsubr
          227 -32 callsubr
          -461 18 callsubr
          71 callsubr
          403 -171 hlineto
          -8 5 -19 callsubr
        </CharString>
        <CharString name="lslash">
          0 67 584 67 -64 callsubr
          hintmask 11010000
          -24 callsubr
          hintmask 11100000
          -53 272 hlineto
          133 132 5 6 0 7 -5 6 rlinecurve
          -20 20 -6 6 -7 0 -6 -6 rlinecurve
          -94 -94 rlineto
          277 vlineto
          17 -7 8 -20 vhcurveto
          -111 -91 callsubr
          hintmask 11001000
          55 -317 hlineto
          -126 -127 -6 -5 0 -8 6 -6 rlinecurve
          20 -20 5 -6 8 0 5 6 rlinecurve
          88 88 rlineto
          -189 -55 vlineto
          hintmask 11100000
          -35 callgsubr
        </CharString>
        <CharString name="m">
          286 0 84 callsubr
          -7 5 callsubr
          212 -144 83 243 82 227 82 -82 152 hintmask 1101001010000000
          880 -55 callsubr
          -56 hlineto
          hintmask 1101001100000000
          -1 258 rlineto
          105 -61 69 -108 -103 -43 -61 -22 -15 vhcurveto
          52 -25 -52 31 -72 hhcurveto
          -108 -42 -67 -20 -12 hvcurveto
          -3 hlineto
          2 50 rlineto
          hintmask 1011001100000000
          24 -10 6 -22 vhcurveto
          -98 -91 callsubr
          hintmask 1100011100000000
          20 callsubr
          hintmask 1101001100000000
          -105 callsubr
          187 hlineto
          hintmask 1100101100000000
          7 5 -95 callsubr
          hintmask 1101001100000000
          -49 274 hlineto
          -1 31 87 102 74 36 -47 -75 vhcurveto
          -238 -53 vlineto
          -105 callsubr
          191 -35 callsubr
          -56 251 hlineto
          13 -2 15 -4 12 vhcurveto
          23 15 35 46 74 hhcurveto
          74 35 -47 -75 hvcurveto
          -263 vlineto
          -31 14 -11 30 vhcurveto
          endchar
        </CharString>
        <CharString name="macron">
          -253 554 69 hstem
          344 554 -76 callsubr
          endchar
        </CharString>
        <CharString name="minus">
          21 callsubr
        </CharString>
        <CharString name="multiply">
          -293 156 277 hstem
          39 274 vstem
          308 203 rmoveto
          5 6 0 6 -5 6 -75 74 rcurveline
          76 76 5 5 0 8 -5 6 rlinecurve
          -36 36 -6 6 -7 0 -5 -6 rlinecurve
          -77 -77 -78 80 -6 6 -6 0 -5 -6 rlinecurve
          -40 -40 -6 -6 0 -6 6 -6 rlinecurve
          78 -78 -77 -77 -5 -6 0 -8 5 -6 rlinecurve
          36 -36 6 -5 7 0 6 5 rlinecurve
          77 78 75 -75 6 -5 6 0 5 5 rlinecurve
          endchar
        </CharString>
        <CharString name="n">
          5 callgsubr
          570 hmoveto
          -69 callgsubr
        </CharString>
        <CharString name="nacute">
          5 callgsubr
          425 706 -107 callsubr
          313 -572 rmoveto
          -69 callgsubr
        </CharString>
        <CharString name="ncaron">
          5 callgsubr
          472 -83 callsubr
          253 -578 rmoveto
          -69 callgsubr
        </CharString>
        <CharString name="ncommaaccent">
          -24 2 callsubr
          46 84 callsubr
          -7 -20 -64 callsubr
          67 102 -38 38 74 82 -82 151 hintmask 1011010010100000
          272 -68 callsubr
          hintmask 0111010001010000
          -77 callgsubr
          298 205 12 callgsubr
          hintmask 1011010010100000
          -56 258 hlineto
          -15 callsubr
          68 rlineto
          hintmask 1010110010100000
          -97 callgsubr
          -117 -91 callsubr
          hintmask 1011000110100000
          20 callsubr
          hintmask 1011010010100000
          -105 callsubr
          191 hlineto
          hintmask 1011001010100000
          -101 callgsubr
          hintmask 1011010010100000
          -53 275 hlineto
          1 1 31 84 101 hhcurveto
          74 36 -47 -75 hvcurveto
          68 callsubr
        </CharString>
        <CharString name="nine">
          -33 -7 79 -79 201 61 68 320 81 hstemhm
          38 90 -63 85 332 91 hintmask 10110110
          77 194 rmoveto
          -7 -5 -4 -8 -111 86 -78 135 185 102 148 223 214 -96 146 -178 hvcurveto
          hintmask 10111010
          -161 -100 -102 -136 -137 84 -94 162 97 62 29 22 35 hvcurveto
          -147 -12 -64 -87 -116 hhcurveto
          hintmask 01110110
          -98 -38 65 45 -92 callsubr
          hvcurveto
          344 184 rmoveto
          -18 -27 -61 -37 -92 hhcurveto
          hintmask 10111010
          -108 -66 64 95 94 64 67 108 113 66 -95 -170 3 hvcurveto
          endchar
        </CharString>
        <CharString name="notequal">
          -222 62 -21 59 77 158 78 -78 156 hstemhm
          hintmask 11100000
          372 100 -26 callgsubr
          -158 hlineto
          48 158 rlineto
          110 hlineto
          8 5 6 8 hvcurveto
          50 57 callsubr
          -87 hlineto
          20 66 rlineto
          hintmask 11010000
          8 3 -3 4 -8 hhcurveto
          -40 hlineto
          -8 -6 -4 -8 -3 hvcurveto
          hintmask 11100000
          -20 -66 rlineto
          -168 hlineto
          -8 -6 -6 -8 hvcurveto
          -50 vlineto
          -8 6 -6 8 vhcurveto
          145 hlineto
          -48 -158 rlineto
          -97 hlineto
          -41 callsubr
          74 hlineto
          -14 -47 90 callsubr
          41 hlineto
          73 callsubr
          14 47 rlineto
          endchar
        </CharString>
        <CharString name="ntilde">
          83 callsubr
          -7 -20 87 48 15 51 11 -20 -64 callsubr
          -38 38 228 48 -33 82 -82 151 hintmask 1101101000001000
          42 callgsubr
          hintmask 1101101000010000
          -56 258 hlineto
          -15 callsubr
          68 rlineto
          hintmask 1011101000100000
          -97 callgsubr
          -117 -91 callsubr
          hintmask 1101100010100000
          20 callsubr
          hintmask 1101101000100000
          -105 callsubr
          191 hlineto
          hintmask 1101100100100000
          -101 callgsubr
          hintmask 1101011000010000
          -53 275 hlineto
          1 1 31 84 101 hhcurveto
          74 36 -47 -75 hvcurveto
          -263 vlineto
          -37 callsubr
          -46 684 rmoveto
          hintmask 1101100001100000
          -16 callgsubr
          -83 callgsubr
          hintmask 1101011000100000
          -103 callsubr
          endchar
        </CharString>
        <CharString name="numbersign">
          -33 -7 180 -61 61 126 62 -62 184 hstemhm
          hintmask 10100000
          507 112 45 callsubr
          37 -103 callgsubr
          -81 hlineto
          37 126 rlineto
          98 64 callsubr
          36 -32 callsubr
          -80 hlineto
          31 109 rlineto
          hintmask 10010000
          8 3 -3 5 -8 hhcurveto
          -49 77 callgsubr
          -131 hlineto
          32 109 rlineto
          hintmask 10010000
          8 2 -2 5 -8 hhcurveto
          -50 77 callgsubr
          -97 hlineto
          -8 -4 -3 callgsubr
          -36 vlineto
          47 callgsubr
          79 hlineto
          -36 -126 rlineto
          -97 -56 callgsubr
          -37 vlineto
          hintmask 01100000
          -8 5 -86 callsubr
          80 hlineto
          -31 -107 rlineto
          hintmask 10100000
          -8 -2 3 -4 8 hhcurveto
          49 hlineto
          8 60 callgsubr
          hintmask 01100000
          31 107 rlineto
          130 hlineto
          -30 -107 rlineto
          hintmask 10100000
          -8 -3 4 -4 8 hhcurveto
          49 hlineto
          73 callsubr
          hintmask 01100000
          31 107 rlineto
          -57 61 rmoveto
          -130 hlineto
          36 126 rlineto
          131 hlineto
          endchar
        </CharString>
        <CharString name="o">
          -70 -7 30 callsubr
          -29 callsubr
          endchar
        </CharString>
        <CharString name="oacute">
          -70 -7 30 callsubr
          430 706 -107 callsubr
          25 -579 -87 callsubr
          endchar
        </CharString>
        <CharString name="obreve">
          73 callgsubr
          64 59 callgsubr
          38 84 29 93 callsubr
          22 83 hintmask 11011111
          -29 callsubr
          99 652 rmoveto
          -26 callsubr
          hintmask 11101111
          -11 callsubr
          vhcurveto
          hintmask 11011111
          -74 callsubr
        </CharString>
        <CharString name="ocircumflex">
          73 callgsubr
          264 -20 hstem
          96 callsubr
          83 vstem
          460 -84 callsubr
          -148 -582 -87 callsubr
          endchar
        </CharString>
        <CharString name="odieresis">
          73 callgsubr
          57 85 hstem
          38 84 46 85 73 85 42 83 vstem
          253 -38 callsubr
          -124 -605 -87 callsubr
          endchar
        </CharString>
        <CharString name="oe">
          309 -7 70 173 60 133 70 hstem
          96 callsubr
          86 291 83 vstem
          700 -7 rmoveto
          131 30 callgsubr
          -27 27 rcurveline
          -7 5 -6 -1 -5 -7 rrcurveto
          -23 -14 -59 -54 -86 hhcurveto
          -79 -82 56 117 -5 hvcurveto
          360 hlineto
          8 6 6 8 hvcurveto
          154 2 -82 95 -143 hhcurveto
          -80 -75 -41 -75 -40 hvcurveto
          73 -40 -78 43 -89 hhcurveto
          -139 -111 -93 -158 -157 107 -98 142 91 78 43 76 40 hvcurveto
          -77 39 76 -42 89 hhcurveto
          -413 70 rmoveto
          -89 -76 71 113 114 79 68 87 86 79 -68 -115 -113 -76 -70 -90 hvcurveto
          254 233 rmoveto
          97 13 69 40 69 hhcurveto
          86 48 -55 -82 4 hvcurveto
          endchar
        </CharString>
        <CharString name="ogonek">
          -416 -161 45 -45 165 hstemhm
          35 52 hintmask 10100000
          182 -107 rmoveto
          -48 callsubr
          hvcurveto
          hintmask 01100000
          51 72 32 6 3 vhcurveto
          -43 hlineto
          -19 -68 -30 -62 -43 31 -30 48 40 26 19 5 7 hvcurveto
          48 callsubr
          rrcurveto
          endchar
        </CharString>
        <CharString name="ograve">
          -70 -7 30 callsubr
          -29 callsubr
          65 541 -100 callsubr
        </CharString>
        <CharString name="ohungarumlaut">
          -70 -7 30 callsubr
          322 715 -78 callgsubr
          -39 -588 -87 callsubr
          endchar
        </CharString>
        <CharString name="omacron">
          73 callgsubr
          55 69 hstem
          96 callsubr
          83 vstem
          436 554 -76 callsubr
          147 -561 -87 callsubr
          endchar
        </CharString>
        <CharString name="one">
          -137 0 75 643 -20 hstem
          225 87 vstem
          458 12 callsubr
          -146 631 -23 callsubr
          -63 hlineto
          -7 -4 -2 -5 -7 hvcurveto
          -174 -125 -7 -5 -1 -6 5 -6 rlinecurve
          28 -41 5 -7 6 0 6 4 rlinecurve
          138 99 rlineto
          -549 -162 vlineto
          -63 callgsubr
          endchar
        </CharString>
        <CharString name="onehalf">
          58 -53 -21 74 48 263 51 0 96 callgsubr
          202 57 143 57 hintmask 1110111110000000
          238 -74 rmoveto
          8 -40 callsubr
          3 -4 8 hhcurveto
          476 74 rmoveto
          6 4 3 7 hvcurveto
          73 vlineto
          5 -2 3 -6 vhcurveto
          -35 hlineto
          -5 -3 -2 -6 hvcurveto
          -35 -151 vlineto
          9 87 187 -12 132 vvcurveto
          57 -41 50 -83 -91 -39 -57 -56 -5 3 -3 5 vhcurveto
          39 hlineto
          4 3 2 6 40 27 22 49 41 26 -21 -38 -102 -199 28 -1 -147 hvcurveto
          -21 vlineto
          -7 4 -3 6 vhcurveto
          -150 362 rmoveto
          6 4 3 7 hvcurveto
          29 vlineto
          hintmask 1101111110000000
          -1 callgsubr
        </CharString>
        <CharString name="onethird">
          53 -53 -21 70 50 118 43 103 51 1 96 callgsubr
          219 240 -67 67 hintmask 1111111110000000
          238 -74 rmoveto
          8 -40 callsubr
          3 -4 8 hhcurveto
          348 70 rmoveto
          79 53 41 61 67 -51 20 -18 3 hvcurveto
          15 2 43 26 50 vvcurveto
          42 -33 53 -86 -67 -43 -39 -57 -5 2 -3 4 vhcurveto
          39 hlineto
          4 2 3 5 24 23 21 36 hvcurveto
          hintmask 1111111101000000
          42 21 -20 -29 -41 -40 -13 -28 hvcurveto
          -14 hlineto
          -5 -3 -2 -5 hvcurveto
          -29 vlineto
          -5 3 -2 5 vhcurveto
          18 hlineto
          48 27 -22 -38 -37 -24 -21 -52 -51 -22 25 15 -15 hvcurveto
          -3 3 -2 0 -3 -3 -26 -24 rcurveline
          -3 -2 0 -3 3 -3 rrcurveto
          -8 7 32 -50 83 hhcurveto
          -265 366 rmoveto
          6 4 3 7 hvcurveto
          29 vlineto
          -1 callgsubr
        </CharString>
        <CharString name="ordfeminine">
          -317 471 41 76 31 63 42 hstem
          38 50 120 47 vstem
          125 471 rmoveto
          50 26 27 11 11 hvcurveto
          1 -13 hlineto
          -16 7 -5 15 vhcurveto
          49 hlineto
          3 2 2 4 hvcurveto
          28 vlineto
          3 -2 2 -3 vhcurveto
          -29 106 hlineto
          66 -31 38 -73 -66 -28 -33 0 vhcurveto
          -2 -1 0 -3 2 -3 16 -21 rcurveline
          2 -3 3 0 2 1 rrcurveto
          2 20 21 47 hhcurveto
          51 8 -23 -37 hvcurveto
          -3 -59 vlineto
          -71 -40 -25 -48 -49 40 -26 47 hvcurveto
          12 41 rmoveto
          -30 -19 15 24 25 18 12 46 hvcurveto
          56 -44 hlineto
          -15 -13 -23 -17 -35 hhcurveto
          endchar
        </CharString>
        <CharString name="ordmasculine">
          -328 471 42 170 41 hstem
          38 43 155 43 vstem
          159 471 rmoveto
          65 55 50 78 79 -56 46 -64 -64 -57 -45 -80 -79 56 -49 65 hvcurveto
          42 vmoveto
          -41 -37 30 55 55 40 30 38 38 39 -29 -56 -56 -36 -29 -41 hvcurveto
          endchar
        </CharString>
        <CharString name="oslash">
          -70 -8 -21 22 33 callgsubr
          11 -20 hstemhm
          96 callsubr
          83 hintmask 11011100
          7 callgsubr
          hintmask 11101100
          -13 callgsubr
          endchar
        </CharString>
        <CharString name="oslashacute">
          -70 -8 -21 22 30 callsubr
          7 callgsubr
          -13 callgsubr
          179 633 -71 callgsubr
        </CharString>
        <CharString name="otilde">
          73 callgsubr
          60 90 callgsubr
          84 16 48 218 48 1 83 hintmask 1110111110000000
          -29 callsubr
          129 621 rmoveto
          -16 callgsubr
          hintmask 1111011110000000
          -83 callgsubr
          hintmask 1110111110000000
          -103 callsubr
          endchar
        </CharString>
        <CharString name="p">
          77 callsubr
          40 147 -147 225 -158 80 305 82 hintmask 11100101
          252 -225 12 callgsubr
          hintmask 11101001
          -65 203 hlineto
          14 -3 32 0 vhcurveto
          3 62 callgsubr
          -90 -54 -51 -47 -22 hvcurveto
          -1 hlineto
          1 79 rlineto
          hintmask 11011001
          -97 callgsubr
          -117 -91 callsubr
          hintmask 11100011
          54 -583 -56 -91 callsubr
          287 288 rmoveto
          -77 -76 62 113 132 77 59 76 78 callsubr
        </CharString>
        <CharString name="paragraph">
          18 -57 -21 721 75 hstem
          323 87 72 87 vstem
          557 -78 rmoveto
          -7 callgsubr
          709 44 vlineto
          -74 callgsubr
          -340 hlineto
          -134 -101 -81 -164 -164 101 -73 144 hvcurveto
          40 -302 hlineto
          -8 5 -86 callsubr
          62 hlineto
          32 callgsubr
          709 72 -709 72 callgsubr
          endchar
        </CharString>
        <CharString name="parenleft">
          -233 -66 77 677 77 hstem
          38 83 vstem
          373 -2 rmoveto
          -36 callsubr
          -103 -136 99 238 234 133 106 106 9 4 5 8 vhcurveto
          17 callsubr
          -150 -172 -128 -286 -288 172 -129 150 -34 callsubr
          vhcurveto
          endchar
        </CharString>
        <CharString name="parenright">
          -233 -67 78 676 77 hstem
          291 82 vstem
          38 -53 rmoveto
          -8 6 -6 8 150 171 130 287 287 -171 127 -150 -8 -6 -5 -8 vhcurveto
          -51 vlineto
          -7 5 -6 9 106 133 -106 -234 -238 -136 -98 -103 -8 -6 -6 -8 vhcurveto
          endchar
        </CharString>
        <CharString name="percent">
          108 -53 -21 67 55 255 55 1 55 255 55 36 -20 hstem
          38 60 170 59 99 60 169 -22 callgsubr
          -295 -122 89 callgsubr
          243 810 rlineto
          8 2 -3 4 -8 hhcurveto
          -59 hlineto
          -8 -6 -4 -8 -2 hvcurveto
          -243 -810 90 callsubr
          endchar
        </CharString>
        <CharString name="period">
          -494 -7 94 hstem
          28 95 vstem
          123 40 36 callsubr
          endchar
        </CharString>
        <CharString name="periodcentered">
          -494 243 94 hstem
          28 95 vstem
          123 290 36 callsubr
          endchar
        </CharString>
        <CharString name="perthousand">
          440 -53 -21 67 55 255 55 1 55 255 55 36 -20 hstem
          38 60 170 59 99 60 169 60 43 59 170 -22 callgsubr
          332 -55 rmoveto
          92 52 75 110 104 -54 76 -90 -91 -54 -76 -104 -110 53 -75 92 hvcurveto
          55 vmoveto
          -54 -32 47 81 81 32 46 54 53 31 -45 -82 -82 -31 -46 -53 hvcurveto
          -627 -122 rmoveto
          7 -40 callsubr
          4 -4 7 hhcurveto
          endchar
        </CharString>
        <CharString name="plus">
          -244 117 -21 120 77 122 -20 hstem
          161 82 vstem
          231 96 rmoveto
          7 5 -28 callgsubr
          107 106 vlineto
          54 callsubr
          -106 110 -23 callsubr
          -58 hlineto
          -8 -4 -38 callgsubr
          -110 -109 vlineto
          -41 callsubr
          109 -107 hlineto
          -8 5 -5 7 vhcurveto
          endchar
        </CharString>
        <CharString name="plusminus">
          -244 91 77 161 77 122 -20 hstem
          161 82 vstem
          349 329 -26 callgsubr
          -106 110 -23 callsubr
          -58 hlineto
          -8 -4 -38 callgsubr
          -110 -109 vlineto
          -41 callsubr
          109 -107 hlineto
          -8 5 -5 7 vhcurveto
          58 hlineto
          7 5 -28 callgsubr
          107 vlineto
          106 -238 -26 callgsubr
          -297 hlineto
          -41 callsubr
          endchar
        </CharString>
        <CharString name="q">
          77 callsubr
          38 82 306 80 hintmask 11011100
          562 -225 rmoveto
          8 4 -95 callsubr
          -56 638 hlineto
          32 callsubr
          -52 hlineto
          -7 13 callgsubr
          1 -78 rlineto
          -2 hlineto
          hintmask 11101100
          47 -22 -54 50 -90 hhcurveto
          -132 -93 -97 -155 -148 88 -106 137 89 53 54 48 21 hvcurveto
          3 hlineto
          0 -3 -32 -13 vvcurveto
          -208 -65 vlineto
          -105 callsubr
          -86 288 rmoveto
          -88 -67 72 111 113 68 70 87 83 69 -66 -117 -114 -68 -69 -84 hvcurveto
          endchar
        </CharString>
        <CharString name="question">
          -63 -49 106 430 237 -80 80 hstemhm
          38 88 95 95 137 91 hintmask 11011100
          303 127 rmoveto
          21 callgsubr
          188 228 -12 205 vvcurveto
          113 -90 91 -165 -183 -68 -113 -112 -8 5 -4 8 vhcurveto
          63 2 callgsubr
          hintmask 10111100
          81 1 48 64 114 hhcurveto
          103 61 -53 -78 hvcurveto
          -141 -232 -4 -229 vvcurveto
          -8 4 -4 9 vhcurveto
          88 -123 34 callgsubr
        </CharString>
        <CharString name="questiondown">
          -63 -274 80 -80 237 430 106 hstemhm
          38 91 137 95 95 88 hintmask 01111100
          468 -37 rmoveto
          -7 13 callgsubr
          hintmask 10111100
          -81 -1 -48 -64 -114 hhcurveto
          -103 -61 54 77 hvcurveto
          141 232 4 229 vvcurveto
          -97 callgsubr
          -69 -56 callgsubr
          -188 -228 12 -205 vvcurveto
          -113 90 -91 165 182 69 113 112 vhcurveto
          hintmask 01111100
          -97 callgsubr
          -165 483 rmoveto
          30 -24 23 -29 -30 -23 -23 -30 -30 23 -23 30 29 24 23 30 vhcurveto
          endchar
        </CharString>
        <CharString name="quotedbl">
          -367 561 189 hstem
          40 65 67 65 vstem
          90 561 -32 callgsubr
          5 163 rlineto
          8 1 -6 5 -8 hhcurveto
          -43 18 callsubr
          5 -163 rlineto
          -20 callgsubr
          166 hmoveto
          -53 callsubr
          5 163 rlineto
          8 1 -6 5 -8 hhcurveto
          -44 48 callgsubr
          5 -163 rlineto
          0 callgsubr
        </CharString>
        <CharString name="quotedblbase">
          -315 -95 28 60 93 hstemhm
          38 103 -39 39 48 102 -38 38 hintmask 11101000
          55 -90 rmoveto
          -3 81 callgsubr
          29 36 callgsubr
          150 -17 rmoveto
          -3 3 -2 4 43 36 29 79 47 -21 26 -34 -26 -21 -20 -27 56 callsubr
          hintmask 11100100
          41 callgsubr
        </CharString>
        <CharString name="quotedblleft">
          -304 594 93 60 29 hstemhm
          38 38 -38 103 60 38 -38 102 hintmask 11100100
          287 770 rmoveto
          4 -3 2 -4 -43 -36 -30 -79 -47 21 -26 34 26 21 20 27 28 -20 18 -23 -14 -5 -5 0 vhcurveto
          hintmask 11011000
          28 callgsubr
          -163 17 39 callgsubr
          28 -20 18 -24 -13 -6 -5 0 vhcurveto
          hintmask 11101000
          28 callgsubr
          endchar
        </CharString>
        <CharString name="quotedblright">
          -304 561 29 60 93 hstemhm
          38 103 -39 39 60 102 -38 38 hintmask 11101000
          55 567 rmoveto
          -4 3 -2 3 43 37 30 36 callgsubr
          162 -17 rmoveto
          -4 3 -2 4 43 36 30 79 47 -21 26 -34 -26 -21 -20 -27 56 callsubr
          hintmask 11100100
          41 callgsubr
        </CharString>
        <CharString name="quoteleft">
          -466 594 93 -93 182 hstemhm
          38 38 -38 103 hintmask 01010000
          124 770 39 callgsubr
          vhcurveto
          hintmask 10100000
          28 -20 18 -24 -13 -6 -5 0 vhcurveto
          28 callgsubr
          endchar
        </CharString>
        <CharString name="quoteright">
          -466 561 182 -93 93 hstemhm
          38 103 -39 39 hintmask 10100000
          55 26 callsubr
          hintmask 01010000
          -45 callgsubr
          endchar
        </CharString>
        <CharString name="quotesinglbase">
          -466 -95 181 -93 93 hstemhm
          38 103 -39 39 hintmask 10100000
          55 -90 rmoveto
          -3 81 callgsubr
          29 39 callsubr
          hintmask 01010000
          -45 callgsubr
          endchar
        </CharString>
        <CharString name="quotesingle">
          -498 582 -21 189 -20 hstem
          40 65 vstem
          90 561 -32 callgsubr
          5 163 rlineto
          -49 callgsubr
          -43 18 callsubr
          5 -163 rlineto
          0 callgsubr
        </CharString>
        <CharString name="r">
          -224 0 38 callsubr
          hintmask 11001000
          242 hmoveto
          -61 callsubr
        </CharString>
        <CharString name="racute">
          -224 0 38 callsubr
          hintmask 11001000
          364 706 -107 callsubr
          46 -572 rmoveto
          -61 callsubr
        </CharString>
        <CharString name="rcaron">
          -210 0 67 348 79 -2 -20 hstemhm
          52 -59 callgsubr
          hintmask 11001000
          377 -83 callsubr
          34 -578 rmoveto
          -61 callsubr
        </CharString>
        <CharString name="rcommaaccent">
          -224 2 callsubr
          46 38 callsubr
          -23 38 hintmask 1011000010000000
          118 -68 callsubr
          hintmask 0111000010000000
          -77 callgsubr
          124 205 rmoveto
          hintmask 1011001000000000
          -101 callgsubr
          hintmask 1011010000000000
          -53 168 hlineto
          86 67 94 121 vhcurveto
          21 64 callsubr
          53 vlineto
          -36 callsubr
          -181 -33 -139 0 vhcurveto
          -3 125 hlineto
          hintmask 1010110000000000
          -97 callgsubr
          -117 -91 callsubr
          hintmask 1011000100000000
          20 callsubr
          hintmask 1011010000000000
          -35 callgsubr
        </CharString>
        <CharString name="registered">
          25 51 49 79 47 96 43 115 46 70 49 hstem
          38 49 144 49 132 50 121 49 25 callgsubr
          -297 -248 rmoveto
          -137 -111 111 137 137 111 111 137 137 111 -111 -137 -137 -111 -111 -137 hvcurveto
          145 79 rmoveto
          3 2 2 4 hvcurveto
          36 vlineto
          3 -2 2 -3 vhcurveto
          -32 hlineto
          -37 72 -7 12 -5 12 -6 6 rlinecurve
          44 12 25 33 50 vvcurveto
          71 -49 32 -65 vhcurveto
          -148 78 callgsubr
          31 -255 -31 78 callgsubr
          117 hlineto
          4 2 2 4 hvcurveto
          35 vlineto
          3 -2 2 -4 vhcurveto
          -37 97 52 hlineto
          13 5 -7 -15 -54 callsubr
          -99 rlineto
          -12 6 6 -10 13 hhcurveto
          -154 186 rmoveto
          115 65 vlineto
          41 26 -20 -38 -38 -22 -19 -45 hvcurveto
          endchar
        </CharString>
        <CharString name="ring">
          -420 574 116 hstem
          55 115 vstem
          162 603 -72 callgsubr
          endchar
        </CharString>
        <CharString name="s">
          22 callgsubr
          260 -7 -73 callsubr
        </CharString>
        <CharString name="sacute">
          22 callgsubr
          366 706 -107 callsubr
          62 -579 -73 callsubr
        </CharString>
        <CharString name="scaron">
          22 callgsubr
          403 -83 callsubr
          12 -585 -73 callsubr
        </CharString>
        <CharString name="scedilla">
          -159 -156 41 59 114 -65 65 -37 -21 433 66 hstemhm
          42 96 -82 82 139 49 31 66 -66 87 hintmask 1010101101000000
          238 16 callgsubr
          6 18 rlineto
          131 1 51 67 73 168 -306 -59 112 vvcurveto
          51 46 27 49 91 33 -52 -28 vhcurveto
          -14 -16 callsubr
          39 hlineto
          hintmask 1100101110000000
          -79 callsubr
          hintmask 1001110110000000
          -42 callsubr
          7 -15 35 -43 76 -11 -12 -35 rcurveline
          hintmask 1100110110000000
          -48 callgsubr
          61 callsubr
        </CharString>
        <CharString name="scircumflex">
          -159 -7 65 -37 -21 433 66 264 -20 hstemhm
          42 96 -82 82 219 66 -66 87 hintmask 10110101
          400 -84 callsubr
          -115 -582 rmoveto
          133 51 68 73 hvcurveto
          168 -306 -59 112 vvcurveto
          51 46 27 49 91 33 -52 -28 vhcurveto
          -14 -16 callsubr
          39 hlineto
          hintmask 10110110
          -79 callsubr
          hintmask 01111010
          -42 callsubr
          hintmask 10111010
          -17 8 46 -55 103 hhcurveto
          endchar
        </CharString>
        <CharString name="scommaaccent">
          -159 2 callsubr
          39 65 -37 -21 433 66 hstemhm
          42 96 -82 82 62 102 -38 38 55 66 -66 87 hintmask 1010110101000000
          216 -68 callsubr
          hintmask 0110101010100000
          -77 callgsubr
          44 198 rmoveto
          133 51 68 73 hvcurveto
          168 -306 -59 112 vvcurveto
          51 46 27 49 91 33 -52 -28 vhcurveto
          -14 -16 callsubr
          39 hlineto
          hintmask 1010101101000000
          -79 callsubr
          hintmask 1001110101000000
          -42 callsubr
          hintmask 1010110101000000
          -17 8 46 -55 103 hhcurveto
          endchar
        </CharString>
        <CharString name="section">
          1 -231 81 627 247 -82 82 -5 -20 hstemhm
          38 67 callgsubr
          328 87 -67 104 hintmask 1010001010000000
          107 -224 rmoveto
          8 5 4 8 -1 hvcurveto
          -2 97 rlineto
          2 hlineto
          -41 25 74 -75 139 hhcurveto
          177 74 94 108 45 -15 33 -25 26 hvcurveto
          28 33 12 42 45 246 -452 -98 187 vvcurveto
          64 57 48 90 vhcurveto
          hintmask 1100100100000000
          138 43 -88 -40 hvcurveto
          -25 vlineto
          52 callsubr
          4 4 31 callsubr
          hintmask 1001100100000000
          8 -4 -45 callsubr
          hvcurveto
          2 -62 rlineto
          hintmask 1100010010000000
          44 -35 -60 35 -103 hhcurveto
          -146 -88 -85 -109 -48 15 -35 24 -27 hvcurveto
          -26 -32 -13 -39 -43 -257 444 98 -176 vvcurveto
          -78 -62 -43 -102 -159 -54 132 18 -1 vhcurveto
          22 vlineto
          32 callsubr
          -63 hlineto
          hintmask 1100100100000000
          -50 callgsubr
          -234 63 callsubr
          8 vhcurveto
          429 348 rmoveto
          hintmask 1100001010000000
          -118 63 -206 -9 128 vvcurveto
          24 8 21 16 18 vhcurveto
          118 -66 206 14 -122 vvcurveto
          -29 -8 -23 -16 -19 vhcurveto
          endchar
        </CharString>
        <CharString name="semicolon">
          -466 -95 181 -93 93 307 95 hstemhm
          39 102 -39 39 hintmask 10110000
          134 440 rmoveto
          66 callsubr
          -79 -530 rmoveto
          -3 81 callgsubr
          29 39 callsubr
          hintmask 01101000
          -45 callgsubr
          endchar
        </CharString>
        <CharString name="seven">
          -47 21 -21 565 159 -75 75 hstemhm
          38 88 100 88 149 96 hintmask 11011100
          301 hmoveto
          8 5 4 9 410 244 -10 1 266 hvcurveto
          33 -103 callgsubr
          -496 -56 callgsubr
          -135 vlineto
          -8 5 -4 8 vhcurveto
          63 2 callgsubr
          hintmask 10111100
          72 337 vlineto
          -6 -216 -231 17 -438 vvcurveto
          -81 callsubr
          endchar
        </CharString>
        <CharString name="six">
          -32 86 callsubr
          38 93 331 86 -63 90 hintmask 11011100
          535 523 rmoveto
          8 5 4 8 111 -86 78 -135 -192 -97 -148 -223 -214 98 -146 178 hvcurveto
          hintmask 11011010
          161 100 102 136 137 -85 94 -161 -97 -63 -29 -22 -35 hvcurveto
          147 12 65 87 116 hhcurveto
          hintmask 11101100
          97 38 -65 -45 -8 -70 callsubr
          hvcurveto
          -344 -184 rmoveto
          18 27 60 37 93 hhcurveto
          hintmask 11101010
          108 66 -64 -95 -94 -64 -67 -108 -113 -66 95 170 -3 hvcurveto
          endchar
        </CharString>
        <CharString name="slash">
          -240 -53 -21 834 -20 hstem
          108 -74 rmoveto
          7 -40 callsubr
          4 -4 7 hhcurveto
          endchar
        </CharString>
        <CharString name="space">
          -332 endchar
        </CharString>
        <CharString name="sterling">
          -47 0 75 221 61 133 234 -78 78 hstemhm
          79 91 1 91 207 87 hintmask 11011110
          548 12 callsubr
          -377 hlineto
          42 34 49 60 69 vvcurveto
          20 -4 21 -5 17 vhcurveto
          161 hlineto
          21 callgsubr
          37 -102 callgsubr
          -190 hlineto
          -26 43 -28 36 58 vvcurveto
          109 78 43 84 85 52 -55 -72 vhcurveto
          -17 vlineto
          hintmask 11101110
          -8 5 -86 callsubr
          61 hlineto
          21 callgsubr
          16 vlineto
          128 -88 78 -136 -147 -106 -87 -137 -64 22 -40 23 -39 vhcurveto
          -73 -56 callgsubr
          -37 63 callsubr
          8 vhcurveto
          108 hlineto
          7 -18 5 -19 -23 vvcurveto
          -90 -89 -47 -23 -17 vhcurveto
          -8 -5 -3 -5 -12 vvcurveto
          -48 72 callgsubr
          endchar
        </CharString>
        <CharString name="t">
          -244 -7 71 361 67 115 -20 hstem
          108 83 vstem
          348 82 -58 callsubr
        </CharString>
        <CharString name="tbar">
          -217 -7 71 361 67 29 38 48 -20 hstem
          136 83 vstem
          375 82 rmoveto
          -5 6 -6 1 -7 -6 rrcurveto
          -4 -4 -19 -15 -30 hhcurveto
          -54 -31 34 67 hvcurveto
          260 126 82 callsubr
          41 vlineto
          8 -6 5 -8 vhcurveto
          -126 29 73 hlineto
          55 callgsubr
          -73 34 hlineto
          8 -6 6 -8 vhcurveto
          -56 74 callgsubr
          -34 -54 vlineto
          -7 -4 -4 -7 hvcurveto
          -16 83 callgsubr
          54 -29 -57 hlineto
          53 callsubr
          57 -262 hlineto
          -113 60 -57 100 59 33 31 8 9 vhcurveto
          6 6 2 7 -6 6 rrcurveto
          endchar
        </CharString>
        <CharString name="tcaron">
          -244 -7 71 361 67 49 182 -93 93 hstemhm
          108 83 32 103 -39 39 hintmask 11101100
          240 547 rmoveto
          -4 81 callgsubr
          30 39 callsubr
          hintmask 11011010
          -45 callgsubr
          108 -482 -58 callsubr
        </CharString>
        <CharString name="tcommaaccent">
          -244 2 callsubr
          39 71 361 67 115 -20 hstemhm
          108 83 -31 102 -38 38 hintmask 10111010
          176 -68 callsubr
          hintmask 01111101
          -77 callgsubr
          172 287 -58 callsubr
        </CharString>
        <CharString name="thorn">
          -32 -226 68 151 33 callgsubr
          151 67 hstemhm
          40 150 -150 225 -158 83 302 82 hintmask 11110101
          252 -226 -19 callgsubr
          5 -8 vhcurveto
          -65 213 hlineto
          14 -2 22 0 vhcurveto
          2 62 callgsubr
          hvcurveto
          hintmask 11111001
          -78 -54 -39 -53 -27 hvcurveto
          298 -102 callgsubr
          -124 -91 callsubr
          hintmask 11110011
          54 -808 -56 48 callgsubr
          -42 vlineto
          -20 callgsubr
          287 289 rmoveto
          -85 -68 69 114 117 69 66 84 78 callsubr
        </CharString>
        <CharString name="three">
          -55 -7 81 263 40 -40 71 108 208 -80 80 hstemhm
          71 85 282 91 -68 90 hintmask 11010110
          407 378 rmoveto
          25 97 48 107 85 -66 106 -172 -134 -86 -77 -119 -8 4 -4 8 hvcurveto
          61 2 callgsubr
          hintmask 10101110
          53 39 63 96 103 44 -56 -63 -99 -101 -18 -56 vhcurveto
          -32 hlineto
          -8 -4 -3 callgsubr
          -45 vlineto
          -8 5 -5 7 vhcurveto
          40 hlineto
          hintmask 11010101
          109 63 -41 -86 -82 -68 -54 -107 -109 -44 53 callgsubr
          65 -102 165 hhcurveto
          159 106 82 124 141 -113 37 -31 hvcurveto
          endchar
        </CharString>
        <CharString name="tilde">
          -261 559 48 -33 -21 69 82 callgsubr
          35 48 218 48 hintmask 10011100
          313 684 rmoveto
          -16 callgsubr
          hintmask 01101100
          1 -48 -21 65 -69 hhcurveto
          -59 -27 -42 -66 -8 4 -4 8 hvcurveto
          24 hlineto
          8 4 4 8 45 14 12 27 hvcurveto
          hintmask 10011100
          46 17 -63 75 hhcurveto
          62 25 42 71 -92 callsubr
          hvcurveto
          endchar
        </CharString>
        <CharString name="trademark">
          390 288 54 260 116 -54 54 hstemhm
          38 55 111 64 108 55 112 61 279 62 hintmask 10111111
          313 288 rmoveto
          4 4 3 5 hvcurveto
          38 vlineto
          5 -4 3 -4 vhcurveto
          -45 322 108 -54 hlineto
          hintmask 11011111
          -5 4 -3 4 vhcurveto
          39 hlineto
          5 3 3 5 hvcurveto
          101 vlineto
          4 -3 3 -5 vhcurveto
          -376 hlineto
          -5 -4 -3 -4 hvcurveto
          -101 vlineto
          -5 4 -3 5 vhcurveto
          38 hlineto
          5 3 3 5 hvcurveto
          hintmask 10111111
          54 111 -322 -46 vlineto
          -5 -3 -3 -5 hvcurveto
          -38 vlineto
          -5 3 -3 5 vhcurveto
          831 hmoveto
          5 3 3 4 hvcurveto
          40 vlineto
          4 -3 3 -5 vhcurveto
          -44 322 44 hlineto
          5 3 3 4 hvcurveto
          40 vlineto
          5 -3 2 -5 vhcurveto
          -104 hlineto
          -15 -9 -7 -13 -5 hvcurveto
          -86 -214 rlineto
          -11 -28 -14 -44 0 vvcurveto
          -2 hlineto
          0 -15 46 -10 26 vhcurveto
          -87 214 rlineto
          13 -5 -9 7 -15 hhcurveto
          -103 hlineto
          -4 -3 -2 -5 79 callsubr
          44 -322 -44 hlineto
          -4 -3 -3 -4 79 callsubr
          144 hlineto
          4 3 3 4 hvcurveto
          40 vlineto
          4 -2 3 -5 vhcurveto
          -39 287 2 hlineto
          112 -280 rlineto
          -13 4 9 -6 12 hhcurveto
          13 9 6 13 5 hvcurveto
          112 280 rlineto
          1 -287 -39 hlineto
          -4 -3 -3 -4 79 callsubr
          endchar
        </CharString>
        <CharString name="two">
          -43 0 75 -75 159 328 237 -80 80 hstemhm
          38 98 326 90 -76 76 -76 88 hintmask 01101001
          551 hmoveto
          21 callgsubr
          135 -102 callgsubr
          -63 hlineto
          -7 13 callgsubr
          hintmask 10101010
          -72 -340 vlineto
          14 195 402 -17 258 vvcurveto
          111 -87 102 -161 -182 -77 -113 -112 24 callgsubr
          7 vhcurveto
          65 hlineto
          21 callgsubr
          hintmask 01011100
          79 53 66 116 94 64 -64 -75 vhcurveto
          -204 -424 40 -298 vvcurveto
          -31 vlineto
          -8 5 -19 callsubr
        </CharString>
        <CharString name="u">
          -25 callsubr
          557 hmoveto
          -31 callsubr
        </CharString>
        <CharString name="uacute">
          -25 callsubr
          396 706 -107 callsubr
          329 -572 rmoveto
          -31 callsubr
        </CharString>
        <CharString name="ubreve">
          52 callgsubr
          71 59 callgsubr
          25 151 -82 82 -31 58 150 148 -134 58 -6 82 -82 151 hintmask 0111010000010000
          43 callgsubr
          hintmask 1011010010000000
          -66 callgsubr
          hintmask 1011010000100000
          -91 callgsubr
          hintmask 1011001010000000
          -72 callsubr
          -37 hlineto
          hintmask 0110110001000000
          -37 callsubr
          -90 715 rmoveto
          -26 callsubr
          hintmask 1011000110000000
          -11 callsubr
          vhcurveto
          hintmask 1010100101000000
          -74 callsubr
        </CharString>
        <CharString name="ucircumflex">
          52 callgsubr
          271 -20 -28 callsubr
          -82 151 hintmask 0111100010000000
          452 -84 callsubr
          130 -575 12 callgsubr
          hintmask 1011101000000000
          -66 callgsubr
          hintmask 1011100100000000
          -91 callgsubr
          hintmask 1011011000000000
          -72 callsubr
          -37 hlineto
          hintmask 0111101000000000
          -37 callsubr
          endchar
        </CharString>
        <CharString name="udieresis">
          52 callgsubr
          64 85 hstemhm
          25 151 -82 82 -11 85 73 85 -55 148 -82 82 -82 151 hintmask 0111001100100000
          250 -38 callsubr
          149 -598 12 callgsubr
          hintmask 1011100010000000
          -66 callgsubr
          hintmask 1011100101000000
          -91 callgsubr
          hintmask 1011010101000000
          -72 callsubr
          -37 hlineto
          hintmask 0111100101000000
          -37 callsubr
          endchar
        </CharString>
        <CharString name="ugrave">
          -25 callsubr
          557 hmoveto
          -89 callgsubr
          -114 604 -100 callsubr
        </CharString>
        <CharString name="uhungarumlaut">
          -25 callsubr
          557 hmoveto
          -89 callgsubr
          -143 715 -78 callgsubr
          endchar
        </CharString>
        <CharString name="umacron">
          52 callgsubr
          62 69 -28 callsubr
          -82 151 hintmask 0111100010000000
          43 callgsubr
          hintmask 1011101000000000
          -66 callgsubr
          hintmask 1011100100000000
          -91 callgsubr
          hintmask 1011011000000000
          -72 callsubr
          -37 hlineto
          hintmask 0111101000000000
          -37 callsubr
          -35 554 -76 callsubr
          endchar
        </CharString>
        <CharString name="underscore">
          -91 -100 77 hstem
          503 -100 -26 callgsubr
          -451 hlineto
          -41 callsubr
          endchar
        </CharString>
        <CharString name="uogonek">
          -37 -161 45 109 18 callgsubr
          hstemhm
          25 151 -82 82 177 148 -82 54 -54 151 hintmask 1011100010000000
          43 callgsubr
          hintmask 1101101000000000
          -66 callgsubr
          hintmask 1101100100000000
          -91 callgsubr
          hintmask 1101011000000000
          -72 callsubr
          -37 hlineto
          hintmask 1011100100000000
          -37 callsubr
          20 hlineto
          -41 callgsubr
          -9 13 rcurveline
          -48 callsubr
          43 49 29 21 10 hvcurveto
          endchar
        </CharString>
        <CharString name="uring">
          -25 callsubr
          340 603 -72 callgsubr
          240 -623 rmoveto
          -31 callsubr
        </CharString>
        <CharString name="utilde">
          52 callgsubr
          67 31 callgsubr
          25 151 -82 82 -43 43 177 148 -102 48 -28 82 -82 151 hintmask 0111101000001000
          43 callgsubr
          hintmask 1011101001000000
          -66 callgsubr
          hintmask 1011101000010000
          54 -275 hlineto
          -2 -33 -83 -100 -74 -36 47 75 vhcurveto
          263 vlineto
          hintmask 1011100011000000
          31 -14 11 -29 vhcurveto
          -96 hlineto
          hintmask 1011101001000000
          -7 -5 -77 callsubr
          hintmask 1011100101000000
          -72 callsubr
          -37 hlineto
          hintmask 0111011000100000
          -37 callsubr
          -59 684 rmoveto
          -16 callgsubr
          hintmask 1011100010100000
          -83 callgsubr
          hintmask 1011011001000000
          -103 callsubr
          endchar
        </CharString>
        <CharString name="v">
          -57 21 -21 425 67 hstem
          326 hmoveto
          14 4 4 14 5 hvcurveto
          161 407 rlineto
          55 hlineto
          -101 callgsubr
          -186 11 callsubr
          45 hlineto
          -130 -337 rlineto
          -2 hlineto
          -128 337 rlineto
          44 -14 callgsubr
          -4 -38 callgsubr
          -43 63 callsubr
          7 vhcurveto
          56 hlineto
          159 -407 rlineto
          -14 5 3 -4 14 hhcurveto
          endchar
        </CharString>
        <CharString name="w">
          63 callgsubr
          hstem
          576 hmoveto
          -102 callsubr
          endchar
        </CharString>
        <CharString name="wacute">
          63 callgsubr
          hstem
          536 706 -107 callsubr
          208 -572 rmoveto
          -102 callsubr
          endchar
        </CharString>
        <CharString name="wcircumflex">
          63 callgsubr
          271 -20 hstem
          577 -84 callsubr
          24 -575 rmoveto
          -102 callsubr
          endchar
        </CharString>
        <CharString name="wdieresis">
          63 callgsubr
          64 85 hstem
          290 85 73 85 vstem
          375 -38 callsubr
          43 -598 rmoveto
          -102 callsubr
          endchar
        </CharString>
        <CharString name="wgrave">
          63 callgsubr
          hstem
          576 hmoveto
          -102 callsubr
          -33 604 -100 callsubr
        </CharString>
        <CharString name="x">
          -88 60 callsubr
          hstemhm
          22 193 -193 212 89 212 -193 193 hintmask 11101000
          523 51 callsubr
          -44 hlineto
          -146 173 136 185 rlineto
          54 hlineto
          8 4 -95 callsubr
          -169 hlineto
          hintmask 11010100
          -64 callgsubr
          40 hlineto
          -101 -143 -118 143 rlineto
          47 -35 callsubr
          -188 hlineto
          -64 callgsubr
          48 hlineto
          146 -174 -146 -184 rlineto
          -48 11 callsubr
          169 hlineto
          hintmask 11101000
          7 5 -95 callsubr
          -46 hlineto
          110 145 118 -145 rlineto
          -50 11 callsubr
          endchar
        </CharString>
        <CharString name="y">
          -55 57 callgsubr
          hstem
          -95 callgsubr
          endchar
        </CharString>
        <CharString name="y.alt">
          -78 callsubr
          endchar
        </CharString>
        <CharString name="yacute">
          -55 57 callgsubr
          hstem
          -95 callgsubr
          153 695 -71 callgsubr
        </CharString>
        <CharString name="yacute.alt">
          -78 callsubr
          -106 725 -71 callgsubr
        </CharString>
        <CharString name="ycircumflex">
          -55 57 callgsubr
          271 -20 hstem
          -95 callgsubr
          193 593 -88 callgsubr
        </CharString>
        <CharString name="ycircumflex.alt">
          -88 -234 72 155 72 360 67 271 -20 -28 callsubr
          hintmask 11111010
          501 480 rmoveto
          -103 callsubr
          -124 -82 callsubr
          hintmask 11111001
          -91 callgsubr
          hintmask 11110110
          -72 callsubr
          -98 hlineto
          -104 -76 -39 -89 -100 -43 43 7 -9 vhcurveto
          -6 4 -7 1 -5 -6 -25 -37 rcurveline
          -6 -6 3 -7 6 -5 rrcurveto
          -6 8 54 -60 131 hhcurveto
          136 103 67 148 hvcurveto
          -50 623 -88 callgsubr
        </CharString>
        <CharString name="ydieresis">
          -55 57 callgsubr
          64 85 hstem
          180 85 73 85 vstem
          -95 callgsubr
          -9 587 -97 callsubr
          endchar
        </CharString>
        <CharString name="ydieresis.alt">
          -88 -234 72 155 72 360 67 64 85 hstemhm
          25 151 -82 82 -11 85 73 85 -55 148 -82 82 hintmask 1111100010000000
          501 480 rmoveto
          -103 callsubr
          -124 -82 callsubr
          hintmask 1111100101000000
          -91 callgsubr
          hintmask 1111010010000000
          -72 callsubr
          -98 hlineto
          -104 -76 -39 -89 -100 -43 43 7 -9 vhcurveto
          -6 4 -7 1 -5 -6 -25 -37 rcurveline
          -6 -6 3 -7 6 -5 rrcurveto
          -6 8 54 -60 131 hhcurveto
          136 103 67 148 hvcurveto
          hintmask 1111001101000000
          -252 617 -97 callsubr
          endchar
        </CharString>
        <CharString name="yen">
          114 0 75 140 64 76 64 224 75 hstem
          336 87 vstem
          500 -2 callgsubr
          140 119 hlineto
          8 4 -28 callgsubr
          39 -103 callgsubr
          -109 26 hlineto
          30 50 rlineto
          121 hlineto
          8 4 -28 callgsubr
          39 -103 callgsubr
          -80 hlineto
          126 224 rlineto
          69 hlineto
          -80 callgsubr
          -5 4 -7 vhcurveto
          -226 -99 callsubr
          66 hlineto
          -156 -278 rlineto
          -6 hlineto
          -157 278 rlineto
          66 -65 callsubr
          -225 8 callgsubr
          4 -4 9 vhcurveto
          68 hlineto
          126 -224 rlineto
          -84 -56 callgsubr
          -39 vlineto
          -20 callgsubr
          124 hlineto
          29 -50 rlineto
          -26 -113 vlineto
          -8 -4 -38 callgsubr
          -39 vlineto
          -8 5 -5 7 vhcurveto
          125 -140 -77 hlineto
          -34 callgsubr
          endchar
        </CharString>
        <CharString name="ygrave">
          -55 57 callgsubr
          hstem
          -95 callgsubr
          115 593 -100 callsubr
        </CharString>
        <CharString name="ygrave.alt">
          -78 callsubr
          -146 623 -100 callsubr
        </CharString>
        <CharString name="z">
          22 callsubr
          468 hmoveto
          -60 callsubr
        </CharString>
        <CharString name="zacute">
          22 callsubr
          393 706 -107 callsubr
          243 -572 rmoveto
          -60 callsubr
        </CharString>
        <CharString name="zcaron">
          22 callsubr
          430 -83 callsubr
          193 -578 rmoveto
          -60 callsubr
        </CharString>
        <CharString name="zdotaccent">
          -126 0 67 -67 158 178 156 -67 67 74 105 hstemhm
          38 68 109 104 93 69 hintmask 01101111
          468 hmoveto
          21 callgsubr
          134 -102 callgsubr
          -43 -56 callgsubr
          hintmask 10101111
          -79 -275 vlineto
          328 346 rlineto
          9 8 7 10 14 vvcurveto
          35 -102 callgsubr
          -417 -56 callgsubr
          -132 63 callsubr
          8 vhcurveto
          43 hlineto
          32 callgsubr
          hintmask 01011111
          77 271 vlineto
          -324 -338 rlineto
          -9 -9 -6 -6 -19 vvcurveto
          -41 63 callsubr
          8 vhcurveto
          268 618 -52 callgsubr
        </CharString>
        <CharString name="zero">
          9 -7 81 571 79 hstem
          38 93 392 93 vstem
          327 -7 rmoveto
          184 105 151 219 210 -108 151 -181 -181 -108 -151 -210 -220 105 -150 184 hvcurveto
          81 vmoveto
          -122 -74 104 182 178 75 107 121 120 76 -106 -179 -184 -74 -102 -122 hvcurveto
          endchar
        </CharString>
      <CharString index="0">
        rmoveto
        4 6 -1 7 -5 6 -155 135 rcurveline
        4 -4 -2 1 -4 hhcurveto
        -3 -4 -1 -3 -3 hvcurveto
        -155 -136 -6 -5 0 -8 4 -6 rlinecurve
        25 -29 5 -6 8 -1 6 5 rlinecurve
        122 105 124 -105 19 callgsubr
        1 5 6 rlinecurve
        return
      </CharString>
      <CharString index="1">
        768 12 callsubr
        -68 hlineto
        -230 600 rlineto
        30 -11 -14 13 -33 hhcurveto
        -136 -71 callsubr
        54 hlineto
        -215 -568 rlineto
        -33 callgsubr
        225 -65 callsubr
        -70 hlineto
        65 173 rlineto
        279 hlineto
        65 -173 rlineto
        -70 -99 callsubr
        -22 317 rmoveto
        -226 hlineto
        112 297 rlineto
        3 hlineto
        return
      </CharString>
      <CharString index="2">
        -99 callgsubr
        5 -86 callsubr
        return
      </CharString>
      <CharString index="3">
        rmoveto
        -110 -52 -76 -130 -140 -44 82 110 vhcurveto
        377 77 vlineto
        -76 callgsubr
        -374 hlineto
        -183 101 -93 170 169 100 93 183 vhcurveto
        374 77 vlineto
        -90 callsubr
        hlineto
        return
      </CharString>
      <CharString index="4">
        vlineto
        -103 callsubr
        return
      </CharString>
      <CharString index="5">
        vlineto
        -97 callgsubr
        return
      </CharString>
      <CharString index="6">
        21 callgsubr
        43 -102 callgsubr
        return
      </CharString>
      <CharString index="7">
        8 -39 callsubr
        -5 4 -8 vhcurveto
        return
      </CharString>
      <CharString index="8">
        -4 -93 callsubr
        return
      </CharString>
      <CharString index="9">
        -56 232 hlineto
        146 -81 54 -129 -135 -55 -58 -6 -5 vhcurveto
        -6 -5 -1 -5 5 -6 28 -35 rcurveline
        4 -5 6 0 5 2 rrcurveto
        4 41 46 106 hhcurveto
        77 53 -30 -95 hvcurveto
        -12 -84 vlineto
        -158 -110 -45 -114 -87 71 -52 93 121 56 76 25 18 hvcurveto
        2 -51 hlineto
        return
      </CharString>
      <CharString index="10">
        8 -5 -59 callsubr
        return
      </CharString>
      <CharString index="11">
        -80 callgsubr
        -4 4 -8 vhcurveto
        return
      </CharString>
      <CharString index="12">
        247 -63 rmoveto
        -71 -26 -23 -29 -51 hhcurveto
        -31 -17 15 4 -5 hvcurveto
        -7 5 -5 -1 -6 -5 -25 -32 rcurveline
        -5 -6 2 -6 6 -6 rrcurveto
        -8 9 33 -31 59 hhcurveto
        95 36 64 106 39 hvcurveto
        178 489 rlineto
        56 -14 callgsubr
        -4 -38 callgsubr
        -43 vlineto
        -8 4 92 callgsubr
        -120 -339 rlineto
        -2 hlineto
        -129 339 rlineto
        41 hlineto
        -101 callgsubr
        -181 hlineto
        -64 callgsubr
        55 hlineto
        153 -389 rlineto
        -18 7 6 -7 13 hhcurveto
        13 hlineto
        return
      </CharString>
      <CharString index="13">
        rmoveto
        196 151 146 224 228 -166 133 -181 -181 -168 -133 -228 -220 153 -150 196 hvcurveto
        81 vmoveto
        -126 -129 98 188 192 136 93 84 callgsubr
        135 -93 -192 -188 -128 -98 -126 hvcurveto
        return
      </CharString>
      <CharString index="14">
        -4 -99 callgsubr
        return
      </CharString>
      <CharString index="15">
        -81 callgsubr
        8 vhcurveto
        return
      </CharString>
      <CharString index="16">
        54 -275 hlineto
        -2 -33 -83 -100 -74 -36 47 75 vhcurveto
        263 vlineto
        31 -14 11 -29 vhcurveto
        -96 -82 callsubr
        return
      </CharString>
      <CharString index="17">
        -106 callsubr
        76 return
      </CharString>
      <CharString index="18">
        -101 callgsubr
        hintmask 10110100
        -66 callgsubr
        hintmask 10110010
        -91 callgsubr
        hintmask 10101100
        -72 callsubr
        -37 hlineto
        hintmask 01110100
        -37 callsubr
        return
      </CharString>
      <CharString index="19">
        -107 callgsubr
        endchar
      </CharString>
      <CharString index="20">
        939 rmoveto
        5 6 1 7 -4 6 -25 28 rcurveline
        -5 7 -7 0 -7 -5 -124 -105 rcurveline
        -122 105 -7 5 -7 0 -5 -7 rlinecurve
        -25 -28 -4 -6 0 -8 6 -5 rlinecurve
        155 -136 rlineto
        -3 3 4 -1 3 hhcurveto
        4 2 1 4 4 hvcurveto
        return
      </CharString>
      <CharString index="21">
        28 callsubr
        -84 164 -17 32 -13 22 -17 13 rlinecurve
        95 25 52 67 104 vvcurveto
        142 -103 74 -138 vhcurveto
        -39 callgsubr
        253 19 callsubr
        -90 214 127 hlineto
        35 -1 14 -19 14 -30 94 -191 rcurveline
        -30 15 16 -18 29 hhcurveto
        -344 360 rmoveto
        283 128 vlineto
        91 79 -34 -110 -104 -67 -35 -103 hvcurveto
        endchar
      </CharString>
      <CharString index="22">
        hmoveto
        -100 callgsubr
        -77 568 -84 callgsubr
        return
      </CharString>
      <CharString index="23">
        77 hlineto
        8 5 4 8 hvcurveto
        51 vlineto
        8 -5 4 -8 vhcurveto
        -240 -104 callsubr
        return
      </CharString>
      <CharString index="24">
        1 -48 -21 65 -69 hhcurveto
        -59 -27 -42 -66 -8 4 -4 8 hvcurveto
        24 hlineto
        8 4 4 8 45 14 12 27 hvcurveto
        46 17 -63 75 hhcurveto
        62 25 42 71 hvcurveto
        return
      </CharString>
      <CharString index="25">
        47 -22 -54 51 -90 hhcurveto
        -132 -93 -98 -154 -148 88 -106 137 89 53 53 49 21 hvcurveto
        -114 vlineto
        -104 -70 -39 -89 -100 -43 43 7 -10 vhcurveto
        -6 4 -7 1 -4 -6 -26 -37 rcurveline
        -5 -6 3 -7 5 -5 rrcurveto
        -6 8 55 -60 131 hhcurveto
        7 297 -75 callsubr
        return
      </CharString>
      <CharString index="26">
        -99 callgsubr
        4 -4 return
      </CharString>
      <CharString index="27">
        8 4 -80 callsubr
        return
      </CharString>
      <CharString index="28">
        -53 callgsubr
        hintmask 10101110
        -98 -301 245 253 -27 callsubr
        -253 248 302 -98 hlineto
        hintmask 10110110
        -70 callgsubr
        hintmask 01101110
        -8 5 -86 callsubr
        76 -568 -76 -106 callsubr
        return
      </CharString>
      <CharString index="29">
        92 callsubr
        -5 7 -31 38 rcurveline
        -6 6 -8 1 -5 -6 -161 -141 rcurveline
        -7 -5 0 -8 5 -6 25 -29 rcurveline
        5 -7 7 0 7 4 rrcurveto
        340 134 92 callsubr
        -4 7 -32 38 rcurveline
        -5 6 -8 1 -6 -6 -161 -141 rcurveline
        -7 -5 0 -8 5 -6 25 -29 rcurveline
        6 -7 7 0 6 4 rrcurveto
        return
      </CharString>
      <CharString index="30">
        -28 20 -19 23 14 5 5 0 vhcurveto
        0 2 -3 -8 -36 callgsubr
        return
      </CharString>
      <CharString index="31">
        -100 callgsubr
        -240 -90 callgsubr
        return
      </CharString>
      <CharString index="32">
        32 callgsubr
        -1 98 rlineto
        hintmask 1001000100100000
        -42 26 74 -75 139 hhcurveto
        177 74 94 108 hvcurveto
        246 -452 -85 174 vvcurveto
        64 57 48 90 vhcurveto
        hintmask 1010010010000000
        -30 callsubr
        hintmask 1000110010000000
        8 -4 -45 callsubr
        hvcurveto
        2 -62 rlineto
        hintmask 1010001001000000
        -62 callsubr
        hintmask 0110010010000000
        -26 callsubr
        -234 vlineto
        -8 4 -4 9 vhcurveto
        endchar
      </CharString>
      <CharString index="33">
        7 -39 callsubr
        -4 4 -8 vhcurveto
        return
      </CharString>
      <CharString index="34">
        114 20 callgsubr
        hstem
        336 87 vstem
        500 hmoveto
        8 4 4 8 hvcurveto
        51 vlineto
        8 -4 4 -8 vhcurveto
        -88 callsubr
        -34 callgsubr
        return
      </CharString>
      <CharString index="35">
        rmoveto
        16 27 -10 36 -27 16 -27 16 -35 -10 -16 -27 -16 -27 10 -36 27 -16 27 -16 35 10 16 27 rrcurveto
        -23 20 rmoveto
        -5 -16 -15 -7 -15 5 -16 5 -8 16 5 15 5 16 16 7 15 -5 15 -5 9 -16 -6 -15 rrcurveto
        return
      </CharString>
      <CharString index="36">
        -107 callsubr
        endchar
      </CharString>
      <CharString index="37">
        47 callgsubr
        54 hlineto
        8 5 5 -18 callsubr
        -531 hlineto
        -9 -4 -38 callgsubr
        -51 vlineto
        return
      </CharString>
      <CharString index="38">
        3 callsubr
        -56 258 hlineto
        -15 callsubr
        68 rlineto
        hintmask 10110010
        -97 callgsubr
        -117 -91 callsubr
        hintmask 11000110
        20 callsubr
        hintmask 11010010
        -105 callsubr
        191 hlineto
        hintmask 11001010
        3 callsubr
        -53 275 hlineto
        1 1 31 84 101 hhcurveto
        74 36 -47 -75 hvcurveto
        68 callsubr
      </CharString>
      <CharString index="39">
        8 -4 4 return
      </CharString>
      <CharString index="40">
        rmoveto
        -56 callsubr
        hintmask 11001100
        -7 callsubr
        hintmask 10011100
        8 -5 -45 callsubr
        1 hvcurveto
        1 -89 rlineto
        hintmask 11001100
        43 -28 -65 64 -132 hhcurveto
        -177 -159 -133 -228 -226 151 -144 190 213 82 137 31 16 hvcurveto
        4 8 1 6 -8 6 rrcurveto
        endchar
      </CharString>
      <CharString index="41">
        -56 413 hlineto
        8 -4 4 -8 vhcurveto
        -124 -82 callsubr
        return
      </CharString>
      <CharString index="42">
        hmoveto
        8 4 -95 callsubr
        return
      </CharString>
      <CharString index="43">
        -8 -4 -38 callgsubr
        -43 72 callgsubr
        return
      </CharString>
      <CharString index="44">
        -8 -5 -105 callgsubr
        return
      </CharString>
      <CharString index="45">
        -98 -318 568 76 vlineto
        -53 callsubr
        49 -32 callsubr
        -239 -49 callsubr
      </CharString>
      <CharString index="46">
        301 -85 callgsubr
        return
      </CharString>
      <CharString index="47">
        -53 callsubr
        143 57 callsubr
        -57 74 callgsubr
        hintmask 10101100
        -81 -343 vlineto
        406 552 rlineto
        10 12 10 16 13 vvcurveto
        37 -32 callsubr
        -518 18 callsubr
        -143 vlineto
        -8 6 -6 8 vhcurveto
        56 hlineto
        8 6 6 8 hvcurveto
        hintmask 01011100
        81 342 vlineto
        -406 -553 rlineto
        -9 -11 -11 -14 -9 vvcurveto
        71 callsubr
        endchar
      </CharString>
      <CharString index="48">
        -31 callgsubr
        -149 83 return
      </CharString>
      <CharString index="49">
        66 32 34 54 30 20 -15 -4 5 vhcurveto
        6 -5 6 2 5 5 24 31 rcurveline
        5 6 -1 5 -7 6 rrcurveto
        8 -9 -33 32 -59 hhcurveto
        -100 -61 -57 -113 hvcurveto
        return
      </CharString>
      <CharString index="50">
        -104 callsubr
        240 -66 callsubr
        -77 return
      </CharString>
      <CharString index="51">
        hlineto
        -50 callgsubr
        return
      </CharString>
      <CharString index="52">
        83 vstem
        -69 callsubr
        return
      </CharString>
      <CharString index="53">
        -7 callgsubr
        161 -103 callgsubr
        -55 hlineto
        -8 -4 -38 callgsubr
        hintmask 10101110
        -98 -301 245 253 vlineto
        -96 callgsubr
        -253 248 301 -98 hlineto
        hintmask 10110110
        -20 callgsubr
        54 hlineto
        8 4 71 callgsubr
        -7 vhcurveto
        -669 hlineto
        -8 85 callsubr
        7 vhcurveto
        55 hlineto
        -242 -568 rlineto
        -67 -106 callsubr
        224 -66 callsubr
        -69 hlineto
        104 245 rlineto
        209 -245 -77 27 callsubr
        395 rmoveto
        -179 hlineto
        108 248 rlineto
        71 hlineto
        endchar
      </CharString>
      <CharString index="54">
        8 5 4 -18 callsubr
        -54 -56 callgsubr
        return
      </CharString>
      <CharString index="55">
        rmoveto
        29 -23 24 -29 -29 -23 -24 -29 -29 23 -23 29 29 23 23 29 vhcurveto
        endchar
      </CharString>
      <CharString index="56">
        -43 vlineto
        -8 return
      </CharString>
      <CharString index="57">
        -8 13 callgsubr
        return
      </CharString>
      <CharString index="58">
        -36 callsubr
        vhcurveto
        return
      </CharString>
      <CharString index="59">
        -12 -4 5 -5 18 hhcurveto
        33 16 -6 -20 -21 -12 -12 -31 -21 -17 9 4 -6 hvcurveto
        -5 3 -6 0 -6 -6 -10 -12 rcurveline
        -5 -6 3 -7 5 -3 rrcurveto
        return
      </CharString>
      <CharString index="60">
        -30 -23 -56 -56 -84 hhcurveto
        -63 -40 34 45 75 83 13 104 hvcurveto
        79 hlineto
        return
      </CharString>
      <CharString index="61">
        0 -43 callsubr
        return
      </CharString>
      <CharString index="62">
        56 callsubr
        55 callsubr
        -3 -3 -2 -4 vhcurveto
        return
      </CharString>
      <CharString index="63">
        40 -28 -63 55 -129 hhcurveto
        -174 -167 -129 -232 -226 150 -144 194 121 71 47 41 41 hvcurveto
        -1 -69 rlineto
        return
      </CharString>
      <CharString index="64">
        -8 5 -6 8 vhcurveto
        57 hlineto
        8 6 6 8 hvcurveto
        168 vlineto
        8 -6 5 -8 vhcurveto
        -603 18 callsubr
        -168 vlineto
        -8 6 -6 8 vhcurveto
        56 hlineto
        8 6 6 8 hvcurveto
        return
      </CharString>
      <CharString index="65">
        32 callgsubr
        303 -103 callgsubr
        -259 hlineto
        -8 -4 -38 callgsubr
        -46 vlineto
        47 callgsubr
        186 -78 hlineto
        return
      </CharString>
      <CharString index="66">
        -27 -10 -42 -29 -49 vvcurveto
        -43 31 -30 48 40 26 19 5 7 vhcurveto
        48 callsubr
        return
      </CharString>
      <CharString index="67">
        -101 callgsubr
        hintmask 11100000
        -53 626 hlineto
        17 -7 8 -20 vhcurveto
        -111 -91 callsubr
        hintmask 11001000
        55 -584 14 callgsubr
      </CharString>
      <CharString index="68">
        -308 -104 callsubr
        return
      </CharString>
      <CharString index="69">
        -4 -8 hvcurveto
        return
      </CharString>
      <CharString index="70">
        824 -97 callsubr
        return
      </CharString>
      <CharString index="71">
        vvcurveto
        -38 -23 -15 -18 -4 -3 -2 -4 vhcurveto
        return
      </CharString>
      <CharString index="72">
        -105 callsubr
        endchar
      </CharString>
      <CharString index="73">
        -8 callsubr
        5 -4 7 vhcurveto
        return
      </CharString>
      <CharString index="74">
        -67 -99 callsubr
        return
      </CharString>
      <CharString index="75">
        rmoveto
        -53 callsubr
        return
      </CharString>
      <CharString index="76">
        151 -151 217 return
      </CharString>
      <CharString index="77">
        279 hmoveto
        -10 callsubr
        -57 vlineto
        -105 callsubr
        57 -358 -55 -56 callgsubr
        -43 63 callsubr
        8 vhcurveto
        return
      </CharString>
      <CharString index="78">
        -53 callgsubr
        hintmask 10101111
        -98 -301 245 253 -27 callsubr
        -253 248 302 -98 hlineto
        hintmask 10110111
        -70 callgsubr
        hintmask 01101111
        -8 5 -86 callsubr
        76 -568 -76 -106 callsubr
        return
      </CharString>
      <CharString index="79">
        5 8 hvcurveto
        return
      </CharString>
      <CharString index="80" raw="1">
        221d0e   
      </CharString>
      <CharString index="81">
        rmoveto
        54 callsubr
        return
      </CharString>
      <CharString index="82">
        288 233 rmoveto
        -8 -4 -38 callgsubr
        -1 -27 rlineto
        -5 3 -3 3 -2 vhcurveto
        180 -153 rlineto
        -17 16 18 -14 21 hhcurveto
        54 2 callgsubr
        1 43 rlineto
        -97 callgsubr
        -43 hlineto
        -151 122 rlineto
        71 7 93 48 93 vvcurveto
        87 -61 75 -117 -104 -50 -77 -38 -19 vhcurveto
        322 94 callsubr
        -4 -4 -8 -1 hvcurveto
        1 -43 rlineto
        -8 -1 6 -4 7 hhcurveto
        56 hlineto
        return
      </CharString>
      <CharString index="83">
        8 4 -95 callsubr
        -118 hlineto
        -8 -4 -38 callgsubr
        1 -79 rlineto
        -2 hlineto
        return
      </CharString>
      <CharString index="84">
        hstem
        38 85 291 -55 callgsubr
        return
      </CharString>
      <CharString index="85">
        60 vstem
        183 359 rmoveto
        92 52 75 110 104 -53 76 -91 -90 -55 -76 -104 -110 53 -75 92 hvcurveto
        55 vmoveto
        -53 -32 47 81 81 31 46 54 54 31 -45 -82 -82 -32 -46 -53 hvcurveto
        388 -421 rmoveto
        92 52 75 110 104 -54 76 -90 -91 -54 -76 -104 -110 53 -75 92 hvcurveto
        55 vmoveto
        -54 -31 47 81 81 31 46 54 53 31 -45 -82 -82 -31 -46 -53 hvcurveto
        return
      </CharString>
      <CharString index="86" raw="1">
        06838765 1d581d0b  
      </CharString>
      <CharString index="87">
        -8 5 -18 callgsubr
        return
      </CharString>
      <CharString index="88">
        -32 callgsubr
        42 vlineto
        8 -5 return
      </CharString>
      <CharString index="89">
        -5 8 vhcurveto
        return
      </CharString>
      <CharString index="90">
        7 5 -95 callsubr
        -43 hlineto
        -187 251 122 107 rlineto
        65 hlineto
        8 4 -95 callsubr
        -192 11 callsubr
        36 hlineto
        -182 -167 rlineto
        448 vlineto
        8 -4 4 -8 vhcurveto
        -126 -91 callsubr
        return
      </CharString>
      <CharString index="91">
        -8 -4 -4 -8 -50 -11 -15 -31 hvcurveto
        return
      </CharString>
      <CharString index="92">
        8 -4 5 -8 vhcurveto
        -38 48 callgsubr
        1 -55 rlineto
        -1 hlineto
        return
      </CharString>
      <CharString index="93">
        hlineto
        8 4 -95 callsubr
        -186 hlineto
        -8 return
      </CharString>
      <CharString index="94">
        11 -28 -32 6 -31 hhcurveto
        -139 -111 -93 -158 -100 44 -76 68 -42 hvcurveto
        -24 -47 rlineto
        -7 -3 4 -5 8 hhcurveto
        51 132 rmoveto
        -38 30 -26 49 65 vvcurveto
        114 79 68 87 19 20 -5 -8 18 vhcurveto
        -106 -343 rmoveto
        157 310 rlineto
        33 -30 24 -46 -60 vvcurveto
        -113 -75 -71 -89 -17 -18 3 7 -15 vhcurveto
        return
      </CharString>
      <CharString index="95">
        28 callsubr
        -87 173 -18 36 -14 28 -34 16 rlinecurve
        85 46 51 98 171 vvcurveto
        69 -65 callsubr
        -223 -99 callsubr
        68 hlineto
        -218 -76 -63 -133 vhcurveto
        -105 281 61 hlineto
        return
      </CharString>
      <CharString index="96">
        -89 -162 -160 111 -95 135 return
      </CharString>
</ttFont>
